M48
;DRILL file {KiCad 4.0.7} date 05/20/18 10:33:38
;FORMAT={3:3/ absolute / metric / suppress trailing zeros}
FMAT,2
METRIC,LZ
T1C0.150
T2C0.800
T3C0.810
T4C1.000
T5C1.100
T6C1.800
T7C2.300
T8C3.000
%
G90
G05
M71
T1
X04382Y-10356
X0461Y-11732
X04675Y-09498
X05951Y-07376
X0605Y-1127
X0613Y-072
X0618Y-0996
X06267Y-13228
X06303Y-08024
X06348Y-10533
X06365Y-07387
X06405Y-13229
X06421Y-06988
X06614Y-14249
X06622Y-14097
X06809Y-10921
X0681Y-1201
X07003Y-09544
X07108Y-09455
X07318Y-09914
X0741Y-0722
X07474Y-106
X07507Y-08027
X076Y-1026
X0762Y-0694
X07699Y-0978
X0777Y-10503
X07807Y-11251
X0794Y-10288
X0797Y-10652
X0806Y-0722
X08087Y-10963
X08122Y-10825
X08136Y-06584
X082Y-1046
X08274Y-08986
X082762Y-092852
X083278Y-109012
X0839Y-0697
X08445Y-1064
X08453Y-1072
X08474Y-09711
X08474Y-10322
X08476Y-09416
X0849Y-10587
X08497Y-09352
X08522Y-10727
X08544Y-10467
X0855Y-1301
X08612Y-09004
X08621Y-10805
X08635Y-09225
X08714Y-10747
X08723Y-10486
X08851Y-06618
X0904Y-09351
X09094Y-08673
X09107Y-10154
X09142Y-11668
X0919Y-0759
X09192Y-12028
X09222Y-10942
X09329Y-1193
X0934Y-08734
X0937Y-09866
X09408Y-14102
X0943Y-075
X09447Y-10531
X09455Y-09292
X09485Y-09703
X095Y-09452
X0951Y-09019
X09525Y-12661
X09533Y-12994
X09544Y-08829
X09553Y-0939
X09559Y-10025
X09567Y-12859
X0958Y-14412
X09612Y-14055
X09712Y-10339
X09718Y-08804
X09765Y-12992
X0978Y-12885
X09794Y-13702
X09824Y-0824
X099Y-0697
X09934Y-12532
X09936Y-08909
X0997Y-13083
X10009Y-10029
X10014Y-11883
X10032Y-09136
X1005Y-071
X10075Y-14289
X10094Y-10134
X10099Y-12995
X10109Y-0801
X10161Y-14368
X10204Y-09043
X10215Y-14422
X10244Y-10001
X1026Y-12573
X10271Y-08714
X10271Y-12744
X10282Y-08185
X10288Y-14211
X10328Y-09327
X10333Y-11326
X10336Y-12271
X10351Y-09693
X1042Y-10261
X10439Y-09083
X1044Y-0939
X10445Y-12911
X10454Y-09991
X10475Y-12689
X10498Y-09031
X10506Y-12442
X1051Y-0674
X1051Y-09754
X1051Y-10447
X105156Y-133096
X10522Y-10534
X1053Y-0686
X10551Y-12908
X10556Y-10329
X105664Y-133604
X10567Y-12479
X10572Y-09986
X10575Y-10123
X10575Y-14233
X10602Y-09492
X10644Y-0688
X10645Y-14478
X10653Y-0961
X1067Y-10901
X10671Y-12538
X10671Y-12967
X10672Y-11381
X10681Y-12867
X10682Y-09037
X10694Y-13304
X10718Y-10294
X10718Y-1423
X1072Y-0765
X10722Y-12347
X10732Y-12047
X10736Y-09152
X1074Y-0937
X1074Y-10066
X1074Y-138
X10754Y-10172
X10757Y-07023
X1077Y-1293
X10776Y-07356
X1078Y-0787
X1079Y-1226
X10791Y-09991
X10794Y-12602
X10798Y-12508
X10802Y-13441
X1081Y-0719
X10812Y-10318
X10817Y-10388
X10823Y-10088
X10831Y-09245
X10838Y-08775
X10838Y-09386
X10839Y-12026
X10857Y-09575
X1086Y-13478
X10882Y-07865
X10901Y-09696
X10904Y-10311
X10905Y-10089
X10906Y-08769
X10921Y-11813
X10923Y-10385
X10927Y-10898
X109474Y-129032
X10968Y-09664
X10971Y-10458
X10973Y-09999
X10973Y-12791
X1102Y-1235
X11022Y-12905
X11023Y-10049
X11025Y-10409
X11026Y-09701
X11027Y-12573
X11038Y-07561
X11043Y-13041
X11047Y-13484
X11057Y-12792
X1106Y-1241
X11076Y-09752
X11076Y-10002
X11093Y-0765
X11099Y-10465
X11125Y-12507
X11128Y-10044
X11142Y-09758
X11147Y-07703
X1116Y-1319
X11172Y-1045
X1118Y-1305
X11182Y-11166
X11184Y-10184
X11216Y-09472
X11223Y-0759
X11227Y-07295
X11231Y-13703
X11236Y-0879
X11236Y-09176
X11241Y-11091
X11241Y-11235
X11251Y-09083
X11253Y-14236
X11276Y-09445
X11327Y-07259
X11355Y-12405
X11363Y-09711
X11407Y-13822
X11422Y-12421
X11425Y-07247
X11432Y-12846
X11468Y-10141
X11469Y-10043
X11475Y-0946
X1148Y-09085
X115Y-08229
X11507Y-13825
X1151Y-10418
X11514Y-09819
X11524Y-08369
X11532Y-08655
X11537Y-09028
X11546Y-08175
X11547Y-10638
X11556Y-0988
X11577Y-13828
X11584Y-08312
X11586Y-10093
X11606Y-10165
X11607Y-07887
X11608Y-07815
X11612Y-08206
X11616Y-09132
X11625Y-08707
X11627Y-11202
X11627Y-12292
X11631Y-12476
X11632Y-09942
X11633Y-08403
X11634Y-08511
X11642Y-10221
X11653Y-14196
X11673Y-0919
X11681Y-13817
X11695Y-11102
X11696Y-08547
X11729Y-09037
X11732Y-10204
X11743Y-07756
X11751Y-09342
X1176Y-11999
X117602Y-124206
X11764Y-11917
X11768Y-11809
X11772Y-13704
X11777Y-11063
X11787Y-0982
X11791Y-13986
X118Y-08153
X118Y-12478
X118Y-12795
X11806Y-09034
X11817Y-08842
X11819Y-09139
X11821Y-07792
X11823Y-08609
X11824Y-11365
X11827Y-08281
X11827Y-10271
X118364Y-124206
X11843Y-09883
X11856Y-12283
X11876Y-11905
X1188Y-09425
X11883Y-10139
X1189Y-13664
X11908Y-11052
X1191Y-10369
X1192Y-11149
X11929Y-11214
X11931Y-13112
X119385Y-138415
X1194Y-0933
X11966Y-10415
X11981Y-11302
X11981Y-13042
X11991Y-09275
X12013Y-10484
X12032Y-12981
X12034Y-11235
X12056Y-1335
X1207Y-09216
X1207Y-1
X12075Y-10538
X12084Y-12924
X12088Y-11182
X12096Y-12569
X12129Y-10598
X12139Y-11127
X12142Y-09222
X12142Y-12468
X1217Y-10662
X12193Y-11173
X12194Y-1031
X12196Y-09265
X12241Y-10123
X12254Y-07192
X12264Y-09267
X12328Y-09212
X12344Y-07183
X12346Y-09948
X12379Y-09158
X12432Y-09887
X12439Y-09246
X12443Y-09819
X12458Y-10065
X12462Y-10238
X12464Y-07164
X12471Y-10317
X12494Y-09319
X12506Y-10115
X12507Y-1322
X12511Y-11351
X12523Y-10762
X12524Y-13568
X12527Y-09123
X12532Y-09709
X12532Y-11424
X12538Y-09498
X12542Y-11636
X12557Y-11489
X12567Y-07172
X1257Y-10713
X12579Y-139
X1258Y-09329
X12586Y-13327
X12594Y-11553
X125984Y-122682
X12602Y-09127
X126238Y-119126
X12627Y-13151
X12656Y-11579
X12663Y-12817
X12743Y-10919
X12787Y-10856
X12789Y-11305
X12789Y-11529
X12789Y-11662
X12791Y-11389
X12793Y-11456
X12796Y-11595
X12816Y-09061
X12822Y-14017
X1285Y-10223
X12879Y-10445
X12925Y-10056
X12946Y-10542
X1295Y-13923
X12962Y-09796
X12995Y-11081
X12999Y-11166
X13031Y-1098
X13047Y-13096
X13077Y-1303
X13104Y-11349
X13122Y-11575
X13132Y-12978
X13133Y-10886
X13138Y-11001
X13184Y-12926
X13196Y-10861
X13216Y-11377
X1323Y-13893
X13249Y-13445
X13272Y-12098
X1328Y-13945
X13292Y-13528
X13317Y-10034
X13326Y-11846
X13327Y-0727
X13355Y-13551
X13417Y-11673
X13419Y-07268
X13463Y-12908
X13473Y-13132
X13484Y-12333
X134874Y-103124
X135Y-1385
X13515Y-11229
X13526Y-07273
X13551Y-12286
X13609Y-12756
X1362Y-1385
X13627Y-07258
X136395Y-079695
X13651Y-13062
X13654Y-08361
X137Y-13145
X13704Y-08071
X13712Y-0833
X13716Y-07246
X13731Y-10453
X13738Y-12799
X13743Y-11177
X13762Y-08025
X13774Y-0835
X13828Y-0806
X13833Y-10575
X13835Y-07244
X13838Y-08375
X139192Y-114046
X139192Y-11938
X139446Y-107696
X14216Y-11659
X14272Y-13935
X14291Y-12015
X14299Y-11776
X14314Y-13777
X1433Y-12112
X1433Y-12537
X14351Y-116586
X14358Y-10861
X14415Y-0955
X14421Y-12222
X14423Y-10629
X1446Y-13829
X14468Y-12607
X14496Y-1161
X14498Y-11813
X14523Y-08081
X14533Y-10258
X14562Y-13881
X14624Y-09949
X14636Y-12798
X14664Y-07055
X1474Y-12921
X14761Y-11765
X14784Y-11431
X14792Y-10237
X14813Y-07088
X14832Y-11796
X14847Y-12064
X14856Y-12428
X14885Y-10562
X14888Y-11182
X14905Y-07105
X14929Y-10141
X14943Y-07865
X14954Y-12779
X14975Y-13161
X14992Y-1
X15002Y-07128
X15018Y-10123
X15029Y-13364
X150876Y-101346
X15088Y-1
X15097Y-11081
X1511Y-13168
X15113Y-10776
X151384Y-103886
X15156Y-13084
X151638Y-092456
X15179Y-11018
X151892Y-101092
X152146Y-088138
X15239Y-11051
X15323Y-11983
X1563Y-1202
X15641Y-11715
X15641Y-12458
X15748Y-099314
X1585Y-1325
X16082Y-07957
X16088Y-07684
X16158Y-12981
X165Y-0709
X1652Y-076236
X168148Y-084836
X17666Y-14426
T2
X13666Y-09262
X13666Y-0975
X14135Y-13362
X14623Y-13362
T3
X17078Y-08001
X17078Y-08255
X17278Y-08001
X17278Y-08255
T4
X124206Y-142748
X126746Y-142748
X129286Y-142748
X131826Y-142748
X134366Y-142748
T5
X15371Y-13811
X15371Y-14261
X16021Y-13811
X16021Y-14261
T6
X05105Y-074372
X05109Y-135844
X0511Y-094954
X0511Y-115064
X05675Y-074372
X05679Y-135844
X0568Y-094954
X0568Y-115064
X07874Y-12562
X07874Y-13132
X08846Y-07293
X08846Y-07863
X169Y-0996
X169Y-1053
X169Y-111
X16952Y-13015
X1747Y-0996
X1747Y-1053
X1747Y-111
X17522Y-13015
T7
X17548Y-07528
X17548Y-08728
T8
X05708Y-068197
X05708Y-080547
X05712Y-129669
X05712Y-142019
X05713Y-088779
X05713Y-101129
X05713Y-108889
X05713Y-121239
X072565Y-12529
X082285Y-07896
X084915Y-12529
X094635Y-07896
X16867Y-094425
X16867Y-116175
X16919Y-123975
X16919Y-136325
T0
M30
