G04*
G04 #@! TF.GenerationSoftware,Altium Limited,Altium Designer,19.1.6 (110)*
G04*
G04 Layer_Color=32896*
%FSLAX42Y42*%
%MOMM*%
G71*
G01*
G75*
%ADD10C,0.25*%
%ADD11C,0.20*%
%ADD12C,0.25*%
D10*
X1112Y1995D02*
G03*
X1112Y1995I-12J0D01*
G01*
D11*
X327Y193D02*
Y2707D01*
X73Y193D02*
X327D01*
X73D02*
Y2707D01*
X327D01*
X550Y2275D02*
X650D01*
X550Y2125D02*
X650D01*
X125Y1350D02*
Y1450D01*
X275Y1350D02*
Y1450D01*
X650Y425D02*
X750D01*
X650Y575D02*
X750D01*
X856Y870D02*
Y1930D01*
X806Y870D02*
Y1930D01*
X1277Y870D02*
Y1930D01*
X806Y870D02*
X1277D01*
X806Y1930D02*
X1277D01*
D12*
X300Y2100D02*
X150D01*
Y2025D01*
X175Y2000D01*
X225D01*
X250Y2025D01*
Y2100D01*
Y2050D02*
X300Y2000D01*
X175Y1850D02*
X150Y1875D01*
Y1925D01*
X175Y1950D01*
X200D01*
X225Y1925D01*
Y1875D01*
X250Y1850D01*
X275D01*
X300Y1875D01*
Y1925D01*
X275Y1950D01*
X500Y2100D02*
Y1950D01*
X575D01*
X600Y1975D01*
Y2025D01*
X575Y2050D01*
X500D01*
X550D02*
X600Y2100D01*
X650D02*
X700D01*
X675D01*
Y1950D01*
X650Y1975D01*
X100Y900D02*
X250D01*
Y975D01*
X225Y1000D01*
X175D01*
X150Y975D01*
Y900D01*
Y950D02*
X100Y1000D01*
Y1150D02*
Y1050D01*
X200Y1150D01*
X225D01*
X250Y1125D01*
Y1075D01*
X225Y1050D01*
X800Y600D02*
Y750D01*
X725D01*
X700Y725D01*
Y675D01*
X725Y650D01*
X800D01*
X750D02*
X700Y600D01*
X650Y725D02*
X625Y750D01*
X575D01*
X550Y725D01*
Y700D01*
X575Y675D01*
X600D01*
X575D01*
X550Y650D01*
Y625D01*
X575Y600D01*
X625D01*
X650Y625D01*
X1000Y906D02*
Y1006D01*
X1025Y1031D01*
X1075D01*
X1100Y1006D01*
Y906D01*
X1075Y881D01*
X1025D01*
X1050Y931D02*
X1000Y881D01*
X1025D02*
X1000Y906D01*
X950Y881D02*
X900D01*
X925D01*
Y1031D01*
X950Y1006D01*
M02*
