M48
;DRILL file {KiCad (5.0.1)-4} date 01/07/19 16:43:13
;FORMAT={3:3/ absolute / metric / suppress trailing zeros}
FMAT,2
METRIC,LZ
T1C0.400
T2C1.000
T3C1.200
T4C1.520
T5C1.780
T6C2.500
%
G90
G05
M71
T1
X142265Y-077749
X146964Y-073812
X151384Y-094996
X15527Y-073406
X156134Y-111887
X158197Y-073336
X158496Y-10287
X160985Y-073508
X164014Y-073324
X167056Y-07333
X168529Y-066802
X169799Y-073457
X175291Y-073717
X175291Y-073717
X178181Y-073736
X178181Y-073736
X181591Y-073756
X184455Y-073635
X187604Y-073584
X190424Y-074066
X193091Y-108864
X19617Y-073742
X198984Y-073762
X199365Y-115392
X199898Y-10602
X202368Y-073844
X20513Y-073787
X208153Y-069723
X210668Y-074371
X215392Y-074295
X220243Y-076808
X220243Y-076808
T2
X225882Y-070383
X225882Y-072923
X225882Y-075463
X225882Y-078003
X225882Y-080543
X225882Y-083083
X225882Y-085623
X225882Y-088163
X225882Y-090703
X225882Y-093243
X225882Y-095783
X225882Y-098323
X204876Y-112938
X209956Y-112928
X139573Y-105689
X139573Y-108229
X226111Y-104927
X226111Y-107467
X139192Y-074168
X139192Y-076708
X139192Y-079248
X139192Y-081788
X139192Y-084328
X139192Y-086868
X139192Y-089408
X139192Y-091948
X156032Y-115773
X161112Y-115783
T3
X150292Y-099416
X152832Y-099416
X155372Y-099416
X157912Y-099416
X160452Y-099416
X162992Y-099416
X165532Y-099416
X168072Y-099416
X170612Y-099416
X173152Y-099416
X175692Y-099416
X178232Y-099416
X180772Y-099416
X183312Y-099416
X185852Y-099416
X188392Y-099416
T4
X223698Y-056642
X223698Y-061722
X215443Y-114452
X220523Y-114452
X14539Y-115214
X15047Y-115214
T5
X17713Y-049637
X17713Y-055987
X18348Y-049637
X18348Y-055987
X18983Y-049637
X18983Y-055987
X155896Y-049993
X155896Y-056343
X162246Y-049993
X162246Y-056343
X168596Y-049993
X168596Y-056343
X198441Y-049764
X198441Y-056114
X204791Y-049764
X204791Y-056114
X211141Y-049764
X211141Y-056114
T6
X144793Y-068415
X144793Y-099416
X219791Y-068415
X219792Y-099416
T0
M30
