G04 #@! TF.GenerationSoftware,KiCad,Pcbnew,(5.0.1)-4*
G04 #@! TF.CreationDate,2019-01-07T16:42:56+05:30*
G04 #@! TF.ProjectId,monitoring_board,6D6F6E69746F72696E675F626F617264,rev?*
G04 #@! TF.SameCoordinates,Original*
G04 #@! TF.FileFunction,Copper,L2,Bot,Signal*
G04 #@! TF.FilePolarity,Positive*
%FSLAX46Y46*%
G04 Gerber Fmt 4.6, Leading zero omitted, Abs format (unit mm)*
G04 Created by KiCad (PCBNEW (5.0.1)-4) date 01/07/19 16:42:56*
%MOMM*%
%LPD*%
G01*
G04 APERTURE LIST*
G04 #@! TA.AperFunction,ComponentPad*
%ADD10R,1.700000X1.700000*%
G04 #@! TD*
G04 #@! TA.AperFunction,ComponentPad*
%ADD11O,1.700000X1.700000*%
G04 #@! TD*
G04 #@! TA.AperFunction,ComponentPad*
%ADD12R,1.800000X2.600000*%
G04 #@! TD*
G04 #@! TA.AperFunction,ComponentPad*
%ADD13O,1.800000X2.600000*%
G04 #@! TD*
G04 #@! TA.AperFunction,ComponentPad*
%ADD14C,3.000000*%
G04 #@! TD*
G04 #@! TA.AperFunction,ComponentPad*
%ADD15C,2.280000*%
G04 #@! TD*
G04 #@! TA.AperFunction,ComponentPad*
%ADD16R,2.280000X2.280000*%
G04 #@! TD*
G04 #@! TA.AperFunction,ComponentPad*
%ADD17C,2.000000*%
G04 #@! TD*
G04 #@! TA.AperFunction,ComponentPad*
%ADD18R,3.000000X3.000000*%
G04 #@! TD*
G04 #@! TA.AperFunction,ViaPad*
%ADD19C,0.800000*%
G04 #@! TD*
G04 #@! TA.AperFunction,Conductor*
%ADD20C,0.250000*%
G04 #@! TD*
G04 #@! TA.AperFunction,Conductor*
%ADD21C,2.000000*%
G04 #@! TD*
G04 #@! TA.AperFunction,Conductor*
%ADD22C,0.254000*%
G04 #@! TD*
G04 APERTURE END LIST*
D10*
G04 #@! TO.P,J7,1*
G04 #@! TO.N,/27*
X139192000Y-91948000D03*
D11*
G04 #@! TO.P,J7,2*
G04 #@! TO.N,/28*
X139192000Y-89408000D03*
G04 #@! TO.P,J7,3*
G04 #@! TO.N,/23*
X139192000Y-86868000D03*
G04 #@! TO.P,J7,4*
G04 #@! TO.N,/24*
X139192000Y-84328000D03*
G04 #@! TO.P,J7,5*
G04 #@! TO.N,/25*
X139192000Y-81788000D03*
G04 #@! TO.P,J7,6*
G04 #@! TO.N,/26*
X139192000Y-79248000D03*
G04 #@! TO.P,J7,7*
G04 #@! TO.N,+5V*
X139192000Y-76708000D03*
G04 #@! TO.P,J7,8*
G04 #@! TO.N,GND*
X139192000Y-74168000D03*
G04 #@! TD*
D12*
G04 #@! TO.P,DS1,1*
G04 #@! TO.N,GND*
X150291800Y-99415600D03*
D13*
G04 #@! TO.P,DS1,2*
G04 #@! TO.N,+5V*
X152831800Y-99415600D03*
G04 #@! TO.P,DS1,3*
G04 #@! TO.N,Net-(DS1-Pad3)*
X155371800Y-99415600D03*
G04 #@! TO.P,DS1,4*
G04 #@! TO.N,/28*
X157911800Y-99415600D03*
G04 #@! TO.P,DS1,5*
G04 #@! TO.N,GND*
X160451800Y-99415600D03*
G04 #@! TO.P,DS1,6*
G04 #@! TO.N,/27*
X162991800Y-99415600D03*
G04 #@! TO.P,DS1,7*
G04 #@! TO.N,Net-(DS1-Pad7)*
X165531800Y-99415600D03*
G04 #@! TO.P,DS1,8*
G04 #@! TO.N,Net-(DS1-Pad8)*
X168071800Y-99415600D03*
G04 #@! TO.P,DS1,9*
G04 #@! TO.N,Net-(DS1-Pad9)*
X170611800Y-99415600D03*
G04 #@! TO.P,DS1,10*
G04 #@! TO.N,Net-(DS1-Pad10)*
X173151800Y-99415600D03*
G04 #@! TO.P,DS1,11*
G04 #@! TO.N,/23*
X175691800Y-99415600D03*
G04 #@! TO.P,DS1,12*
G04 #@! TO.N,/24*
X178231800Y-99415600D03*
G04 #@! TO.P,DS1,13*
G04 #@! TO.N,/25*
X180771800Y-99415600D03*
G04 #@! TO.P,DS1,14*
G04 #@! TO.N,/26*
X183311800Y-99415600D03*
G04 #@! TO.P,DS1,15*
G04 #@! TO.N,Net-(DS1-Pad15)*
X185851800Y-99415600D03*
G04 #@! TO.P,DS1,16*
G04 #@! TO.N,GND*
X188391800Y-99415600D03*
D14*
G04 #@! TO.P,DS1,*
G04 #@! TO.N,*
X144792700Y-99415600D03*
X144792700Y-68414900D03*
X219791280Y-68414900D03*
X219791800Y-99415600D03*
G04 #@! TD*
D15*
G04 #@! TO.P,J4,6*
G04 #@! TO.N,/VESC7*
X198441000Y-56114400D03*
G04 #@! TO.P,J4,5*
G04 #@! TO.N,/VESC8*
X204791000Y-56114400D03*
G04 #@! TO.P,J4,4*
G04 #@! TO.N,/SOV*
X211141000Y-56114400D03*
G04 #@! TO.P,J4,3*
G04 #@! TO.N,GND*
X198441000Y-49764400D03*
G04 #@! TO.P,J4,2*
X204791000Y-49764400D03*
D16*
G04 #@! TO.P,J4,1*
X211141000Y-49764400D03*
G04 #@! TD*
D15*
G04 #@! TO.P,J5,6*
G04 #@! TO.N,/VESC1*
X155896000Y-56343000D03*
G04 #@! TO.P,J5,5*
G04 #@! TO.N,/VESC2*
X162246000Y-56343000D03*
G04 #@! TO.P,J5,4*
G04 #@! TO.N,/VESC3*
X168596000Y-56343000D03*
G04 #@! TO.P,J5,3*
G04 #@! TO.N,GND*
X155896000Y-49993000D03*
G04 #@! TO.P,J5,2*
X162246000Y-49993000D03*
D16*
G04 #@! TO.P,J5,1*
X168596000Y-49993000D03*
G04 #@! TD*
D10*
G04 #@! TO.P,J9,1*
G04 #@! TO.N,Net-(J9-Pad1)*
X139573000Y-105689400D03*
D11*
G04 #@! TO.P,J9,2*
G04 #@! TO.N,GND*
X139573000Y-108229400D03*
G04 #@! TD*
D17*
G04 #@! TO.P,F1,2*
G04 #@! TO.N,Net-(F1-Pad2)*
X204876400Y-112938400D03*
G04 #@! TO.P,F1,1*
G04 #@! TO.N,/VIN1*
X209956400Y-112928400D03*
G04 #@! TD*
G04 #@! TO.P,F2,1*
G04 #@! TO.N,/VIN2*
X156032200Y-115773200D03*
G04 #@! TO.P,F2,2*
G04 #@! TO.N,Net-(F2-Pad2)*
X161112200Y-115783200D03*
G04 #@! TD*
D18*
G04 #@! TO.P,J1,1*
G04 #@! TO.N,/VBATT1*
X215442800Y-114452400D03*
D14*
G04 #@! TO.P,J1,2*
G04 #@! TO.N,GND*
X220522800Y-114452400D03*
G04 #@! TD*
G04 #@! TO.P,J2,2*
G04 #@! TO.N,GND*
X150469600Y-115214400D03*
D18*
G04 #@! TO.P,J2,1*
G04 #@! TO.N,/VBATT2*
X145389600Y-115214400D03*
G04 #@! TD*
D16*
G04 #@! TO.P,J3,1*
G04 #@! TO.N,GND*
X189830400Y-49637400D03*
D15*
G04 #@! TO.P,J3,2*
X183480400Y-49637400D03*
G04 #@! TO.P,J3,3*
X177130400Y-49637400D03*
G04 #@! TO.P,J3,4*
G04 #@! TO.N,/VESC6*
X189830400Y-55987400D03*
G04 #@! TO.P,J3,5*
G04 #@! TO.N,/VESC5*
X183480400Y-55987400D03*
G04 #@! TO.P,J3,6*
G04 #@! TO.N,/VESC4*
X177130400Y-55987400D03*
G04 #@! TD*
D14*
G04 #@! TO.P,J6,2*
G04 #@! TO.N,GND*
X223697800Y-56642000D03*
D18*
G04 #@! TO.P,J6,1*
G04 #@! TO.N,/VNUC*
X223697800Y-61722000D03*
G04 #@! TD*
D10*
G04 #@! TO.P,J8,1*
G04 #@! TO.N,Net-(J8-Pad1)*
X226110800Y-104927400D03*
D11*
G04 #@! TO.P,J8,2*
G04 #@! TO.N,GND*
X226110800Y-107467400D03*
G04 #@! TD*
D10*
G04 #@! TO.P,J10,1*
G04 #@! TO.N,/A0*
X225882200Y-98323400D03*
D11*
G04 #@! TO.P,J10,2*
G04 #@! TO.N,/A1*
X225882200Y-95783400D03*
G04 #@! TO.P,J10,3*
G04 #@! TO.N,/A2*
X225882200Y-93243400D03*
G04 #@! TO.P,J10,4*
G04 #@! TO.N,/A3*
X225882200Y-90703400D03*
G04 #@! TO.P,J10,5*
G04 #@! TO.N,/A4*
X225882200Y-88163400D03*
G04 #@! TO.P,J10,6*
G04 #@! TO.N,/A5*
X225882200Y-85623400D03*
G04 #@! TO.P,J10,7*
G04 #@! TO.N,/A6*
X225882200Y-83083400D03*
G04 #@! TO.P,J10,8*
G04 #@! TO.N,/A7*
X225882200Y-80543400D03*
G04 #@! TO.P,J10,9*
G04 #@! TO.N,/A8*
X225882200Y-78003400D03*
G04 #@! TO.P,J10,10*
G04 #@! TO.N,/A9*
X225882200Y-75463400D03*
G04 #@! TO.P,J10,11*
G04 #@! TO.N,/A10*
X225882200Y-72923400D03*
G04 #@! TO.P,J10,12*
G04 #@! TO.N,/A11*
X225882200Y-70383400D03*
G04 #@! TD*
D19*
G04 #@! TO.N,/28*
X151384000Y-94996000D03*
G04 #@! TO.N,GND*
X208153000Y-69723000D03*
X215392000Y-74295000D03*
G04 #@! TO.N,Net-(Q1-Pad1)*
X199364600Y-115392200D03*
X199898000Y-106019600D03*
G04 #@! TO.N,/VNUC*
X220243400Y-76808300D03*
X220243400Y-76808300D03*
G04 #@! TO.N,/VIN2*
X156133800Y-111887000D03*
X193090800Y-108864400D03*
G04 #@! TO.N,/VIN1*
X168529000Y-66802000D03*
G04 #@! TO.N,/VESC1*
X158197182Y-73335782D03*
G04 #@! TO.N,/VESC2*
X164013782Y-73323818D03*
G04 #@! TO.N,/VESC3*
X169799000Y-73456800D03*
G04 #@! TO.N,/VESC4*
X178181000Y-73736200D03*
X178181000Y-73736200D03*
G04 #@! TO.N,/VESC5*
X184454800Y-73634600D03*
G04 #@! TO.N,/VESC6*
X190423800Y-74066400D03*
G04 #@! TO.N,/VESC7*
X198983600Y-73761600D03*
G04 #@! TO.N,/VESC8*
X205130400Y-73787000D03*
G04 #@! TO.N,/SOV*
X210667600Y-74371200D03*
G04 #@! TO.N,/A1*
X155270200Y-73406000D03*
G04 #@! TO.N,/A5*
X181590582Y-73755618D03*
G04 #@! TO.N,/A0*
X146964400Y-73812400D03*
G04 #@! TO.N,/A6*
X187604400Y-73583800D03*
G04 #@! TO.N,/A2*
X160985200Y-73507600D03*
G04 #@! TO.N,+5V*
X142265400Y-77749400D03*
X158496000Y-102870000D03*
G04 #@! TO.N,/A3*
X167055800Y-73329800D03*
G04 #@! TO.N,/A7*
X196170182Y-73742182D03*
G04 #@! TO.N,/A8*
X202367782Y-73843782D03*
G04 #@! TO.N,/A4*
X175291382Y-73716782D03*
X175291382Y-73716782D03*
G04 #@! TD*
D20*
G04 #@! TO.N,/28*
X140843000Y-91059000D02*
X139192000Y-89408000D01*
X140843000Y-92964000D02*
X140843000Y-93726000D01*
X140843000Y-92964000D02*
X140843000Y-91059000D01*
X140843000Y-93091000D02*
X140843000Y-92964000D01*
X140843000Y-93726000D02*
X142113000Y-94996000D01*
X142113000Y-94996000D02*
X151384000Y-94996000D01*
G04 #@! TO.N,GND*
X209751000Y-49764400D02*
X211141000Y-49764400D01*
X208153000Y-51362400D02*
X209751000Y-49764400D01*
X208153000Y-69723000D02*
X208153000Y-51362400D01*
X212531000Y-49764400D02*
X211141000Y-49764400D01*
X215392000Y-52625400D02*
X212531000Y-49764400D01*
X215392000Y-74295000D02*
X215392000Y-52625400D01*
G04 #@! TO.N,Net-(Q1-Pad1)*
X199364600Y-115392200D02*
X199364600Y-106553000D01*
X199364600Y-106553000D02*
X199898000Y-106019600D01*
G04 #@! TO.N,/VNUC*
X223697800Y-73353900D02*
X223697800Y-61722000D01*
X220243400Y-76808300D02*
X223697800Y-73353900D01*
D21*
X223697800Y-65222000D02*
X223520000Y-65399800D01*
X223697800Y-61722000D02*
X223697800Y-65222000D01*
X223520000Y-73531700D02*
X220373310Y-76678390D01*
X223520000Y-65399800D02*
X223520000Y-73531700D01*
G04 #@! TO.N,/VIN2*
X159156400Y-108864400D02*
X193090800Y-108864400D01*
X156133800Y-111887000D02*
X159156400Y-108864400D01*
D20*
G04 #@! TO.N,/VESC1*
X155896000Y-60976200D02*
X155896000Y-56343000D01*
X158197182Y-63277382D02*
X155896000Y-60976200D01*
X158197182Y-73335782D02*
X158197182Y-63277382D01*
G04 #@! TO.N,/VESC2*
X164013782Y-73323818D02*
X164013782Y-63582182D01*
X162246000Y-61814400D02*
X162246000Y-56343000D01*
X164013782Y-63582182D02*
X162246000Y-61814400D01*
G04 #@! TO.N,/VESC3*
X169799000Y-72891115D02*
X169824400Y-72865715D01*
X169799000Y-73456800D02*
X169799000Y-72891115D01*
X169824400Y-72865715D02*
X169824400Y-63347600D01*
X168596000Y-62119200D02*
X168596000Y-56343000D01*
X169824400Y-63347600D02*
X168596000Y-62119200D01*
G04 #@! TO.N,/VESC4*
X177130400Y-61281000D02*
X177130400Y-55987400D01*
X178181000Y-73736200D02*
X178181000Y-62331600D01*
X178181000Y-62331600D02*
X177130400Y-61281000D01*
G04 #@! TO.N,/VESC5*
X183480400Y-61535000D02*
X183480400Y-55987400D01*
X184454800Y-73634600D02*
X184454800Y-62509400D01*
X184454800Y-62509400D02*
X183480400Y-61535000D01*
G04 #@! TO.N,/VESC6*
X190423800Y-74066400D02*
X190423800Y-62280800D01*
X189830400Y-61687400D02*
X189830400Y-55987400D01*
X190423800Y-62280800D02*
X189830400Y-61687400D01*
G04 #@! TO.N,/VESC7*
X198983600Y-73761600D02*
X198983600Y-64262000D01*
X198441000Y-63719400D02*
X198441000Y-56114400D01*
X198983600Y-64262000D02*
X198441000Y-63719400D01*
G04 #@! TO.N,/VESC8*
X205130400Y-56453800D02*
X204791000Y-56114400D01*
X205130400Y-73787000D02*
X205130400Y-56453800D01*
G04 #@! TO.N,/SOV*
X210667600Y-56587800D02*
X211141000Y-56114400D01*
X210667600Y-74371200D02*
X210667600Y-56587800D01*
G04 #@! TO.N,/A1*
X177647600Y-95783400D02*
X225882200Y-95783400D01*
X155270200Y-73406000D02*
X177647600Y-95783400D01*
G04 #@! TO.N,/A5*
X193458364Y-85623400D02*
X225882200Y-85623400D01*
X181590582Y-73755618D02*
X193458364Y-85623400D01*
G04 #@! TO.N,/A0*
X225149399Y-97590599D02*
X225733599Y-98174799D01*
X170742599Y-97590599D02*
X225149399Y-97590599D01*
X146964400Y-73812400D02*
X170742599Y-97590599D01*
G04 #@! TO.N,/A6*
X197104000Y-83083400D02*
X225882200Y-83083400D01*
X187604400Y-73583800D02*
X197104000Y-83083400D01*
G04 #@! TO.N,/A2*
X160985200Y-73533000D02*
X160985200Y-73507600D01*
X180721000Y-93243400D02*
X225733599Y-93243400D01*
X160985200Y-73507600D02*
X180721000Y-93243400D01*
G04 #@! TO.N,+5V*
X152831800Y-88315800D02*
X152831800Y-99415600D01*
X142265400Y-77749400D02*
X152831800Y-88315800D01*
X152831800Y-99815600D02*
X152831800Y-99415600D01*
X155886200Y-102870000D02*
X152831800Y-99815600D01*
X158496000Y-102870000D02*
X155886200Y-102870000D01*
G04 #@! TO.N,/A3*
X184429400Y-90703400D02*
X225882200Y-90703400D01*
X167055800Y-73329800D02*
X184429400Y-90703400D01*
G04 #@! TO.N,/A7*
X224680119Y-80543400D02*
X225882200Y-80543400D01*
X202405715Y-80543400D02*
X224680119Y-80543400D01*
X196170182Y-74307867D02*
X202405715Y-80543400D01*
X196170182Y-73742182D02*
X196170182Y-74307867D01*
G04 #@! TO.N,/A8*
X224680119Y-78003400D02*
X225882200Y-78003400D01*
X205961715Y-78003400D02*
X224680119Y-78003400D01*
X202367782Y-74409467D02*
X205961715Y-78003400D01*
X202367782Y-73843782D02*
X202367782Y-74409467D01*
G04 #@! TO.N,/A4*
X189738000Y-88163400D02*
X225882200Y-88163400D01*
X175291382Y-73716782D02*
X189738000Y-88163400D01*
G04 #@! TD*
D22*
G04 #@! TO.N,/VIN1*
G36*
X229183917Y-45642061D02*
X229059084Y-124537000D01*
X137718000Y-124537000D01*
X137718000Y-113714400D01*
X143242160Y-113714400D01*
X143242160Y-116714400D01*
X143291443Y-116962165D01*
X143431791Y-117172209D01*
X143641835Y-117312557D01*
X143889600Y-117361840D01*
X146889600Y-117361840D01*
X147137365Y-117312557D01*
X147347409Y-117172209D01*
X147487757Y-116962165D01*
X147537040Y-116714400D01*
X147537040Y-114789722D01*
X148334600Y-114789722D01*
X148334600Y-115639078D01*
X148659634Y-116423780D01*
X149260220Y-117024366D01*
X150044922Y-117349400D01*
X150894278Y-117349400D01*
X151678980Y-117024366D01*
X152279566Y-116423780D01*
X152604600Y-115639078D01*
X152604600Y-115447978D01*
X154397200Y-115447978D01*
X154397200Y-116098422D01*
X154646114Y-116699353D01*
X155106047Y-117159286D01*
X155706978Y-117408200D01*
X156357422Y-117408200D01*
X156958353Y-117159286D01*
X157418286Y-116699353D01*
X157667200Y-116098422D01*
X157667200Y-115457978D01*
X159477200Y-115457978D01*
X159477200Y-116108422D01*
X159726114Y-116709353D01*
X160186047Y-117169286D01*
X160786978Y-117418200D01*
X161437422Y-117418200D01*
X162038353Y-117169286D01*
X162498286Y-116709353D01*
X162747200Y-116108422D01*
X162747200Y-115457978D01*
X162634678Y-115186326D01*
X198329600Y-115186326D01*
X198329600Y-115598074D01*
X198487169Y-115978480D01*
X198778320Y-116269631D01*
X199158726Y-116427200D01*
X199570474Y-116427200D01*
X199950880Y-116269631D01*
X200242031Y-115978480D01*
X200399600Y-115598074D01*
X200399600Y-115186326D01*
X200242031Y-114805920D01*
X200124600Y-114688489D01*
X200124600Y-112613178D01*
X203241400Y-112613178D01*
X203241400Y-113263622D01*
X203490314Y-113864553D01*
X203950247Y-114324486D01*
X204551178Y-114573400D01*
X205201622Y-114573400D01*
X205802553Y-114324486D01*
X206046107Y-114080932D01*
X208983473Y-114080932D01*
X209082136Y-114347787D01*
X209691861Y-114574308D01*
X210341860Y-114550256D01*
X210830664Y-114347787D01*
X210929327Y-114080932D01*
X209956400Y-113108005D01*
X208983473Y-114080932D01*
X206046107Y-114080932D01*
X206262486Y-113864553D01*
X206511400Y-113263622D01*
X206511400Y-112663861D01*
X208310492Y-112663861D01*
X208334544Y-113313860D01*
X208537013Y-113802664D01*
X208803868Y-113901327D01*
X209776795Y-112928400D01*
X210136005Y-112928400D01*
X211108932Y-113901327D01*
X211375787Y-113802664D01*
X211602308Y-113192939D01*
X211593408Y-112952400D01*
X213295360Y-112952400D01*
X213295360Y-115952400D01*
X213344643Y-116200165D01*
X213484991Y-116410209D01*
X213695035Y-116550557D01*
X213942800Y-116599840D01*
X216942800Y-116599840D01*
X217190565Y-116550557D01*
X217400609Y-116410209D01*
X217540957Y-116200165D01*
X217590240Y-115952400D01*
X217590240Y-114027722D01*
X218387800Y-114027722D01*
X218387800Y-114877078D01*
X218712834Y-115661780D01*
X219313420Y-116262366D01*
X220098122Y-116587400D01*
X220947478Y-116587400D01*
X221732180Y-116262366D01*
X222332766Y-115661780D01*
X222657800Y-114877078D01*
X222657800Y-114027722D01*
X222332766Y-113243020D01*
X221732180Y-112642434D01*
X220947478Y-112317400D01*
X220098122Y-112317400D01*
X219313420Y-112642434D01*
X218712834Y-113243020D01*
X218387800Y-114027722D01*
X217590240Y-114027722D01*
X217590240Y-112952400D01*
X217540957Y-112704635D01*
X217400609Y-112494591D01*
X217190565Y-112354243D01*
X216942800Y-112304960D01*
X213942800Y-112304960D01*
X213695035Y-112354243D01*
X213484991Y-112494591D01*
X213344643Y-112704635D01*
X213295360Y-112952400D01*
X211593408Y-112952400D01*
X211578256Y-112542940D01*
X211375787Y-112054136D01*
X211108932Y-111955473D01*
X210136005Y-112928400D01*
X209776795Y-112928400D01*
X208803868Y-111955473D01*
X208537013Y-112054136D01*
X208310492Y-112663861D01*
X206511400Y-112663861D01*
X206511400Y-112613178D01*
X206262486Y-112012247D01*
X206026107Y-111775868D01*
X208983473Y-111775868D01*
X209956400Y-112748795D01*
X210929327Y-111775868D01*
X210830664Y-111509013D01*
X210220939Y-111282492D01*
X209570940Y-111306544D01*
X209082136Y-111509013D01*
X208983473Y-111775868D01*
X206026107Y-111775868D01*
X205802553Y-111552314D01*
X205201622Y-111303400D01*
X204551178Y-111303400D01*
X203950247Y-111552314D01*
X203490314Y-112012247D01*
X203241400Y-112613178D01*
X200124600Y-112613178D01*
X200124600Y-107467400D01*
X224596708Y-107467400D01*
X224711961Y-108046818D01*
X225040175Y-108538025D01*
X225531382Y-108866239D01*
X225964544Y-108952400D01*
X226257056Y-108952400D01*
X226690218Y-108866239D01*
X227181425Y-108538025D01*
X227509639Y-108046818D01*
X227624892Y-107467400D01*
X227509639Y-106887982D01*
X227181425Y-106396775D01*
X227163181Y-106384584D01*
X227208565Y-106375557D01*
X227418609Y-106235209D01*
X227558957Y-106025165D01*
X227608240Y-105777400D01*
X227608240Y-104077400D01*
X227558957Y-103829635D01*
X227418609Y-103619591D01*
X227208565Y-103479243D01*
X226960800Y-103429960D01*
X225260800Y-103429960D01*
X225013035Y-103479243D01*
X224802991Y-103619591D01*
X224662643Y-103829635D01*
X224613360Y-104077400D01*
X224613360Y-105777400D01*
X224662643Y-106025165D01*
X224802991Y-106235209D01*
X225013035Y-106375557D01*
X225058419Y-106384584D01*
X225040175Y-106396775D01*
X224711961Y-106887982D01*
X224596708Y-107467400D01*
X200124600Y-107467400D01*
X200124600Y-107046015D01*
X200484280Y-106897031D01*
X200775431Y-106605880D01*
X200933000Y-106225474D01*
X200933000Y-105813726D01*
X200775431Y-105433320D01*
X200484280Y-105142169D01*
X200103874Y-104984600D01*
X199692126Y-104984600D01*
X199311720Y-105142169D01*
X199020569Y-105433320D01*
X198863000Y-105813726D01*
X198863000Y-105974116D01*
X198816672Y-106005071D01*
X198774272Y-106068527D01*
X198774271Y-106068528D01*
X198648697Y-106256463D01*
X198589712Y-106553000D01*
X198604601Y-106627852D01*
X198604600Y-114688489D01*
X198487169Y-114805920D01*
X198329600Y-115186326D01*
X162634678Y-115186326D01*
X162498286Y-114857047D01*
X162038353Y-114397114D01*
X161437422Y-114148200D01*
X160786978Y-114148200D01*
X160186047Y-114397114D01*
X159726114Y-114857047D01*
X159477200Y-115457978D01*
X157667200Y-115457978D01*
X157667200Y-115447978D01*
X157418286Y-114847047D01*
X156958353Y-114387114D01*
X156357422Y-114138200D01*
X155706978Y-114138200D01*
X155106047Y-114387114D01*
X154646114Y-114847047D01*
X154397200Y-115447978D01*
X152604600Y-115447978D01*
X152604600Y-114789722D01*
X152279566Y-114005020D01*
X151678980Y-113404434D01*
X150894278Y-113079400D01*
X150044922Y-113079400D01*
X149260220Y-113404434D01*
X148659634Y-114005020D01*
X148334600Y-114789722D01*
X147537040Y-114789722D01*
X147537040Y-113714400D01*
X147487757Y-113466635D01*
X147347409Y-113256591D01*
X147137365Y-113116243D01*
X146889600Y-113066960D01*
X143889600Y-113066960D01*
X143641835Y-113116243D01*
X143431791Y-113256591D01*
X143291443Y-113466635D01*
X143242160Y-113714400D01*
X137718000Y-113714400D01*
X137718000Y-111887000D01*
X154466769Y-111887000D01*
X154593665Y-112524945D01*
X154955032Y-113065768D01*
X155495855Y-113427135D01*
X156133800Y-113554031D01*
X156771745Y-113427135D01*
X157176053Y-113156985D01*
X159833639Y-110499400D01*
X193251831Y-110499400D01*
X193728745Y-110404536D01*
X194269569Y-110043169D01*
X194630936Y-109502345D01*
X194757831Y-108864400D01*
X194630936Y-108226455D01*
X194269569Y-107685631D01*
X193728745Y-107324264D01*
X193251831Y-107229400D01*
X159317430Y-107229400D01*
X159156400Y-107197369D01*
X158995370Y-107229400D01*
X158995369Y-107229400D01*
X158518455Y-107324264D01*
X157977631Y-107685631D01*
X157886414Y-107822147D01*
X154863815Y-110844747D01*
X154593665Y-111249055D01*
X154466769Y-111887000D01*
X137718000Y-111887000D01*
X137718000Y-108229400D01*
X138058908Y-108229400D01*
X138174161Y-108808818D01*
X138502375Y-109300025D01*
X138993582Y-109628239D01*
X139426744Y-109714400D01*
X139719256Y-109714400D01*
X140152418Y-109628239D01*
X140643625Y-109300025D01*
X140971839Y-108808818D01*
X141087092Y-108229400D01*
X140971839Y-107649982D01*
X140643625Y-107158775D01*
X140625381Y-107146584D01*
X140670765Y-107137557D01*
X140880809Y-106997209D01*
X141021157Y-106787165D01*
X141070440Y-106539400D01*
X141070440Y-104839400D01*
X141021157Y-104591635D01*
X140880809Y-104381591D01*
X140670765Y-104241243D01*
X140423000Y-104191960D01*
X138723000Y-104191960D01*
X138475235Y-104241243D01*
X138265191Y-104381591D01*
X138124843Y-104591635D01*
X138075560Y-104839400D01*
X138075560Y-106539400D01*
X138124843Y-106787165D01*
X138265191Y-106997209D01*
X138475235Y-107137557D01*
X138520619Y-107146584D01*
X138502375Y-107158775D01*
X138174161Y-107649982D01*
X138058908Y-108229400D01*
X137718000Y-108229400D01*
X137718000Y-98990922D01*
X142657700Y-98990922D01*
X142657700Y-99840278D01*
X142982734Y-100624980D01*
X143583320Y-101225566D01*
X144368022Y-101550600D01*
X145217378Y-101550600D01*
X146002080Y-101225566D01*
X146602666Y-100624980D01*
X146927700Y-99840278D01*
X146927700Y-98990922D01*
X146602666Y-98206220D01*
X146002080Y-97605634D01*
X145217378Y-97280600D01*
X144368022Y-97280600D01*
X143583320Y-97605634D01*
X142982734Y-98206220D01*
X142657700Y-98990922D01*
X137718000Y-98990922D01*
X137718000Y-92915842D01*
X137743843Y-93045765D01*
X137884191Y-93255809D01*
X138094235Y-93396157D01*
X138342000Y-93445440D01*
X140042000Y-93445440D01*
X140083000Y-93437285D01*
X140083000Y-93651153D01*
X140068112Y-93726000D01*
X140083000Y-93800847D01*
X140083000Y-93800852D01*
X140121449Y-93994143D01*
X140127097Y-94022537D01*
X140191264Y-94118569D01*
X140295072Y-94273929D01*
X140358528Y-94316329D01*
X141522671Y-95480473D01*
X141565071Y-95543929D01*
X141816463Y-95711904D01*
X142038148Y-95756000D01*
X142038152Y-95756000D01*
X142112999Y-95770888D01*
X142187846Y-95756000D01*
X150680289Y-95756000D01*
X150797720Y-95873431D01*
X151178126Y-96031000D01*
X151589874Y-96031000D01*
X151970280Y-95873431D01*
X152071801Y-95771910D01*
X152071801Y-97677287D01*
X151788929Y-97866296D01*
X151649609Y-97657791D01*
X151439565Y-97517443D01*
X151191800Y-97468160D01*
X149391800Y-97468160D01*
X149144035Y-97517443D01*
X148933991Y-97657791D01*
X148793643Y-97867835D01*
X148744360Y-98115600D01*
X148744360Y-100715600D01*
X148793643Y-100963365D01*
X148933991Y-101173409D01*
X149144035Y-101313757D01*
X149391800Y-101363040D01*
X151191800Y-101363040D01*
X151439565Y-101313757D01*
X151649609Y-101173409D01*
X151788929Y-100964903D01*
X152232874Y-101261538D01*
X152831800Y-101380672D01*
X153240730Y-101299331D01*
X155295871Y-103354473D01*
X155338271Y-103417929D01*
X155589663Y-103585904D01*
X155811348Y-103630000D01*
X155811353Y-103630000D01*
X155886200Y-103644888D01*
X155961047Y-103630000D01*
X157792289Y-103630000D01*
X157909720Y-103747431D01*
X158290126Y-103905000D01*
X158701874Y-103905000D01*
X159082280Y-103747431D01*
X159373431Y-103456280D01*
X159531000Y-103075874D01*
X159531000Y-102664126D01*
X159373431Y-102283720D01*
X159082280Y-101992569D01*
X158701874Y-101835000D01*
X158290126Y-101835000D01*
X157909720Y-101992569D01*
X157792289Y-102110000D01*
X156201002Y-102110000D01*
X155455104Y-101364102D01*
X155970727Y-101261538D01*
X156478473Y-100922273D01*
X156641800Y-100677836D01*
X156805128Y-100922273D01*
X157312874Y-101261538D01*
X157911800Y-101380672D01*
X158510727Y-101261538D01*
X159018473Y-100922273D01*
X159181800Y-100677836D01*
X159345128Y-100922273D01*
X159852874Y-101261538D01*
X160451800Y-101380672D01*
X161050727Y-101261538D01*
X161558473Y-100922273D01*
X161721800Y-100677836D01*
X161885128Y-100922273D01*
X162392874Y-101261538D01*
X162991800Y-101380672D01*
X163590727Y-101261538D01*
X164098473Y-100922273D01*
X164261800Y-100677836D01*
X164425128Y-100922273D01*
X164932874Y-101261538D01*
X165531800Y-101380672D01*
X166130727Y-101261538D01*
X166638473Y-100922273D01*
X166801800Y-100677836D01*
X166965128Y-100922273D01*
X167472874Y-101261538D01*
X168071800Y-101380672D01*
X168670727Y-101261538D01*
X169178473Y-100922273D01*
X169341800Y-100677836D01*
X169505128Y-100922273D01*
X170012874Y-101261538D01*
X170611800Y-101380672D01*
X171210727Y-101261538D01*
X171718473Y-100922273D01*
X171881800Y-100677836D01*
X172045128Y-100922273D01*
X172552874Y-101261538D01*
X173151800Y-101380672D01*
X173750727Y-101261538D01*
X174258473Y-100922273D01*
X174421800Y-100677836D01*
X174585128Y-100922273D01*
X175092874Y-101261538D01*
X175691800Y-101380672D01*
X176290727Y-101261538D01*
X176798473Y-100922273D01*
X176961800Y-100677836D01*
X177125128Y-100922273D01*
X177632874Y-101261538D01*
X178231800Y-101380672D01*
X178830727Y-101261538D01*
X179338473Y-100922273D01*
X179501800Y-100677836D01*
X179665128Y-100922273D01*
X180172874Y-101261538D01*
X180771800Y-101380672D01*
X181370727Y-101261538D01*
X181878473Y-100922273D01*
X182041800Y-100677836D01*
X182205128Y-100922273D01*
X182712874Y-101261538D01*
X183311800Y-101380672D01*
X183910727Y-101261538D01*
X184418473Y-100922273D01*
X184581800Y-100677836D01*
X184745128Y-100922273D01*
X185252874Y-101261538D01*
X185851800Y-101380672D01*
X186450727Y-101261538D01*
X186958473Y-100922273D01*
X187121800Y-100677836D01*
X187285128Y-100922273D01*
X187792874Y-101261538D01*
X188391800Y-101380672D01*
X188990727Y-101261538D01*
X189498473Y-100922273D01*
X189837738Y-100414527D01*
X189926800Y-99966781D01*
X189926800Y-98864418D01*
X189837738Y-98416673D01*
X189793589Y-98350599D01*
X217922030Y-98350599D01*
X217656800Y-98990922D01*
X217656800Y-99840278D01*
X217981834Y-100624980D01*
X218582420Y-101225566D01*
X219367122Y-101550600D01*
X220216478Y-101550600D01*
X221001180Y-101225566D01*
X221601766Y-100624980D01*
X221926800Y-99840278D01*
X221926800Y-98990922D01*
X221661570Y-98350599D01*
X224384760Y-98350599D01*
X224384760Y-99173400D01*
X224434043Y-99421165D01*
X224574391Y-99631209D01*
X224784435Y-99771557D01*
X225032200Y-99820840D01*
X226732200Y-99820840D01*
X226979965Y-99771557D01*
X227190009Y-99631209D01*
X227330357Y-99421165D01*
X227379640Y-99173400D01*
X227379640Y-97473400D01*
X227330357Y-97225635D01*
X227190009Y-97015591D01*
X226979965Y-96875243D01*
X226934581Y-96866216D01*
X226952825Y-96854025D01*
X227281039Y-96362818D01*
X227396292Y-95783400D01*
X227281039Y-95203982D01*
X226952825Y-94712775D01*
X226654439Y-94513400D01*
X226952825Y-94314025D01*
X227281039Y-93822818D01*
X227396292Y-93243400D01*
X227281039Y-92663982D01*
X226952825Y-92172775D01*
X226654439Y-91973400D01*
X226952825Y-91774025D01*
X227281039Y-91282818D01*
X227396292Y-90703400D01*
X227281039Y-90123982D01*
X226952825Y-89632775D01*
X226654439Y-89433400D01*
X226952825Y-89234025D01*
X227281039Y-88742818D01*
X227396292Y-88163400D01*
X227281039Y-87583982D01*
X226952825Y-87092775D01*
X226654439Y-86893400D01*
X226952825Y-86694025D01*
X227281039Y-86202818D01*
X227396292Y-85623400D01*
X227281039Y-85043982D01*
X226952825Y-84552775D01*
X226654439Y-84353400D01*
X226952825Y-84154025D01*
X227281039Y-83662818D01*
X227396292Y-83083400D01*
X227281039Y-82503982D01*
X226952825Y-82012775D01*
X226654439Y-81813400D01*
X226952825Y-81614025D01*
X227281039Y-81122818D01*
X227396292Y-80543400D01*
X227281039Y-79963982D01*
X226952825Y-79472775D01*
X226654439Y-79273400D01*
X226952825Y-79074025D01*
X227281039Y-78582818D01*
X227396292Y-78003400D01*
X227281039Y-77423982D01*
X226952825Y-76932775D01*
X226654439Y-76733400D01*
X226952825Y-76534025D01*
X227281039Y-76042818D01*
X227396292Y-75463400D01*
X227281039Y-74883982D01*
X226952825Y-74392775D01*
X226654439Y-74193400D01*
X226952825Y-73994025D01*
X227281039Y-73502818D01*
X227396292Y-72923400D01*
X227281039Y-72343982D01*
X226952825Y-71852775D01*
X226654439Y-71653400D01*
X226952825Y-71454025D01*
X227281039Y-70962818D01*
X227396292Y-70383400D01*
X227281039Y-69803982D01*
X226952825Y-69312775D01*
X226461618Y-68984561D01*
X226028456Y-68898400D01*
X225735944Y-68898400D01*
X225302782Y-68984561D01*
X225155000Y-69083306D01*
X225155000Y-65984068D01*
X225237936Y-65859945D01*
X225332800Y-65383031D01*
X225332800Y-65383027D01*
X225364830Y-65222001D01*
X225332800Y-65060975D01*
X225332800Y-63842587D01*
X225445565Y-63820157D01*
X225655609Y-63679809D01*
X225795957Y-63469765D01*
X225845240Y-63222000D01*
X225845240Y-60222000D01*
X225795957Y-59974235D01*
X225655609Y-59764191D01*
X225445565Y-59623843D01*
X225197800Y-59574560D01*
X222197800Y-59574560D01*
X221950035Y-59623843D01*
X221739991Y-59764191D01*
X221599643Y-59974235D01*
X221550360Y-60222000D01*
X221550360Y-63222000D01*
X221599643Y-63469765D01*
X221739991Y-63679809D01*
X221950035Y-63820157D01*
X222062801Y-63842587D01*
X222062801Y-64637732D01*
X221979864Y-64761856D01*
X221970302Y-64809929D01*
X221852969Y-65399800D01*
X221885000Y-65560830D01*
X221885000Y-67890564D01*
X221601246Y-67205520D01*
X221000660Y-66604934D01*
X220215958Y-66279900D01*
X219366602Y-66279900D01*
X218581900Y-66604934D01*
X217981314Y-67205520D01*
X217656280Y-67990222D01*
X217656280Y-68839578D01*
X217981314Y-69624280D01*
X218581900Y-70224866D01*
X219366602Y-70549900D01*
X220215958Y-70549900D01*
X221000660Y-70224866D01*
X221601246Y-69624280D01*
X221885000Y-68939236D01*
X221885001Y-72854460D01*
X219103325Y-75636137D01*
X218833175Y-76040445D01*
X218706279Y-76678390D01*
X218818667Y-77243400D01*
X206276517Y-77243400D01*
X203309053Y-74275937D01*
X203402782Y-74049656D01*
X203402782Y-73637908D01*
X203245213Y-73257502D01*
X202954062Y-72966351D01*
X202573656Y-72808782D01*
X202161908Y-72808782D01*
X201781502Y-72966351D01*
X201490351Y-73257502D01*
X201332782Y-73637908D01*
X201332782Y-74049656D01*
X201490351Y-74430062D01*
X201623468Y-74563179D01*
X201651878Y-74706004D01*
X201819854Y-74957396D01*
X201883310Y-74999796D01*
X205371386Y-78487873D01*
X205413786Y-78551329D01*
X205477242Y-78593729D01*
X205665177Y-78719304D01*
X205713320Y-78728880D01*
X205886863Y-78763400D01*
X205886867Y-78763400D01*
X205961715Y-78778288D01*
X206036563Y-78763400D01*
X224604022Y-78763400D01*
X224811575Y-79074025D01*
X225109961Y-79273400D01*
X224811575Y-79472775D01*
X224604022Y-79783400D01*
X202720518Y-79783400D01*
X197111453Y-74174337D01*
X197205182Y-73948056D01*
X197205182Y-73536308D01*
X197047613Y-73155902D01*
X196756462Y-72864751D01*
X196376056Y-72707182D01*
X195964308Y-72707182D01*
X195583902Y-72864751D01*
X195292751Y-73155902D01*
X195135182Y-73536308D01*
X195135182Y-73948056D01*
X195292751Y-74328462D01*
X195425868Y-74461579D01*
X195454278Y-74604404D01*
X195622254Y-74855796D01*
X195685710Y-74898196D01*
X201815388Y-81027876D01*
X201857786Y-81091329D01*
X201921239Y-81133727D01*
X201921241Y-81133729D01*
X202033267Y-81208582D01*
X202109178Y-81259304D01*
X202330863Y-81303400D01*
X202330867Y-81303400D01*
X202405714Y-81318288D01*
X202480561Y-81303400D01*
X224604022Y-81303400D01*
X224811575Y-81614025D01*
X225109961Y-81813400D01*
X224811575Y-82012775D01*
X224604022Y-82323400D01*
X197418802Y-82323400D01*
X190181864Y-75086463D01*
X190217926Y-75101400D01*
X190629674Y-75101400D01*
X191010080Y-74943831D01*
X191301231Y-74652680D01*
X191458800Y-74272274D01*
X191458800Y-73860526D01*
X191301231Y-73480120D01*
X191183800Y-73362689D01*
X191183800Y-62355646D01*
X191198688Y-62280799D01*
X191183800Y-62205952D01*
X191183800Y-62205948D01*
X191139704Y-61984263D01*
X191035913Y-61828929D01*
X191014129Y-61796326D01*
X191014127Y-61796324D01*
X190971729Y-61732871D01*
X190908275Y-61690472D01*
X190590400Y-61372598D01*
X190590400Y-57593844D01*
X190835857Y-57492172D01*
X191335172Y-56992857D01*
X191605400Y-56340469D01*
X191605400Y-55761331D01*
X196666000Y-55761331D01*
X196666000Y-56467469D01*
X196936228Y-57119857D01*
X197435543Y-57619172D01*
X197681001Y-57720844D01*
X197681000Y-63644553D01*
X197666112Y-63719400D01*
X197681000Y-63794247D01*
X197681000Y-63794251D01*
X197725096Y-64015936D01*
X197893071Y-64267329D01*
X197956530Y-64309731D01*
X198223601Y-64576803D01*
X198223600Y-73057889D01*
X198106169Y-73175320D01*
X197948600Y-73555726D01*
X197948600Y-73967474D01*
X198106169Y-74347880D01*
X198397320Y-74639031D01*
X198777726Y-74796600D01*
X199189474Y-74796600D01*
X199569880Y-74639031D01*
X199861031Y-74347880D01*
X200018600Y-73967474D01*
X200018600Y-73555726D01*
X199861031Y-73175320D01*
X199743600Y-73057889D01*
X199743600Y-64336846D01*
X199758488Y-64261999D01*
X199743600Y-64187152D01*
X199743600Y-64187148D01*
X199699504Y-63965463D01*
X199531529Y-63714071D01*
X199468072Y-63671671D01*
X199201000Y-63404599D01*
X199201000Y-57720844D01*
X199446457Y-57619172D01*
X199945772Y-57119857D01*
X200216000Y-56467469D01*
X200216000Y-55761331D01*
X203016000Y-55761331D01*
X203016000Y-56467469D01*
X203286228Y-57119857D01*
X203785543Y-57619172D01*
X204370401Y-57861428D01*
X204370400Y-73083289D01*
X204252969Y-73200720D01*
X204095400Y-73581126D01*
X204095400Y-73992874D01*
X204252969Y-74373280D01*
X204544120Y-74664431D01*
X204924526Y-74822000D01*
X205336274Y-74822000D01*
X205716680Y-74664431D01*
X206007831Y-74373280D01*
X206165400Y-73992874D01*
X206165400Y-73581126D01*
X206007831Y-73200720D01*
X205890400Y-73083289D01*
X205890400Y-69517126D01*
X207118000Y-69517126D01*
X207118000Y-69928874D01*
X207275569Y-70309280D01*
X207566720Y-70600431D01*
X207947126Y-70758000D01*
X208358874Y-70758000D01*
X208739280Y-70600431D01*
X209030431Y-70309280D01*
X209188000Y-69928874D01*
X209188000Y-69517126D01*
X209030431Y-69136720D01*
X208913000Y-69019289D01*
X208913000Y-55761331D01*
X209366000Y-55761331D01*
X209366000Y-56467469D01*
X209636228Y-57119857D01*
X209907601Y-57391230D01*
X209907600Y-73667489D01*
X209790169Y-73784920D01*
X209632600Y-74165326D01*
X209632600Y-74577074D01*
X209790169Y-74957480D01*
X210081320Y-75248631D01*
X210461726Y-75406200D01*
X210873474Y-75406200D01*
X211253880Y-75248631D01*
X211545031Y-74957480D01*
X211702600Y-74577074D01*
X211702600Y-74165326D01*
X211545031Y-73784920D01*
X211427600Y-73667489D01*
X211427600Y-57889400D01*
X211494069Y-57889400D01*
X212146457Y-57619172D01*
X212645772Y-57119857D01*
X212916000Y-56467469D01*
X212916000Y-55761331D01*
X212645772Y-55108943D01*
X212146457Y-54609628D01*
X211494069Y-54339400D01*
X210787931Y-54339400D01*
X210135543Y-54609628D01*
X209636228Y-55108943D01*
X209366000Y-55761331D01*
X208913000Y-55761331D01*
X208913000Y-51677201D01*
X209416940Y-51173262D01*
X209543191Y-51362209D01*
X209753235Y-51502557D01*
X210001000Y-51551840D01*
X212281000Y-51551840D01*
X212528765Y-51502557D01*
X212738809Y-51362209D01*
X212865060Y-51173262D01*
X214632001Y-52940203D01*
X214632000Y-73591289D01*
X214514569Y-73708720D01*
X214357000Y-74089126D01*
X214357000Y-74500874D01*
X214514569Y-74881280D01*
X214805720Y-75172431D01*
X215186126Y-75330000D01*
X215597874Y-75330000D01*
X215978280Y-75172431D01*
X216269431Y-74881280D01*
X216427000Y-74500874D01*
X216427000Y-74089126D01*
X216269431Y-73708720D01*
X216152000Y-73591289D01*
X216152000Y-56217322D01*
X221562800Y-56217322D01*
X221562800Y-57066678D01*
X221887834Y-57851380D01*
X222488420Y-58451966D01*
X223273122Y-58777000D01*
X224122478Y-58777000D01*
X224907180Y-58451966D01*
X225507766Y-57851380D01*
X225832800Y-57066678D01*
X225832800Y-56217322D01*
X225507766Y-55432620D01*
X224907180Y-54832034D01*
X224122478Y-54507000D01*
X223273122Y-54507000D01*
X222488420Y-54832034D01*
X221887834Y-55432620D01*
X221562800Y-56217322D01*
X216152000Y-56217322D01*
X216152000Y-52700246D01*
X216166888Y-52625399D01*
X216152000Y-52550552D01*
X216152000Y-52550548D01*
X216107904Y-52328863D01*
X215939929Y-52077471D01*
X215876473Y-52035071D01*
X213121331Y-49279930D01*
X213078929Y-49216471D01*
X212928440Y-49115917D01*
X212928440Y-48624400D01*
X212879157Y-48376635D01*
X212738809Y-48166591D01*
X212528765Y-48026243D01*
X212281000Y-47976960D01*
X210001000Y-47976960D01*
X209753235Y-48026243D01*
X209543191Y-48166591D01*
X209402843Y-48376635D01*
X209353560Y-48624400D01*
X209353560Y-49115917D01*
X209203071Y-49216471D01*
X209160671Y-49279927D01*
X207668528Y-50772071D01*
X207605072Y-50814471D01*
X207562672Y-50877927D01*
X207562671Y-50877928D01*
X207437097Y-51065863D01*
X207378112Y-51362400D01*
X207393001Y-51437252D01*
X207393000Y-69019289D01*
X207275569Y-69136720D01*
X207118000Y-69517126D01*
X205890400Y-69517126D01*
X205890400Y-57525229D01*
X206295772Y-57119857D01*
X206566000Y-56467469D01*
X206566000Y-55761331D01*
X206295772Y-55108943D01*
X205796457Y-54609628D01*
X205144069Y-54339400D01*
X204437931Y-54339400D01*
X203785543Y-54609628D01*
X203286228Y-55108943D01*
X203016000Y-55761331D01*
X200216000Y-55761331D01*
X199945772Y-55108943D01*
X199446457Y-54609628D01*
X198794069Y-54339400D01*
X198087931Y-54339400D01*
X197435543Y-54609628D01*
X196936228Y-55108943D01*
X196666000Y-55761331D01*
X191605400Y-55761331D01*
X191605400Y-55634331D01*
X191335172Y-54981943D01*
X190835857Y-54482628D01*
X190183469Y-54212400D01*
X189477331Y-54212400D01*
X188824943Y-54482628D01*
X188325628Y-54981943D01*
X188055400Y-55634331D01*
X188055400Y-56340469D01*
X188325628Y-56992857D01*
X188824943Y-57492172D01*
X189070401Y-57593844D01*
X189070400Y-61612553D01*
X189055512Y-61687400D01*
X189070400Y-61762247D01*
X189070400Y-61762251D01*
X189114496Y-61983936D01*
X189282471Y-62235329D01*
X189345929Y-62277730D01*
X189663801Y-62595603D01*
X189663800Y-73362689D01*
X189546369Y-73480120D01*
X189388800Y-73860526D01*
X189388800Y-74272274D01*
X189403737Y-74308336D01*
X188639400Y-73543999D01*
X188639400Y-73377926D01*
X188481831Y-72997520D01*
X188190680Y-72706369D01*
X187810274Y-72548800D01*
X187398526Y-72548800D01*
X187018120Y-72706369D01*
X186726969Y-72997520D01*
X186569400Y-73377926D01*
X186569400Y-73789674D01*
X186726969Y-74170080D01*
X187018120Y-74461231D01*
X187398526Y-74618800D01*
X187564599Y-74618800D01*
X196513671Y-83567873D01*
X196556071Y-83631329D01*
X196807463Y-83799304D01*
X197029148Y-83843400D01*
X197029152Y-83843400D01*
X197103999Y-83858288D01*
X197178846Y-83843400D01*
X224604022Y-83843400D01*
X224811575Y-84154025D01*
X225109961Y-84353400D01*
X224811575Y-84552775D01*
X224604022Y-84863400D01*
X193773166Y-84863400D01*
X182625582Y-73715817D01*
X182625582Y-73549744D01*
X182468013Y-73169338D01*
X182176862Y-72878187D01*
X181796456Y-72720618D01*
X181384708Y-72720618D01*
X181004302Y-72878187D01*
X180713151Y-73169338D01*
X180555582Y-73549744D01*
X180555582Y-73961492D01*
X180713151Y-74341898D01*
X181004302Y-74633049D01*
X181384708Y-74790618D01*
X181550781Y-74790618D01*
X192868035Y-86107873D01*
X192910435Y-86171329D01*
X193161827Y-86339304D01*
X193383512Y-86383400D01*
X193383516Y-86383400D01*
X193458363Y-86398288D01*
X193533210Y-86383400D01*
X224604022Y-86383400D01*
X224811575Y-86694025D01*
X225109961Y-86893400D01*
X224811575Y-87092775D01*
X224604022Y-87403400D01*
X190052802Y-87403400D01*
X176326382Y-73676981D01*
X176326382Y-73510908D01*
X176168813Y-73130502D01*
X175877662Y-72839351D01*
X175497256Y-72681782D01*
X175085508Y-72681782D01*
X174705102Y-72839351D01*
X174413951Y-73130502D01*
X174256382Y-73510908D01*
X174256382Y-73922656D01*
X174413951Y-74303062D01*
X174705102Y-74594213D01*
X175085508Y-74751782D01*
X175251581Y-74751782D01*
X189147671Y-88647873D01*
X189190071Y-88711329D01*
X189441463Y-88879304D01*
X189663148Y-88923400D01*
X189663152Y-88923400D01*
X189737999Y-88938288D01*
X189812846Y-88923400D01*
X224604022Y-88923400D01*
X224811575Y-89234025D01*
X225109961Y-89433400D01*
X224811575Y-89632775D01*
X224604022Y-89943400D01*
X184744202Y-89943400D01*
X168090800Y-73289999D01*
X168090800Y-73123926D01*
X167933231Y-72743520D01*
X167642080Y-72452369D01*
X167261674Y-72294800D01*
X166849926Y-72294800D01*
X166469520Y-72452369D01*
X166178369Y-72743520D01*
X166020800Y-73123926D01*
X166020800Y-73535674D01*
X166178369Y-73916080D01*
X166469520Y-74207231D01*
X166849926Y-74364800D01*
X167015999Y-74364800D01*
X183839071Y-91187873D01*
X183881471Y-91251329D01*
X183944927Y-91293729D01*
X184132862Y-91419304D01*
X184181005Y-91428880D01*
X184354548Y-91463400D01*
X184354552Y-91463400D01*
X184429400Y-91478288D01*
X184504248Y-91463400D01*
X224604022Y-91463400D01*
X224811575Y-91774025D01*
X225109961Y-91973400D01*
X224811575Y-92172775D01*
X224604022Y-92483400D01*
X181035802Y-92483400D01*
X162020200Y-73467799D01*
X162020200Y-73301726D01*
X161862631Y-72921320D01*
X161571480Y-72630169D01*
X161191074Y-72472600D01*
X160779326Y-72472600D01*
X160398920Y-72630169D01*
X160107769Y-72921320D01*
X159950200Y-73301726D01*
X159950200Y-73713474D01*
X160107769Y-74093880D01*
X160398920Y-74385031D01*
X160779326Y-74542600D01*
X160945399Y-74542600D01*
X180130671Y-93727873D01*
X180173071Y-93791329D01*
X180424463Y-93959304D01*
X180646148Y-94003400D01*
X180646152Y-94003400D01*
X180720999Y-94018288D01*
X180795846Y-94003400D01*
X224604022Y-94003400D01*
X224811575Y-94314025D01*
X225109961Y-94513400D01*
X224811575Y-94712775D01*
X224604022Y-95023400D01*
X177962402Y-95023400D01*
X156305200Y-73366199D01*
X156305200Y-73200126D01*
X156147631Y-72819720D01*
X155856480Y-72528569D01*
X155476074Y-72371000D01*
X155064326Y-72371000D01*
X154683920Y-72528569D01*
X154392769Y-72819720D01*
X154235200Y-73200126D01*
X154235200Y-73611874D01*
X154392769Y-73992280D01*
X154683920Y-74283431D01*
X155064326Y-74441000D01*
X155230399Y-74441000D01*
X177057271Y-96267873D01*
X177099671Y-96331329D01*
X177351063Y-96499304D01*
X177572748Y-96543400D01*
X177572752Y-96543400D01*
X177647600Y-96558288D01*
X177722448Y-96543400D01*
X224604022Y-96543400D01*
X224795922Y-96830599D01*
X171057401Y-96830599D01*
X147999400Y-73772599D01*
X147999400Y-73606526D01*
X147841831Y-73226120D01*
X147550680Y-72934969D01*
X147170274Y-72777400D01*
X146758526Y-72777400D01*
X146378120Y-72934969D01*
X146086969Y-73226120D01*
X145929400Y-73606526D01*
X145929400Y-74018274D01*
X146086969Y-74398680D01*
X146378120Y-74689831D01*
X146758526Y-74847400D01*
X146924599Y-74847400D01*
X169793464Y-97716266D01*
X169505127Y-97908927D01*
X169341800Y-98153363D01*
X169178473Y-97908927D01*
X168670726Y-97569662D01*
X168071800Y-97450528D01*
X167472873Y-97569662D01*
X166965127Y-97908927D01*
X166801800Y-98153363D01*
X166638473Y-97908927D01*
X166130726Y-97569662D01*
X165531800Y-97450528D01*
X164932873Y-97569662D01*
X164425127Y-97908927D01*
X164261800Y-98153363D01*
X164098473Y-97908927D01*
X163590726Y-97569662D01*
X162991800Y-97450528D01*
X162392873Y-97569662D01*
X161885127Y-97908927D01*
X161721800Y-98153363D01*
X161558473Y-97908927D01*
X161050726Y-97569662D01*
X160451800Y-97450528D01*
X159852873Y-97569662D01*
X159345127Y-97908927D01*
X159181800Y-98153363D01*
X159018473Y-97908927D01*
X158510726Y-97569662D01*
X157911800Y-97450528D01*
X157312873Y-97569662D01*
X156805127Y-97908927D01*
X156641800Y-98153363D01*
X156478473Y-97908927D01*
X155970726Y-97569662D01*
X155371800Y-97450528D01*
X154772873Y-97569662D01*
X154265127Y-97908927D01*
X154101800Y-98153363D01*
X153938473Y-97908927D01*
X153591800Y-97677288D01*
X153591800Y-88390646D01*
X153606688Y-88315799D01*
X153591800Y-88240952D01*
X153591800Y-88240948D01*
X153547704Y-88019263D01*
X153379729Y-87767871D01*
X153316273Y-87725471D01*
X143300400Y-77709599D01*
X143300400Y-77543526D01*
X143142831Y-77163120D01*
X142851680Y-76871969D01*
X142471274Y-76714400D01*
X142059526Y-76714400D01*
X141679120Y-76871969D01*
X141387969Y-77163120D01*
X141230400Y-77543526D01*
X141230400Y-77955274D01*
X141387969Y-78335680D01*
X141679120Y-78626831D01*
X142059526Y-78784400D01*
X142225599Y-78784400D01*
X152071800Y-88630602D01*
X152071801Y-94220090D01*
X151970280Y-94118569D01*
X151589874Y-93961000D01*
X151178126Y-93961000D01*
X150797720Y-94118569D01*
X150680289Y-94236000D01*
X142427802Y-94236000D01*
X141603000Y-93411199D01*
X141603000Y-91133848D01*
X141617888Y-91059000D01*
X141603000Y-90984152D01*
X141603000Y-90984148D01*
X141558904Y-90762463D01*
X141390929Y-90511071D01*
X141327473Y-90468671D01*
X140633209Y-89774408D01*
X140706092Y-89408000D01*
X140590839Y-88828582D01*
X140262625Y-88337375D01*
X139964239Y-88138000D01*
X140262625Y-87938625D01*
X140590839Y-87447418D01*
X140706092Y-86868000D01*
X140590839Y-86288582D01*
X140262625Y-85797375D01*
X139964239Y-85598000D01*
X140262625Y-85398625D01*
X140590839Y-84907418D01*
X140706092Y-84328000D01*
X140590839Y-83748582D01*
X140262625Y-83257375D01*
X139964239Y-83058000D01*
X140262625Y-82858625D01*
X140590839Y-82367418D01*
X140706092Y-81788000D01*
X140590839Y-81208582D01*
X140262625Y-80717375D01*
X139964239Y-80518000D01*
X140262625Y-80318625D01*
X140590839Y-79827418D01*
X140706092Y-79248000D01*
X140590839Y-78668582D01*
X140262625Y-78177375D01*
X139964239Y-77978000D01*
X140262625Y-77778625D01*
X140590839Y-77287418D01*
X140706092Y-76708000D01*
X140590839Y-76128582D01*
X140262625Y-75637375D01*
X139964239Y-75438000D01*
X140262625Y-75238625D01*
X140590839Y-74747418D01*
X140706092Y-74168000D01*
X140590839Y-73588582D01*
X140262625Y-73097375D01*
X139771418Y-72769161D01*
X139338256Y-72683000D01*
X139045744Y-72683000D01*
X138612582Y-72769161D01*
X138121375Y-73097375D01*
X137793161Y-73588582D01*
X137718000Y-73966443D01*
X137718000Y-67990222D01*
X142657700Y-67990222D01*
X142657700Y-68839578D01*
X142982734Y-69624280D01*
X143583320Y-70224866D01*
X144368022Y-70549900D01*
X145217378Y-70549900D01*
X146002080Y-70224866D01*
X146602666Y-69624280D01*
X146927700Y-68839578D01*
X146927700Y-67990222D01*
X146602666Y-67205520D01*
X146002080Y-66604934D01*
X145217378Y-66279900D01*
X144368022Y-66279900D01*
X143583320Y-66604934D01*
X142982734Y-67205520D01*
X142657700Y-67990222D01*
X137718000Y-67990222D01*
X137718000Y-55989931D01*
X154121000Y-55989931D01*
X154121000Y-56696069D01*
X154391228Y-57348457D01*
X154890543Y-57847772D01*
X155136001Y-57949444D01*
X155136000Y-60901353D01*
X155121112Y-60976200D01*
X155136000Y-61051047D01*
X155136000Y-61051051D01*
X155180096Y-61272736D01*
X155348071Y-61524129D01*
X155411530Y-61566531D01*
X157437183Y-63592185D01*
X157437182Y-72632071D01*
X157319751Y-72749502D01*
X157162182Y-73129908D01*
X157162182Y-73541656D01*
X157319751Y-73922062D01*
X157610902Y-74213213D01*
X157991308Y-74370782D01*
X158403056Y-74370782D01*
X158783462Y-74213213D01*
X159074613Y-73922062D01*
X159232182Y-73541656D01*
X159232182Y-73129908D01*
X159074613Y-72749502D01*
X158957182Y-72632071D01*
X158957182Y-63352230D01*
X158972070Y-63277382D01*
X158957182Y-63202534D01*
X158957182Y-63202530D01*
X158913086Y-62980845D01*
X158913086Y-62980844D01*
X158787511Y-62792909D01*
X158745111Y-62729453D01*
X158681655Y-62687053D01*
X156656000Y-60661399D01*
X156656000Y-57949444D01*
X156901457Y-57847772D01*
X157400772Y-57348457D01*
X157671000Y-56696069D01*
X157671000Y-55989931D01*
X160471000Y-55989931D01*
X160471000Y-56696069D01*
X160741228Y-57348457D01*
X161240543Y-57847772D01*
X161486001Y-57949444D01*
X161486000Y-61739553D01*
X161471112Y-61814400D01*
X161486000Y-61889247D01*
X161486000Y-61889251D01*
X161530096Y-62110936D01*
X161698071Y-62362329D01*
X161761530Y-62404731D01*
X163253783Y-63896985D01*
X163253782Y-72620107D01*
X163136351Y-72737538D01*
X162978782Y-73117944D01*
X162978782Y-73529692D01*
X163136351Y-73910098D01*
X163427502Y-74201249D01*
X163807908Y-74358818D01*
X164219656Y-74358818D01*
X164600062Y-74201249D01*
X164891213Y-73910098D01*
X165048782Y-73529692D01*
X165048782Y-73117944D01*
X164891213Y-72737538D01*
X164773782Y-72620107D01*
X164773782Y-63657028D01*
X164788670Y-63582181D01*
X164773782Y-63507334D01*
X164773782Y-63507330D01*
X164729686Y-63285645D01*
X164561711Y-63034253D01*
X164498255Y-62991853D01*
X163006000Y-61499599D01*
X163006000Y-57949444D01*
X163251457Y-57847772D01*
X163750772Y-57348457D01*
X164021000Y-56696069D01*
X164021000Y-55989931D01*
X166821000Y-55989931D01*
X166821000Y-56696069D01*
X167091228Y-57348457D01*
X167590543Y-57847772D01*
X167836001Y-57949444D01*
X167836000Y-62044353D01*
X167821112Y-62119200D01*
X167836000Y-62194047D01*
X167836000Y-62194051D01*
X167880096Y-62415736D01*
X168048071Y-62667129D01*
X168111530Y-62709531D01*
X169064401Y-63662403D01*
X169064400Y-72688569D01*
X169054686Y-72737403D01*
X168921569Y-72870520D01*
X168764000Y-73250926D01*
X168764000Y-73662674D01*
X168921569Y-74043080D01*
X169212720Y-74334231D01*
X169593126Y-74491800D01*
X170004874Y-74491800D01*
X170385280Y-74334231D01*
X170676431Y-74043080D01*
X170834000Y-73662674D01*
X170834000Y-73250926D01*
X170676431Y-72870520D01*
X170584400Y-72778489D01*
X170584400Y-63422447D01*
X170599288Y-63347600D01*
X170584400Y-63272753D01*
X170584400Y-63272748D01*
X170540304Y-63051063D01*
X170372329Y-62799671D01*
X170308873Y-62757271D01*
X169356000Y-61804399D01*
X169356000Y-57949444D01*
X169601457Y-57847772D01*
X170100772Y-57348457D01*
X170371000Y-56696069D01*
X170371000Y-55989931D01*
X170223706Y-55634331D01*
X175355400Y-55634331D01*
X175355400Y-56340469D01*
X175625628Y-56992857D01*
X176124943Y-57492172D01*
X176370401Y-57593844D01*
X176370400Y-61206153D01*
X176355512Y-61281000D01*
X176370400Y-61355847D01*
X176370400Y-61355851D01*
X176414496Y-61577536D01*
X176582471Y-61828929D01*
X176645930Y-61871331D01*
X177421001Y-62646403D01*
X177421000Y-73032489D01*
X177303569Y-73149920D01*
X177146000Y-73530326D01*
X177146000Y-73942074D01*
X177303569Y-74322480D01*
X177594720Y-74613631D01*
X177975126Y-74771200D01*
X178386874Y-74771200D01*
X178767280Y-74613631D01*
X179058431Y-74322480D01*
X179216000Y-73942074D01*
X179216000Y-73530326D01*
X179058431Y-73149920D01*
X178941000Y-73032489D01*
X178941000Y-62406448D01*
X178955888Y-62331600D01*
X178941000Y-62256752D01*
X178941000Y-62256748D01*
X178896904Y-62035063D01*
X178896904Y-62035062D01*
X178771329Y-61847127D01*
X178728929Y-61783671D01*
X178665473Y-61741271D01*
X177890400Y-60966199D01*
X177890400Y-57593844D01*
X178135857Y-57492172D01*
X178635172Y-56992857D01*
X178905400Y-56340469D01*
X178905400Y-55634331D01*
X181705400Y-55634331D01*
X181705400Y-56340469D01*
X181975628Y-56992857D01*
X182474943Y-57492172D01*
X182720401Y-57593844D01*
X182720400Y-61460153D01*
X182705512Y-61535000D01*
X182720400Y-61609847D01*
X182720400Y-61609851D01*
X182764496Y-61831536D01*
X182932471Y-62082929D01*
X182995930Y-62125331D01*
X183694801Y-62824203D01*
X183694800Y-72930889D01*
X183577369Y-73048320D01*
X183419800Y-73428726D01*
X183419800Y-73840474D01*
X183577369Y-74220880D01*
X183868520Y-74512031D01*
X184248926Y-74669600D01*
X184660674Y-74669600D01*
X185041080Y-74512031D01*
X185332231Y-74220880D01*
X185489800Y-73840474D01*
X185489800Y-73428726D01*
X185332231Y-73048320D01*
X185214800Y-72930889D01*
X185214800Y-62584248D01*
X185229688Y-62509400D01*
X185214800Y-62434552D01*
X185214800Y-62434548D01*
X185170704Y-62212863D01*
X185170704Y-62212862D01*
X185045129Y-62024927D01*
X185002729Y-61961471D01*
X184939273Y-61919071D01*
X184240400Y-61220199D01*
X184240400Y-57593844D01*
X184485857Y-57492172D01*
X184985172Y-56992857D01*
X185255400Y-56340469D01*
X185255400Y-55634331D01*
X184985172Y-54981943D01*
X184485857Y-54482628D01*
X183833469Y-54212400D01*
X183127331Y-54212400D01*
X182474943Y-54482628D01*
X181975628Y-54981943D01*
X181705400Y-55634331D01*
X178905400Y-55634331D01*
X178635172Y-54981943D01*
X178135857Y-54482628D01*
X177483469Y-54212400D01*
X176777331Y-54212400D01*
X176124943Y-54482628D01*
X175625628Y-54981943D01*
X175355400Y-55634331D01*
X170223706Y-55634331D01*
X170100772Y-55337543D01*
X169601457Y-54838228D01*
X168949069Y-54568000D01*
X168242931Y-54568000D01*
X167590543Y-54838228D01*
X167091228Y-55337543D01*
X166821000Y-55989931D01*
X164021000Y-55989931D01*
X163750772Y-55337543D01*
X163251457Y-54838228D01*
X162599069Y-54568000D01*
X161892931Y-54568000D01*
X161240543Y-54838228D01*
X160741228Y-55337543D01*
X160471000Y-55989931D01*
X157671000Y-55989931D01*
X157400772Y-55337543D01*
X156901457Y-54838228D01*
X156249069Y-54568000D01*
X155542931Y-54568000D01*
X154890543Y-54838228D01*
X154391228Y-55337543D01*
X154121000Y-55989931D01*
X137718000Y-55989931D01*
X137718000Y-49639931D01*
X154121000Y-49639931D01*
X154121000Y-50346069D01*
X154391228Y-50998457D01*
X154890543Y-51497772D01*
X155542931Y-51768000D01*
X156249069Y-51768000D01*
X156901457Y-51497772D01*
X157400772Y-50998457D01*
X157671000Y-50346069D01*
X157671000Y-49639931D01*
X160471000Y-49639931D01*
X160471000Y-50346069D01*
X160741228Y-50998457D01*
X161240543Y-51497772D01*
X161892931Y-51768000D01*
X162599069Y-51768000D01*
X163251457Y-51497772D01*
X163750772Y-50998457D01*
X164021000Y-50346069D01*
X164021000Y-49639931D01*
X163750772Y-48987543D01*
X163616229Y-48853000D01*
X166808560Y-48853000D01*
X166808560Y-51133000D01*
X166857843Y-51380765D01*
X166998191Y-51590809D01*
X167208235Y-51731157D01*
X167456000Y-51780440D01*
X169736000Y-51780440D01*
X169983765Y-51731157D01*
X170193809Y-51590809D01*
X170334157Y-51380765D01*
X170383440Y-51133000D01*
X170383440Y-49284331D01*
X175355400Y-49284331D01*
X175355400Y-49990469D01*
X175625628Y-50642857D01*
X176124943Y-51142172D01*
X176777331Y-51412400D01*
X177483469Y-51412400D01*
X178135857Y-51142172D01*
X178635172Y-50642857D01*
X178905400Y-49990469D01*
X178905400Y-49284331D01*
X181705400Y-49284331D01*
X181705400Y-49990469D01*
X181975628Y-50642857D01*
X182474943Y-51142172D01*
X183127331Y-51412400D01*
X183833469Y-51412400D01*
X184485857Y-51142172D01*
X184985172Y-50642857D01*
X185255400Y-49990469D01*
X185255400Y-49284331D01*
X184985172Y-48631943D01*
X184850629Y-48497400D01*
X188042960Y-48497400D01*
X188042960Y-50777400D01*
X188092243Y-51025165D01*
X188232591Y-51235209D01*
X188442635Y-51375557D01*
X188690400Y-51424840D01*
X190970400Y-51424840D01*
X191218165Y-51375557D01*
X191428209Y-51235209D01*
X191568557Y-51025165D01*
X191617840Y-50777400D01*
X191617840Y-49411331D01*
X196666000Y-49411331D01*
X196666000Y-50117469D01*
X196936228Y-50769857D01*
X197435543Y-51269172D01*
X198087931Y-51539400D01*
X198794069Y-51539400D01*
X199446457Y-51269172D01*
X199945772Y-50769857D01*
X200216000Y-50117469D01*
X200216000Y-49411331D01*
X203016000Y-49411331D01*
X203016000Y-50117469D01*
X203286228Y-50769857D01*
X203785543Y-51269172D01*
X204437931Y-51539400D01*
X205144069Y-51539400D01*
X205796457Y-51269172D01*
X206295772Y-50769857D01*
X206566000Y-50117469D01*
X206566000Y-49411331D01*
X206295772Y-48758943D01*
X205796457Y-48259628D01*
X205144069Y-47989400D01*
X204437931Y-47989400D01*
X203785543Y-48259628D01*
X203286228Y-48758943D01*
X203016000Y-49411331D01*
X200216000Y-49411331D01*
X199945772Y-48758943D01*
X199446457Y-48259628D01*
X198794069Y-47989400D01*
X198087931Y-47989400D01*
X197435543Y-48259628D01*
X196936228Y-48758943D01*
X196666000Y-49411331D01*
X191617840Y-49411331D01*
X191617840Y-48497400D01*
X191568557Y-48249635D01*
X191428209Y-48039591D01*
X191218165Y-47899243D01*
X190970400Y-47849960D01*
X188690400Y-47849960D01*
X188442635Y-47899243D01*
X188232591Y-48039591D01*
X188092243Y-48249635D01*
X188042960Y-48497400D01*
X184850629Y-48497400D01*
X184485857Y-48132628D01*
X183833469Y-47862400D01*
X183127331Y-47862400D01*
X182474943Y-48132628D01*
X181975628Y-48631943D01*
X181705400Y-49284331D01*
X178905400Y-49284331D01*
X178635172Y-48631943D01*
X178135857Y-48132628D01*
X177483469Y-47862400D01*
X176777331Y-47862400D01*
X176124943Y-48132628D01*
X175625628Y-48631943D01*
X175355400Y-49284331D01*
X170383440Y-49284331D01*
X170383440Y-48853000D01*
X170334157Y-48605235D01*
X170193809Y-48395191D01*
X169983765Y-48254843D01*
X169736000Y-48205560D01*
X167456000Y-48205560D01*
X167208235Y-48254843D01*
X166998191Y-48395191D01*
X166857843Y-48605235D01*
X166808560Y-48853000D01*
X163616229Y-48853000D01*
X163251457Y-48488228D01*
X162599069Y-48218000D01*
X161892931Y-48218000D01*
X161240543Y-48488228D01*
X160741228Y-48987543D01*
X160471000Y-49639931D01*
X157671000Y-49639931D01*
X157400772Y-48987543D01*
X156901457Y-48488228D01*
X156249069Y-48218000D01*
X155542931Y-48218000D01*
X154890543Y-48488228D01*
X154391228Y-48987543D01*
X154121000Y-49639931D01*
X137718000Y-49639931D01*
X137718000Y-45516938D01*
X229183917Y-45642061D01*
X229183917Y-45642061D01*
G37*
X229183917Y-45642061D02*
X229059084Y-124537000D01*
X137718000Y-124537000D01*
X137718000Y-113714400D01*
X143242160Y-113714400D01*
X143242160Y-116714400D01*
X143291443Y-116962165D01*
X143431791Y-117172209D01*
X143641835Y-117312557D01*
X143889600Y-117361840D01*
X146889600Y-117361840D01*
X147137365Y-117312557D01*
X147347409Y-117172209D01*
X147487757Y-116962165D01*
X147537040Y-116714400D01*
X147537040Y-114789722D01*
X148334600Y-114789722D01*
X148334600Y-115639078D01*
X148659634Y-116423780D01*
X149260220Y-117024366D01*
X150044922Y-117349400D01*
X150894278Y-117349400D01*
X151678980Y-117024366D01*
X152279566Y-116423780D01*
X152604600Y-115639078D01*
X152604600Y-115447978D01*
X154397200Y-115447978D01*
X154397200Y-116098422D01*
X154646114Y-116699353D01*
X155106047Y-117159286D01*
X155706978Y-117408200D01*
X156357422Y-117408200D01*
X156958353Y-117159286D01*
X157418286Y-116699353D01*
X157667200Y-116098422D01*
X157667200Y-115457978D01*
X159477200Y-115457978D01*
X159477200Y-116108422D01*
X159726114Y-116709353D01*
X160186047Y-117169286D01*
X160786978Y-117418200D01*
X161437422Y-117418200D01*
X162038353Y-117169286D01*
X162498286Y-116709353D01*
X162747200Y-116108422D01*
X162747200Y-115457978D01*
X162634678Y-115186326D01*
X198329600Y-115186326D01*
X198329600Y-115598074D01*
X198487169Y-115978480D01*
X198778320Y-116269631D01*
X199158726Y-116427200D01*
X199570474Y-116427200D01*
X199950880Y-116269631D01*
X200242031Y-115978480D01*
X200399600Y-115598074D01*
X200399600Y-115186326D01*
X200242031Y-114805920D01*
X200124600Y-114688489D01*
X200124600Y-112613178D01*
X203241400Y-112613178D01*
X203241400Y-113263622D01*
X203490314Y-113864553D01*
X203950247Y-114324486D01*
X204551178Y-114573400D01*
X205201622Y-114573400D01*
X205802553Y-114324486D01*
X206046107Y-114080932D01*
X208983473Y-114080932D01*
X209082136Y-114347787D01*
X209691861Y-114574308D01*
X210341860Y-114550256D01*
X210830664Y-114347787D01*
X210929327Y-114080932D01*
X209956400Y-113108005D01*
X208983473Y-114080932D01*
X206046107Y-114080932D01*
X206262486Y-113864553D01*
X206511400Y-113263622D01*
X206511400Y-112663861D01*
X208310492Y-112663861D01*
X208334544Y-113313860D01*
X208537013Y-113802664D01*
X208803868Y-113901327D01*
X209776795Y-112928400D01*
X210136005Y-112928400D01*
X211108932Y-113901327D01*
X211375787Y-113802664D01*
X211602308Y-113192939D01*
X211593408Y-112952400D01*
X213295360Y-112952400D01*
X213295360Y-115952400D01*
X213344643Y-116200165D01*
X213484991Y-116410209D01*
X213695035Y-116550557D01*
X213942800Y-116599840D01*
X216942800Y-116599840D01*
X217190565Y-116550557D01*
X217400609Y-116410209D01*
X217540957Y-116200165D01*
X217590240Y-115952400D01*
X217590240Y-114027722D01*
X218387800Y-114027722D01*
X218387800Y-114877078D01*
X218712834Y-115661780D01*
X219313420Y-116262366D01*
X220098122Y-116587400D01*
X220947478Y-116587400D01*
X221732180Y-116262366D01*
X222332766Y-115661780D01*
X222657800Y-114877078D01*
X222657800Y-114027722D01*
X222332766Y-113243020D01*
X221732180Y-112642434D01*
X220947478Y-112317400D01*
X220098122Y-112317400D01*
X219313420Y-112642434D01*
X218712834Y-113243020D01*
X218387800Y-114027722D01*
X217590240Y-114027722D01*
X217590240Y-112952400D01*
X217540957Y-112704635D01*
X217400609Y-112494591D01*
X217190565Y-112354243D01*
X216942800Y-112304960D01*
X213942800Y-112304960D01*
X213695035Y-112354243D01*
X213484991Y-112494591D01*
X213344643Y-112704635D01*
X213295360Y-112952400D01*
X211593408Y-112952400D01*
X211578256Y-112542940D01*
X211375787Y-112054136D01*
X211108932Y-111955473D01*
X210136005Y-112928400D01*
X209776795Y-112928400D01*
X208803868Y-111955473D01*
X208537013Y-112054136D01*
X208310492Y-112663861D01*
X206511400Y-112663861D01*
X206511400Y-112613178D01*
X206262486Y-112012247D01*
X206026107Y-111775868D01*
X208983473Y-111775868D01*
X209956400Y-112748795D01*
X210929327Y-111775868D01*
X210830664Y-111509013D01*
X210220939Y-111282492D01*
X209570940Y-111306544D01*
X209082136Y-111509013D01*
X208983473Y-111775868D01*
X206026107Y-111775868D01*
X205802553Y-111552314D01*
X205201622Y-111303400D01*
X204551178Y-111303400D01*
X203950247Y-111552314D01*
X203490314Y-112012247D01*
X203241400Y-112613178D01*
X200124600Y-112613178D01*
X200124600Y-107467400D01*
X224596708Y-107467400D01*
X224711961Y-108046818D01*
X225040175Y-108538025D01*
X225531382Y-108866239D01*
X225964544Y-108952400D01*
X226257056Y-108952400D01*
X226690218Y-108866239D01*
X227181425Y-108538025D01*
X227509639Y-108046818D01*
X227624892Y-107467400D01*
X227509639Y-106887982D01*
X227181425Y-106396775D01*
X227163181Y-106384584D01*
X227208565Y-106375557D01*
X227418609Y-106235209D01*
X227558957Y-106025165D01*
X227608240Y-105777400D01*
X227608240Y-104077400D01*
X227558957Y-103829635D01*
X227418609Y-103619591D01*
X227208565Y-103479243D01*
X226960800Y-103429960D01*
X225260800Y-103429960D01*
X225013035Y-103479243D01*
X224802991Y-103619591D01*
X224662643Y-103829635D01*
X224613360Y-104077400D01*
X224613360Y-105777400D01*
X224662643Y-106025165D01*
X224802991Y-106235209D01*
X225013035Y-106375557D01*
X225058419Y-106384584D01*
X225040175Y-106396775D01*
X224711961Y-106887982D01*
X224596708Y-107467400D01*
X200124600Y-107467400D01*
X200124600Y-107046015D01*
X200484280Y-106897031D01*
X200775431Y-106605880D01*
X200933000Y-106225474D01*
X200933000Y-105813726D01*
X200775431Y-105433320D01*
X200484280Y-105142169D01*
X200103874Y-104984600D01*
X199692126Y-104984600D01*
X199311720Y-105142169D01*
X199020569Y-105433320D01*
X198863000Y-105813726D01*
X198863000Y-105974116D01*
X198816672Y-106005071D01*
X198774272Y-106068527D01*
X198774271Y-106068528D01*
X198648697Y-106256463D01*
X198589712Y-106553000D01*
X198604601Y-106627852D01*
X198604600Y-114688489D01*
X198487169Y-114805920D01*
X198329600Y-115186326D01*
X162634678Y-115186326D01*
X162498286Y-114857047D01*
X162038353Y-114397114D01*
X161437422Y-114148200D01*
X160786978Y-114148200D01*
X160186047Y-114397114D01*
X159726114Y-114857047D01*
X159477200Y-115457978D01*
X157667200Y-115457978D01*
X157667200Y-115447978D01*
X157418286Y-114847047D01*
X156958353Y-114387114D01*
X156357422Y-114138200D01*
X155706978Y-114138200D01*
X155106047Y-114387114D01*
X154646114Y-114847047D01*
X154397200Y-115447978D01*
X152604600Y-115447978D01*
X152604600Y-114789722D01*
X152279566Y-114005020D01*
X151678980Y-113404434D01*
X150894278Y-113079400D01*
X150044922Y-113079400D01*
X149260220Y-113404434D01*
X148659634Y-114005020D01*
X148334600Y-114789722D01*
X147537040Y-114789722D01*
X147537040Y-113714400D01*
X147487757Y-113466635D01*
X147347409Y-113256591D01*
X147137365Y-113116243D01*
X146889600Y-113066960D01*
X143889600Y-113066960D01*
X143641835Y-113116243D01*
X143431791Y-113256591D01*
X143291443Y-113466635D01*
X143242160Y-113714400D01*
X137718000Y-113714400D01*
X137718000Y-111887000D01*
X154466769Y-111887000D01*
X154593665Y-112524945D01*
X154955032Y-113065768D01*
X155495855Y-113427135D01*
X156133800Y-113554031D01*
X156771745Y-113427135D01*
X157176053Y-113156985D01*
X159833639Y-110499400D01*
X193251831Y-110499400D01*
X193728745Y-110404536D01*
X194269569Y-110043169D01*
X194630936Y-109502345D01*
X194757831Y-108864400D01*
X194630936Y-108226455D01*
X194269569Y-107685631D01*
X193728745Y-107324264D01*
X193251831Y-107229400D01*
X159317430Y-107229400D01*
X159156400Y-107197369D01*
X158995370Y-107229400D01*
X158995369Y-107229400D01*
X158518455Y-107324264D01*
X157977631Y-107685631D01*
X157886414Y-107822147D01*
X154863815Y-110844747D01*
X154593665Y-111249055D01*
X154466769Y-111887000D01*
X137718000Y-111887000D01*
X137718000Y-108229400D01*
X138058908Y-108229400D01*
X138174161Y-108808818D01*
X138502375Y-109300025D01*
X138993582Y-109628239D01*
X139426744Y-109714400D01*
X139719256Y-109714400D01*
X140152418Y-109628239D01*
X140643625Y-109300025D01*
X140971839Y-108808818D01*
X141087092Y-108229400D01*
X140971839Y-107649982D01*
X140643625Y-107158775D01*
X140625381Y-107146584D01*
X140670765Y-107137557D01*
X140880809Y-106997209D01*
X141021157Y-106787165D01*
X141070440Y-106539400D01*
X141070440Y-104839400D01*
X141021157Y-104591635D01*
X140880809Y-104381591D01*
X140670765Y-104241243D01*
X140423000Y-104191960D01*
X138723000Y-104191960D01*
X138475235Y-104241243D01*
X138265191Y-104381591D01*
X138124843Y-104591635D01*
X138075560Y-104839400D01*
X138075560Y-106539400D01*
X138124843Y-106787165D01*
X138265191Y-106997209D01*
X138475235Y-107137557D01*
X138520619Y-107146584D01*
X138502375Y-107158775D01*
X138174161Y-107649982D01*
X138058908Y-108229400D01*
X137718000Y-108229400D01*
X137718000Y-98990922D01*
X142657700Y-98990922D01*
X142657700Y-99840278D01*
X142982734Y-100624980D01*
X143583320Y-101225566D01*
X144368022Y-101550600D01*
X145217378Y-101550600D01*
X146002080Y-101225566D01*
X146602666Y-100624980D01*
X146927700Y-99840278D01*
X146927700Y-98990922D01*
X146602666Y-98206220D01*
X146002080Y-97605634D01*
X145217378Y-97280600D01*
X144368022Y-97280600D01*
X143583320Y-97605634D01*
X142982734Y-98206220D01*
X142657700Y-98990922D01*
X137718000Y-98990922D01*
X137718000Y-92915842D01*
X137743843Y-93045765D01*
X137884191Y-93255809D01*
X138094235Y-93396157D01*
X138342000Y-93445440D01*
X140042000Y-93445440D01*
X140083000Y-93437285D01*
X140083000Y-93651153D01*
X140068112Y-93726000D01*
X140083000Y-93800847D01*
X140083000Y-93800852D01*
X140121449Y-93994143D01*
X140127097Y-94022537D01*
X140191264Y-94118569D01*
X140295072Y-94273929D01*
X140358528Y-94316329D01*
X141522671Y-95480473D01*
X141565071Y-95543929D01*
X141816463Y-95711904D01*
X142038148Y-95756000D01*
X142038152Y-95756000D01*
X142112999Y-95770888D01*
X142187846Y-95756000D01*
X150680289Y-95756000D01*
X150797720Y-95873431D01*
X151178126Y-96031000D01*
X151589874Y-96031000D01*
X151970280Y-95873431D01*
X152071801Y-95771910D01*
X152071801Y-97677287D01*
X151788929Y-97866296D01*
X151649609Y-97657791D01*
X151439565Y-97517443D01*
X151191800Y-97468160D01*
X149391800Y-97468160D01*
X149144035Y-97517443D01*
X148933991Y-97657791D01*
X148793643Y-97867835D01*
X148744360Y-98115600D01*
X148744360Y-100715600D01*
X148793643Y-100963365D01*
X148933991Y-101173409D01*
X149144035Y-101313757D01*
X149391800Y-101363040D01*
X151191800Y-101363040D01*
X151439565Y-101313757D01*
X151649609Y-101173409D01*
X151788929Y-100964903D01*
X152232874Y-101261538D01*
X152831800Y-101380672D01*
X153240730Y-101299331D01*
X155295871Y-103354473D01*
X155338271Y-103417929D01*
X155589663Y-103585904D01*
X155811348Y-103630000D01*
X155811353Y-103630000D01*
X155886200Y-103644888D01*
X155961047Y-103630000D01*
X157792289Y-103630000D01*
X157909720Y-103747431D01*
X158290126Y-103905000D01*
X158701874Y-103905000D01*
X159082280Y-103747431D01*
X159373431Y-103456280D01*
X159531000Y-103075874D01*
X159531000Y-102664126D01*
X159373431Y-102283720D01*
X159082280Y-101992569D01*
X158701874Y-101835000D01*
X158290126Y-101835000D01*
X157909720Y-101992569D01*
X157792289Y-102110000D01*
X156201002Y-102110000D01*
X155455104Y-101364102D01*
X155970727Y-101261538D01*
X156478473Y-100922273D01*
X156641800Y-100677836D01*
X156805128Y-100922273D01*
X157312874Y-101261538D01*
X157911800Y-101380672D01*
X158510727Y-101261538D01*
X159018473Y-100922273D01*
X159181800Y-100677836D01*
X159345128Y-100922273D01*
X159852874Y-101261538D01*
X160451800Y-101380672D01*
X161050727Y-101261538D01*
X161558473Y-100922273D01*
X161721800Y-100677836D01*
X161885128Y-100922273D01*
X162392874Y-101261538D01*
X162991800Y-101380672D01*
X163590727Y-101261538D01*
X164098473Y-100922273D01*
X164261800Y-100677836D01*
X164425128Y-100922273D01*
X164932874Y-101261538D01*
X165531800Y-101380672D01*
X166130727Y-101261538D01*
X166638473Y-100922273D01*
X166801800Y-100677836D01*
X166965128Y-100922273D01*
X167472874Y-101261538D01*
X168071800Y-101380672D01*
X168670727Y-101261538D01*
X169178473Y-100922273D01*
X169341800Y-100677836D01*
X169505128Y-100922273D01*
X170012874Y-101261538D01*
X170611800Y-101380672D01*
X171210727Y-101261538D01*
X171718473Y-100922273D01*
X171881800Y-100677836D01*
X172045128Y-100922273D01*
X172552874Y-101261538D01*
X173151800Y-101380672D01*
X173750727Y-101261538D01*
X174258473Y-100922273D01*
X174421800Y-100677836D01*
X174585128Y-100922273D01*
X175092874Y-101261538D01*
X175691800Y-101380672D01*
X176290727Y-101261538D01*
X176798473Y-100922273D01*
X176961800Y-100677836D01*
X177125128Y-100922273D01*
X177632874Y-101261538D01*
X178231800Y-101380672D01*
X178830727Y-101261538D01*
X179338473Y-100922273D01*
X179501800Y-100677836D01*
X179665128Y-100922273D01*
X180172874Y-101261538D01*
X180771800Y-101380672D01*
X181370727Y-101261538D01*
X181878473Y-100922273D01*
X182041800Y-100677836D01*
X182205128Y-100922273D01*
X182712874Y-101261538D01*
X183311800Y-101380672D01*
X183910727Y-101261538D01*
X184418473Y-100922273D01*
X184581800Y-100677836D01*
X184745128Y-100922273D01*
X185252874Y-101261538D01*
X185851800Y-101380672D01*
X186450727Y-101261538D01*
X186958473Y-100922273D01*
X187121800Y-100677836D01*
X187285128Y-100922273D01*
X187792874Y-101261538D01*
X188391800Y-101380672D01*
X188990727Y-101261538D01*
X189498473Y-100922273D01*
X189837738Y-100414527D01*
X189926800Y-99966781D01*
X189926800Y-98864418D01*
X189837738Y-98416673D01*
X189793589Y-98350599D01*
X217922030Y-98350599D01*
X217656800Y-98990922D01*
X217656800Y-99840278D01*
X217981834Y-100624980D01*
X218582420Y-101225566D01*
X219367122Y-101550600D01*
X220216478Y-101550600D01*
X221001180Y-101225566D01*
X221601766Y-100624980D01*
X221926800Y-99840278D01*
X221926800Y-98990922D01*
X221661570Y-98350599D01*
X224384760Y-98350599D01*
X224384760Y-99173400D01*
X224434043Y-99421165D01*
X224574391Y-99631209D01*
X224784435Y-99771557D01*
X225032200Y-99820840D01*
X226732200Y-99820840D01*
X226979965Y-99771557D01*
X227190009Y-99631209D01*
X227330357Y-99421165D01*
X227379640Y-99173400D01*
X227379640Y-97473400D01*
X227330357Y-97225635D01*
X227190009Y-97015591D01*
X226979965Y-96875243D01*
X226934581Y-96866216D01*
X226952825Y-96854025D01*
X227281039Y-96362818D01*
X227396292Y-95783400D01*
X227281039Y-95203982D01*
X226952825Y-94712775D01*
X226654439Y-94513400D01*
X226952825Y-94314025D01*
X227281039Y-93822818D01*
X227396292Y-93243400D01*
X227281039Y-92663982D01*
X226952825Y-92172775D01*
X226654439Y-91973400D01*
X226952825Y-91774025D01*
X227281039Y-91282818D01*
X227396292Y-90703400D01*
X227281039Y-90123982D01*
X226952825Y-89632775D01*
X226654439Y-89433400D01*
X226952825Y-89234025D01*
X227281039Y-88742818D01*
X227396292Y-88163400D01*
X227281039Y-87583982D01*
X226952825Y-87092775D01*
X226654439Y-86893400D01*
X226952825Y-86694025D01*
X227281039Y-86202818D01*
X227396292Y-85623400D01*
X227281039Y-85043982D01*
X226952825Y-84552775D01*
X226654439Y-84353400D01*
X226952825Y-84154025D01*
X227281039Y-83662818D01*
X227396292Y-83083400D01*
X227281039Y-82503982D01*
X226952825Y-82012775D01*
X226654439Y-81813400D01*
X226952825Y-81614025D01*
X227281039Y-81122818D01*
X227396292Y-80543400D01*
X227281039Y-79963982D01*
X226952825Y-79472775D01*
X226654439Y-79273400D01*
X226952825Y-79074025D01*
X227281039Y-78582818D01*
X227396292Y-78003400D01*
X227281039Y-77423982D01*
X226952825Y-76932775D01*
X226654439Y-76733400D01*
X226952825Y-76534025D01*
X227281039Y-76042818D01*
X227396292Y-75463400D01*
X227281039Y-74883982D01*
X226952825Y-74392775D01*
X226654439Y-74193400D01*
X226952825Y-73994025D01*
X227281039Y-73502818D01*
X227396292Y-72923400D01*
X227281039Y-72343982D01*
X226952825Y-71852775D01*
X226654439Y-71653400D01*
X226952825Y-71454025D01*
X227281039Y-70962818D01*
X227396292Y-70383400D01*
X227281039Y-69803982D01*
X226952825Y-69312775D01*
X226461618Y-68984561D01*
X226028456Y-68898400D01*
X225735944Y-68898400D01*
X225302782Y-68984561D01*
X225155000Y-69083306D01*
X225155000Y-65984068D01*
X225237936Y-65859945D01*
X225332800Y-65383031D01*
X225332800Y-65383027D01*
X225364830Y-65222001D01*
X225332800Y-65060975D01*
X225332800Y-63842587D01*
X225445565Y-63820157D01*
X225655609Y-63679809D01*
X225795957Y-63469765D01*
X225845240Y-63222000D01*
X225845240Y-60222000D01*
X225795957Y-59974235D01*
X225655609Y-59764191D01*
X225445565Y-59623843D01*
X225197800Y-59574560D01*
X222197800Y-59574560D01*
X221950035Y-59623843D01*
X221739991Y-59764191D01*
X221599643Y-59974235D01*
X221550360Y-60222000D01*
X221550360Y-63222000D01*
X221599643Y-63469765D01*
X221739991Y-63679809D01*
X221950035Y-63820157D01*
X222062801Y-63842587D01*
X222062801Y-64637732D01*
X221979864Y-64761856D01*
X221970302Y-64809929D01*
X221852969Y-65399800D01*
X221885000Y-65560830D01*
X221885000Y-67890564D01*
X221601246Y-67205520D01*
X221000660Y-66604934D01*
X220215958Y-66279900D01*
X219366602Y-66279900D01*
X218581900Y-66604934D01*
X217981314Y-67205520D01*
X217656280Y-67990222D01*
X217656280Y-68839578D01*
X217981314Y-69624280D01*
X218581900Y-70224866D01*
X219366602Y-70549900D01*
X220215958Y-70549900D01*
X221000660Y-70224866D01*
X221601246Y-69624280D01*
X221885000Y-68939236D01*
X221885001Y-72854460D01*
X219103325Y-75636137D01*
X218833175Y-76040445D01*
X218706279Y-76678390D01*
X218818667Y-77243400D01*
X206276517Y-77243400D01*
X203309053Y-74275937D01*
X203402782Y-74049656D01*
X203402782Y-73637908D01*
X203245213Y-73257502D01*
X202954062Y-72966351D01*
X202573656Y-72808782D01*
X202161908Y-72808782D01*
X201781502Y-72966351D01*
X201490351Y-73257502D01*
X201332782Y-73637908D01*
X201332782Y-74049656D01*
X201490351Y-74430062D01*
X201623468Y-74563179D01*
X201651878Y-74706004D01*
X201819854Y-74957396D01*
X201883310Y-74999796D01*
X205371386Y-78487873D01*
X205413786Y-78551329D01*
X205477242Y-78593729D01*
X205665177Y-78719304D01*
X205713320Y-78728880D01*
X205886863Y-78763400D01*
X205886867Y-78763400D01*
X205961715Y-78778288D01*
X206036563Y-78763400D01*
X224604022Y-78763400D01*
X224811575Y-79074025D01*
X225109961Y-79273400D01*
X224811575Y-79472775D01*
X224604022Y-79783400D01*
X202720518Y-79783400D01*
X197111453Y-74174337D01*
X197205182Y-73948056D01*
X197205182Y-73536308D01*
X197047613Y-73155902D01*
X196756462Y-72864751D01*
X196376056Y-72707182D01*
X195964308Y-72707182D01*
X195583902Y-72864751D01*
X195292751Y-73155902D01*
X195135182Y-73536308D01*
X195135182Y-73948056D01*
X195292751Y-74328462D01*
X195425868Y-74461579D01*
X195454278Y-74604404D01*
X195622254Y-74855796D01*
X195685710Y-74898196D01*
X201815388Y-81027876D01*
X201857786Y-81091329D01*
X201921239Y-81133727D01*
X201921241Y-81133729D01*
X202033267Y-81208582D01*
X202109178Y-81259304D01*
X202330863Y-81303400D01*
X202330867Y-81303400D01*
X202405714Y-81318288D01*
X202480561Y-81303400D01*
X224604022Y-81303400D01*
X224811575Y-81614025D01*
X225109961Y-81813400D01*
X224811575Y-82012775D01*
X224604022Y-82323400D01*
X197418802Y-82323400D01*
X190181864Y-75086463D01*
X190217926Y-75101400D01*
X190629674Y-75101400D01*
X191010080Y-74943831D01*
X191301231Y-74652680D01*
X191458800Y-74272274D01*
X191458800Y-73860526D01*
X191301231Y-73480120D01*
X191183800Y-73362689D01*
X191183800Y-62355646D01*
X191198688Y-62280799D01*
X191183800Y-62205952D01*
X191183800Y-62205948D01*
X191139704Y-61984263D01*
X191035913Y-61828929D01*
X191014129Y-61796326D01*
X191014127Y-61796324D01*
X190971729Y-61732871D01*
X190908275Y-61690472D01*
X190590400Y-61372598D01*
X190590400Y-57593844D01*
X190835857Y-57492172D01*
X191335172Y-56992857D01*
X191605400Y-56340469D01*
X191605400Y-55761331D01*
X196666000Y-55761331D01*
X196666000Y-56467469D01*
X196936228Y-57119857D01*
X197435543Y-57619172D01*
X197681001Y-57720844D01*
X197681000Y-63644553D01*
X197666112Y-63719400D01*
X197681000Y-63794247D01*
X197681000Y-63794251D01*
X197725096Y-64015936D01*
X197893071Y-64267329D01*
X197956530Y-64309731D01*
X198223601Y-64576803D01*
X198223600Y-73057889D01*
X198106169Y-73175320D01*
X197948600Y-73555726D01*
X197948600Y-73967474D01*
X198106169Y-74347880D01*
X198397320Y-74639031D01*
X198777726Y-74796600D01*
X199189474Y-74796600D01*
X199569880Y-74639031D01*
X199861031Y-74347880D01*
X200018600Y-73967474D01*
X200018600Y-73555726D01*
X199861031Y-73175320D01*
X199743600Y-73057889D01*
X199743600Y-64336846D01*
X199758488Y-64261999D01*
X199743600Y-64187152D01*
X199743600Y-64187148D01*
X199699504Y-63965463D01*
X199531529Y-63714071D01*
X199468072Y-63671671D01*
X199201000Y-63404599D01*
X199201000Y-57720844D01*
X199446457Y-57619172D01*
X199945772Y-57119857D01*
X200216000Y-56467469D01*
X200216000Y-55761331D01*
X203016000Y-55761331D01*
X203016000Y-56467469D01*
X203286228Y-57119857D01*
X203785543Y-57619172D01*
X204370401Y-57861428D01*
X204370400Y-73083289D01*
X204252969Y-73200720D01*
X204095400Y-73581126D01*
X204095400Y-73992874D01*
X204252969Y-74373280D01*
X204544120Y-74664431D01*
X204924526Y-74822000D01*
X205336274Y-74822000D01*
X205716680Y-74664431D01*
X206007831Y-74373280D01*
X206165400Y-73992874D01*
X206165400Y-73581126D01*
X206007831Y-73200720D01*
X205890400Y-73083289D01*
X205890400Y-69517126D01*
X207118000Y-69517126D01*
X207118000Y-69928874D01*
X207275569Y-70309280D01*
X207566720Y-70600431D01*
X207947126Y-70758000D01*
X208358874Y-70758000D01*
X208739280Y-70600431D01*
X209030431Y-70309280D01*
X209188000Y-69928874D01*
X209188000Y-69517126D01*
X209030431Y-69136720D01*
X208913000Y-69019289D01*
X208913000Y-55761331D01*
X209366000Y-55761331D01*
X209366000Y-56467469D01*
X209636228Y-57119857D01*
X209907601Y-57391230D01*
X209907600Y-73667489D01*
X209790169Y-73784920D01*
X209632600Y-74165326D01*
X209632600Y-74577074D01*
X209790169Y-74957480D01*
X210081320Y-75248631D01*
X210461726Y-75406200D01*
X210873474Y-75406200D01*
X211253880Y-75248631D01*
X211545031Y-74957480D01*
X211702600Y-74577074D01*
X211702600Y-74165326D01*
X211545031Y-73784920D01*
X211427600Y-73667489D01*
X211427600Y-57889400D01*
X211494069Y-57889400D01*
X212146457Y-57619172D01*
X212645772Y-57119857D01*
X212916000Y-56467469D01*
X212916000Y-55761331D01*
X212645772Y-55108943D01*
X212146457Y-54609628D01*
X211494069Y-54339400D01*
X210787931Y-54339400D01*
X210135543Y-54609628D01*
X209636228Y-55108943D01*
X209366000Y-55761331D01*
X208913000Y-55761331D01*
X208913000Y-51677201D01*
X209416940Y-51173262D01*
X209543191Y-51362209D01*
X209753235Y-51502557D01*
X210001000Y-51551840D01*
X212281000Y-51551840D01*
X212528765Y-51502557D01*
X212738809Y-51362209D01*
X212865060Y-51173262D01*
X214632001Y-52940203D01*
X214632000Y-73591289D01*
X214514569Y-73708720D01*
X214357000Y-74089126D01*
X214357000Y-74500874D01*
X214514569Y-74881280D01*
X214805720Y-75172431D01*
X215186126Y-75330000D01*
X215597874Y-75330000D01*
X215978280Y-75172431D01*
X216269431Y-74881280D01*
X216427000Y-74500874D01*
X216427000Y-74089126D01*
X216269431Y-73708720D01*
X216152000Y-73591289D01*
X216152000Y-56217322D01*
X221562800Y-56217322D01*
X221562800Y-57066678D01*
X221887834Y-57851380D01*
X222488420Y-58451966D01*
X223273122Y-58777000D01*
X224122478Y-58777000D01*
X224907180Y-58451966D01*
X225507766Y-57851380D01*
X225832800Y-57066678D01*
X225832800Y-56217322D01*
X225507766Y-55432620D01*
X224907180Y-54832034D01*
X224122478Y-54507000D01*
X223273122Y-54507000D01*
X222488420Y-54832034D01*
X221887834Y-55432620D01*
X221562800Y-56217322D01*
X216152000Y-56217322D01*
X216152000Y-52700246D01*
X216166888Y-52625399D01*
X216152000Y-52550552D01*
X216152000Y-52550548D01*
X216107904Y-52328863D01*
X215939929Y-52077471D01*
X215876473Y-52035071D01*
X213121331Y-49279930D01*
X213078929Y-49216471D01*
X212928440Y-49115917D01*
X212928440Y-48624400D01*
X212879157Y-48376635D01*
X212738809Y-48166591D01*
X212528765Y-48026243D01*
X212281000Y-47976960D01*
X210001000Y-47976960D01*
X209753235Y-48026243D01*
X209543191Y-48166591D01*
X209402843Y-48376635D01*
X209353560Y-48624400D01*
X209353560Y-49115917D01*
X209203071Y-49216471D01*
X209160671Y-49279927D01*
X207668528Y-50772071D01*
X207605072Y-50814471D01*
X207562672Y-50877927D01*
X207562671Y-50877928D01*
X207437097Y-51065863D01*
X207378112Y-51362400D01*
X207393001Y-51437252D01*
X207393000Y-69019289D01*
X207275569Y-69136720D01*
X207118000Y-69517126D01*
X205890400Y-69517126D01*
X205890400Y-57525229D01*
X206295772Y-57119857D01*
X206566000Y-56467469D01*
X206566000Y-55761331D01*
X206295772Y-55108943D01*
X205796457Y-54609628D01*
X205144069Y-54339400D01*
X204437931Y-54339400D01*
X203785543Y-54609628D01*
X203286228Y-55108943D01*
X203016000Y-55761331D01*
X200216000Y-55761331D01*
X199945772Y-55108943D01*
X199446457Y-54609628D01*
X198794069Y-54339400D01*
X198087931Y-54339400D01*
X197435543Y-54609628D01*
X196936228Y-55108943D01*
X196666000Y-55761331D01*
X191605400Y-55761331D01*
X191605400Y-55634331D01*
X191335172Y-54981943D01*
X190835857Y-54482628D01*
X190183469Y-54212400D01*
X189477331Y-54212400D01*
X188824943Y-54482628D01*
X188325628Y-54981943D01*
X188055400Y-55634331D01*
X188055400Y-56340469D01*
X188325628Y-56992857D01*
X188824943Y-57492172D01*
X189070401Y-57593844D01*
X189070400Y-61612553D01*
X189055512Y-61687400D01*
X189070400Y-61762247D01*
X189070400Y-61762251D01*
X189114496Y-61983936D01*
X189282471Y-62235329D01*
X189345929Y-62277730D01*
X189663801Y-62595603D01*
X189663800Y-73362689D01*
X189546369Y-73480120D01*
X189388800Y-73860526D01*
X189388800Y-74272274D01*
X189403737Y-74308336D01*
X188639400Y-73543999D01*
X188639400Y-73377926D01*
X188481831Y-72997520D01*
X188190680Y-72706369D01*
X187810274Y-72548800D01*
X187398526Y-72548800D01*
X187018120Y-72706369D01*
X186726969Y-72997520D01*
X186569400Y-73377926D01*
X186569400Y-73789674D01*
X186726969Y-74170080D01*
X187018120Y-74461231D01*
X187398526Y-74618800D01*
X187564599Y-74618800D01*
X196513671Y-83567873D01*
X196556071Y-83631329D01*
X196807463Y-83799304D01*
X197029148Y-83843400D01*
X197029152Y-83843400D01*
X197103999Y-83858288D01*
X197178846Y-83843400D01*
X224604022Y-83843400D01*
X224811575Y-84154025D01*
X225109961Y-84353400D01*
X224811575Y-84552775D01*
X224604022Y-84863400D01*
X193773166Y-84863400D01*
X182625582Y-73715817D01*
X182625582Y-73549744D01*
X182468013Y-73169338D01*
X182176862Y-72878187D01*
X181796456Y-72720618D01*
X181384708Y-72720618D01*
X181004302Y-72878187D01*
X180713151Y-73169338D01*
X180555582Y-73549744D01*
X180555582Y-73961492D01*
X180713151Y-74341898D01*
X181004302Y-74633049D01*
X181384708Y-74790618D01*
X181550781Y-74790618D01*
X192868035Y-86107873D01*
X192910435Y-86171329D01*
X193161827Y-86339304D01*
X193383512Y-86383400D01*
X193383516Y-86383400D01*
X193458363Y-86398288D01*
X193533210Y-86383400D01*
X224604022Y-86383400D01*
X224811575Y-86694025D01*
X225109961Y-86893400D01*
X224811575Y-87092775D01*
X224604022Y-87403400D01*
X190052802Y-87403400D01*
X176326382Y-73676981D01*
X176326382Y-73510908D01*
X176168813Y-73130502D01*
X175877662Y-72839351D01*
X175497256Y-72681782D01*
X175085508Y-72681782D01*
X174705102Y-72839351D01*
X174413951Y-73130502D01*
X174256382Y-73510908D01*
X174256382Y-73922656D01*
X174413951Y-74303062D01*
X174705102Y-74594213D01*
X175085508Y-74751782D01*
X175251581Y-74751782D01*
X189147671Y-88647873D01*
X189190071Y-88711329D01*
X189441463Y-88879304D01*
X189663148Y-88923400D01*
X189663152Y-88923400D01*
X189737999Y-88938288D01*
X189812846Y-88923400D01*
X224604022Y-88923400D01*
X224811575Y-89234025D01*
X225109961Y-89433400D01*
X224811575Y-89632775D01*
X224604022Y-89943400D01*
X184744202Y-89943400D01*
X168090800Y-73289999D01*
X168090800Y-73123926D01*
X167933231Y-72743520D01*
X167642080Y-72452369D01*
X167261674Y-72294800D01*
X166849926Y-72294800D01*
X166469520Y-72452369D01*
X166178369Y-72743520D01*
X166020800Y-73123926D01*
X166020800Y-73535674D01*
X166178369Y-73916080D01*
X166469520Y-74207231D01*
X166849926Y-74364800D01*
X167015999Y-74364800D01*
X183839071Y-91187873D01*
X183881471Y-91251329D01*
X183944927Y-91293729D01*
X184132862Y-91419304D01*
X184181005Y-91428880D01*
X184354548Y-91463400D01*
X184354552Y-91463400D01*
X184429400Y-91478288D01*
X184504248Y-91463400D01*
X224604022Y-91463400D01*
X224811575Y-91774025D01*
X225109961Y-91973400D01*
X224811575Y-92172775D01*
X224604022Y-92483400D01*
X181035802Y-92483400D01*
X162020200Y-73467799D01*
X162020200Y-73301726D01*
X161862631Y-72921320D01*
X161571480Y-72630169D01*
X161191074Y-72472600D01*
X160779326Y-72472600D01*
X160398920Y-72630169D01*
X160107769Y-72921320D01*
X159950200Y-73301726D01*
X159950200Y-73713474D01*
X160107769Y-74093880D01*
X160398920Y-74385031D01*
X160779326Y-74542600D01*
X160945399Y-74542600D01*
X180130671Y-93727873D01*
X180173071Y-93791329D01*
X180424463Y-93959304D01*
X180646148Y-94003400D01*
X180646152Y-94003400D01*
X180720999Y-94018288D01*
X180795846Y-94003400D01*
X224604022Y-94003400D01*
X224811575Y-94314025D01*
X225109961Y-94513400D01*
X224811575Y-94712775D01*
X224604022Y-95023400D01*
X177962402Y-95023400D01*
X156305200Y-73366199D01*
X156305200Y-73200126D01*
X156147631Y-72819720D01*
X155856480Y-72528569D01*
X155476074Y-72371000D01*
X155064326Y-72371000D01*
X154683920Y-72528569D01*
X154392769Y-72819720D01*
X154235200Y-73200126D01*
X154235200Y-73611874D01*
X154392769Y-73992280D01*
X154683920Y-74283431D01*
X155064326Y-74441000D01*
X155230399Y-74441000D01*
X177057271Y-96267873D01*
X177099671Y-96331329D01*
X177351063Y-96499304D01*
X177572748Y-96543400D01*
X177572752Y-96543400D01*
X177647600Y-96558288D01*
X177722448Y-96543400D01*
X224604022Y-96543400D01*
X224795922Y-96830599D01*
X171057401Y-96830599D01*
X147999400Y-73772599D01*
X147999400Y-73606526D01*
X147841831Y-73226120D01*
X147550680Y-72934969D01*
X147170274Y-72777400D01*
X146758526Y-72777400D01*
X146378120Y-72934969D01*
X146086969Y-73226120D01*
X145929400Y-73606526D01*
X145929400Y-74018274D01*
X146086969Y-74398680D01*
X146378120Y-74689831D01*
X146758526Y-74847400D01*
X146924599Y-74847400D01*
X169793464Y-97716266D01*
X169505127Y-97908927D01*
X169341800Y-98153363D01*
X169178473Y-97908927D01*
X168670726Y-97569662D01*
X168071800Y-97450528D01*
X167472873Y-97569662D01*
X166965127Y-97908927D01*
X166801800Y-98153363D01*
X166638473Y-97908927D01*
X166130726Y-97569662D01*
X165531800Y-97450528D01*
X164932873Y-97569662D01*
X164425127Y-97908927D01*
X164261800Y-98153363D01*
X164098473Y-97908927D01*
X163590726Y-97569662D01*
X162991800Y-97450528D01*
X162392873Y-97569662D01*
X161885127Y-97908927D01*
X161721800Y-98153363D01*
X161558473Y-97908927D01*
X161050726Y-97569662D01*
X160451800Y-97450528D01*
X159852873Y-97569662D01*
X159345127Y-97908927D01*
X159181800Y-98153363D01*
X159018473Y-97908927D01*
X158510726Y-97569662D01*
X157911800Y-97450528D01*
X157312873Y-97569662D01*
X156805127Y-97908927D01*
X156641800Y-98153363D01*
X156478473Y-97908927D01*
X155970726Y-97569662D01*
X155371800Y-97450528D01*
X154772873Y-97569662D01*
X154265127Y-97908927D01*
X154101800Y-98153363D01*
X153938473Y-97908927D01*
X153591800Y-97677288D01*
X153591800Y-88390646D01*
X153606688Y-88315799D01*
X153591800Y-88240952D01*
X153591800Y-88240948D01*
X153547704Y-88019263D01*
X153379729Y-87767871D01*
X153316273Y-87725471D01*
X143300400Y-77709599D01*
X143300400Y-77543526D01*
X143142831Y-77163120D01*
X142851680Y-76871969D01*
X142471274Y-76714400D01*
X142059526Y-76714400D01*
X141679120Y-76871969D01*
X141387969Y-77163120D01*
X141230400Y-77543526D01*
X141230400Y-77955274D01*
X141387969Y-78335680D01*
X141679120Y-78626831D01*
X142059526Y-78784400D01*
X142225599Y-78784400D01*
X152071800Y-88630602D01*
X152071801Y-94220090D01*
X151970280Y-94118569D01*
X151589874Y-93961000D01*
X151178126Y-93961000D01*
X150797720Y-94118569D01*
X150680289Y-94236000D01*
X142427802Y-94236000D01*
X141603000Y-93411199D01*
X141603000Y-91133848D01*
X141617888Y-91059000D01*
X141603000Y-90984152D01*
X141603000Y-90984148D01*
X141558904Y-90762463D01*
X141390929Y-90511071D01*
X141327473Y-90468671D01*
X140633209Y-89774408D01*
X140706092Y-89408000D01*
X140590839Y-88828582D01*
X140262625Y-88337375D01*
X139964239Y-88138000D01*
X140262625Y-87938625D01*
X140590839Y-87447418D01*
X140706092Y-86868000D01*
X140590839Y-86288582D01*
X140262625Y-85797375D01*
X139964239Y-85598000D01*
X140262625Y-85398625D01*
X140590839Y-84907418D01*
X140706092Y-84328000D01*
X140590839Y-83748582D01*
X140262625Y-83257375D01*
X139964239Y-83058000D01*
X140262625Y-82858625D01*
X140590839Y-82367418D01*
X140706092Y-81788000D01*
X140590839Y-81208582D01*
X140262625Y-80717375D01*
X139964239Y-80518000D01*
X140262625Y-80318625D01*
X140590839Y-79827418D01*
X140706092Y-79248000D01*
X140590839Y-78668582D01*
X140262625Y-78177375D01*
X139964239Y-77978000D01*
X140262625Y-77778625D01*
X140590839Y-77287418D01*
X140706092Y-76708000D01*
X140590839Y-76128582D01*
X140262625Y-75637375D01*
X139964239Y-75438000D01*
X140262625Y-75238625D01*
X140590839Y-74747418D01*
X140706092Y-74168000D01*
X140590839Y-73588582D01*
X140262625Y-73097375D01*
X139771418Y-72769161D01*
X139338256Y-72683000D01*
X139045744Y-72683000D01*
X138612582Y-72769161D01*
X138121375Y-73097375D01*
X137793161Y-73588582D01*
X137718000Y-73966443D01*
X137718000Y-67990222D01*
X142657700Y-67990222D01*
X142657700Y-68839578D01*
X142982734Y-69624280D01*
X143583320Y-70224866D01*
X144368022Y-70549900D01*
X145217378Y-70549900D01*
X146002080Y-70224866D01*
X146602666Y-69624280D01*
X146927700Y-68839578D01*
X146927700Y-67990222D01*
X146602666Y-67205520D01*
X146002080Y-66604934D01*
X145217378Y-66279900D01*
X144368022Y-66279900D01*
X143583320Y-66604934D01*
X142982734Y-67205520D01*
X142657700Y-67990222D01*
X137718000Y-67990222D01*
X137718000Y-55989931D01*
X154121000Y-55989931D01*
X154121000Y-56696069D01*
X154391228Y-57348457D01*
X154890543Y-57847772D01*
X155136001Y-57949444D01*
X155136000Y-60901353D01*
X155121112Y-60976200D01*
X155136000Y-61051047D01*
X155136000Y-61051051D01*
X155180096Y-61272736D01*
X155348071Y-61524129D01*
X155411530Y-61566531D01*
X157437183Y-63592185D01*
X157437182Y-72632071D01*
X157319751Y-72749502D01*
X157162182Y-73129908D01*
X157162182Y-73541656D01*
X157319751Y-73922062D01*
X157610902Y-74213213D01*
X157991308Y-74370782D01*
X158403056Y-74370782D01*
X158783462Y-74213213D01*
X159074613Y-73922062D01*
X159232182Y-73541656D01*
X159232182Y-73129908D01*
X159074613Y-72749502D01*
X158957182Y-72632071D01*
X158957182Y-63352230D01*
X158972070Y-63277382D01*
X158957182Y-63202534D01*
X158957182Y-63202530D01*
X158913086Y-62980845D01*
X158913086Y-62980844D01*
X158787511Y-62792909D01*
X158745111Y-62729453D01*
X158681655Y-62687053D01*
X156656000Y-60661399D01*
X156656000Y-57949444D01*
X156901457Y-57847772D01*
X157400772Y-57348457D01*
X157671000Y-56696069D01*
X157671000Y-55989931D01*
X160471000Y-55989931D01*
X160471000Y-56696069D01*
X160741228Y-57348457D01*
X161240543Y-57847772D01*
X161486001Y-57949444D01*
X161486000Y-61739553D01*
X161471112Y-61814400D01*
X161486000Y-61889247D01*
X161486000Y-61889251D01*
X161530096Y-62110936D01*
X161698071Y-62362329D01*
X161761530Y-62404731D01*
X163253783Y-63896985D01*
X163253782Y-72620107D01*
X163136351Y-72737538D01*
X162978782Y-73117944D01*
X162978782Y-73529692D01*
X163136351Y-73910098D01*
X163427502Y-74201249D01*
X163807908Y-74358818D01*
X164219656Y-74358818D01*
X164600062Y-74201249D01*
X164891213Y-73910098D01*
X165048782Y-73529692D01*
X165048782Y-73117944D01*
X164891213Y-72737538D01*
X164773782Y-72620107D01*
X164773782Y-63657028D01*
X164788670Y-63582181D01*
X164773782Y-63507334D01*
X164773782Y-63507330D01*
X164729686Y-63285645D01*
X164561711Y-63034253D01*
X164498255Y-62991853D01*
X163006000Y-61499599D01*
X163006000Y-57949444D01*
X163251457Y-57847772D01*
X163750772Y-57348457D01*
X164021000Y-56696069D01*
X164021000Y-55989931D01*
X166821000Y-55989931D01*
X166821000Y-56696069D01*
X167091228Y-57348457D01*
X167590543Y-57847772D01*
X167836001Y-57949444D01*
X167836000Y-62044353D01*
X167821112Y-62119200D01*
X167836000Y-62194047D01*
X167836000Y-62194051D01*
X167880096Y-62415736D01*
X168048071Y-62667129D01*
X168111530Y-62709531D01*
X169064401Y-63662403D01*
X169064400Y-72688569D01*
X169054686Y-72737403D01*
X168921569Y-72870520D01*
X168764000Y-73250926D01*
X168764000Y-73662674D01*
X168921569Y-74043080D01*
X169212720Y-74334231D01*
X169593126Y-74491800D01*
X170004874Y-74491800D01*
X170385280Y-74334231D01*
X170676431Y-74043080D01*
X170834000Y-73662674D01*
X170834000Y-73250926D01*
X170676431Y-72870520D01*
X170584400Y-72778489D01*
X170584400Y-63422447D01*
X170599288Y-63347600D01*
X170584400Y-63272753D01*
X170584400Y-63272748D01*
X170540304Y-63051063D01*
X170372329Y-62799671D01*
X170308873Y-62757271D01*
X169356000Y-61804399D01*
X169356000Y-57949444D01*
X169601457Y-57847772D01*
X170100772Y-57348457D01*
X170371000Y-56696069D01*
X170371000Y-55989931D01*
X170223706Y-55634331D01*
X175355400Y-55634331D01*
X175355400Y-56340469D01*
X175625628Y-56992857D01*
X176124943Y-57492172D01*
X176370401Y-57593844D01*
X176370400Y-61206153D01*
X176355512Y-61281000D01*
X176370400Y-61355847D01*
X176370400Y-61355851D01*
X176414496Y-61577536D01*
X176582471Y-61828929D01*
X176645930Y-61871331D01*
X177421001Y-62646403D01*
X177421000Y-73032489D01*
X177303569Y-73149920D01*
X177146000Y-73530326D01*
X177146000Y-73942074D01*
X177303569Y-74322480D01*
X177594720Y-74613631D01*
X177975126Y-74771200D01*
X178386874Y-74771200D01*
X178767280Y-74613631D01*
X179058431Y-74322480D01*
X179216000Y-73942074D01*
X179216000Y-73530326D01*
X179058431Y-73149920D01*
X178941000Y-73032489D01*
X178941000Y-62406448D01*
X178955888Y-62331600D01*
X178941000Y-62256752D01*
X178941000Y-62256748D01*
X178896904Y-62035063D01*
X178896904Y-62035062D01*
X178771329Y-61847127D01*
X178728929Y-61783671D01*
X178665473Y-61741271D01*
X177890400Y-60966199D01*
X177890400Y-57593844D01*
X178135857Y-57492172D01*
X178635172Y-56992857D01*
X178905400Y-56340469D01*
X178905400Y-55634331D01*
X181705400Y-55634331D01*
X181705400Y-56340469D01*
X181975628Y-56992857D01*
X182474943Y-57492172D01*
X182720401Y-57593844D01*
X182720400Y-61460153D01*
X182705512Y-61535000D01*
X182720400Y-61609847D01*
X182720400Y-61609851D01*
X182764496Y-61831536D01*
X182932471Y-62082929D01*
X182995930Y-62125331D01*
X183694801Y-62824203D01*
X183694800Y-72930889D01*
X183577369Y-73048320D01*
X183419800Y-73428726D01*
X183419800Y-73840474D01*
X183577369Y-74220880D01*
X183868520Y-74512031D01*
X184248926Y-74669600D01*
X184660674Y-74669600D01*
X185041080Y-74512031D01*
X185332231Y-74220880D01*
X185489800Y-73840474D01*
X185489800Y-73428726D01*
X185332231Y-73048320D01*
X185214800Y-72930889D01*
X185214800Y-62584248D01*
X185229688Y-62509400D01*
X185214800Y-62434552D01*
X185214800Y-62434548D01*
X185170704Y-62212863D01*
X185170704Y-62212862D01*
X185045129Y-62024927D01*
X185002729Y-61961471D01*
X184939273Y-61919071D01*
X184240400Y-61220199D01*
X184240400Y-57593844D01*
X184485857Y-57492172D01*
X184985172Y-56992857D01*
X185255400Y-56340469D01*
X185255400Y-55634331D01*
X184985172Y-54981943D01*
X184485857Y-54482628D01*
X183833469Y-54212400D01*
X183127331Y-54212400D01*
X182474943Y-54482628D01*
X181975628Y-54981943D01*
X181705400Y-55634331D01*
X178905400Y-55634331D01*
X178635172Y-54981943D01*
X178135857Y-54482628D01*
X177483469Y-54212400D01*
X176777331Y-54212400D01*
X176124943Y-54482628D01*
X175625628Y-54981943D01*
X175355400Y-55634331D01*
X170223706Y-55634331D01*
X170100772Y-55337543D01*
X169601457Y-54838228D01*
X168949069Y-54568000D01*
X168242931Y-54568000D01*
X167590543Y-54838228D01*
X167091228Y-55337543D01*
X166821000Y-55989931D01*
X164021000Y-55989931D01*
X163750772Y-55337543D01*
X163251457Y-54838228D01*
X162599069Y-54568000D01*
X161892931Y-54568000D01*
X161240543Y-54838228D01*
X160741228Y-55337543D01*
X160471000Y-55989931D01*
X157671000Y-55989931D01*
X157400772Y-55337543D01*
X156901457Y-54838228D01*
X156249069Y-54568000D01*
X155542931Y-54568000D01*
X154890543Y-54838228D01*
X154391228Y-55337543D01*
X154121000Y-55989931D01*
X137718000Y-55989931D01*
X137718000Y-49639931D01*
X154121000Y-49639931D01*
X154121000Y-50346069D01*
X154391228Y-50998457D01*
X154890543Y-51497772D01*
X155542931Y-51768000D01*
X156249069Y-51768000D01*
X156901457Y-51497772D01*
X157400772Y-50998457D01*
X157671000Y-50346069D01*
X157671000Y-49639931D01*
X160471000Y-49639931D01*
X160471000Y-50346069D01*
X160741228Y-50998457D01*
X161240543Y-51497772D01*
X161892931Y-51768000D01*
X162599069Y-51768000D01*
X163251457Y-51497772D01*
X163750772Y-50998457D01*
X164021000Y-50346069D01*
X164021000Y-49639931D01*
X163750772Y-48987543D01*
X163616229Y-48853000D01*
X166808560Y-48853000D01*
X166808560Y-51133000D01*
X166857843Y-51380765D01*
X166998191Y-51590809D01*
X167208235Y-51731157D01*
X167456000Y-51780440D01*
X169736000Y-51780440D01*
X169983765Y-51731157D01*
X170193809Y-51590809D01*
X170334157Y-51380765D01*
X170383440Y-51133000D01*
X170383440Y-49284331D01*
X175355400Y-49284331D01*
X175355400Y-49990469D01*
X175625628Y-50642857D01*
X176124943Y-51142172D01*
X176777331Y-51412400D01*
X177483469Y-51412400D01*
X178135857Y-51142172D01*
X178635172Y-50642857D01*
X178905400Y-49990469D01*
X178905400Y-49284331D01*
X181705400Y-49284331D01*
X181705400Y-49990469D01*
X181975628Y-50642857D01*
X182474943Y-51142172D01*
X183127331Y-51412400D01*
X183833469Y-51412400D01*
X184485857Y-51142172D01*
X184985172Y-50642857D01*
X185255400Y-49990469D01*
X185255400Y-49284331D01*
X184985172Y-48631943D01*
X184850629Y-48497400D01*
X188042960Y-48497400D01*
X188042960Y-50777400D01*
X188092243Y-51025165D01*
X188232591Y-51235209D01*
X188442635Y-51375557D01*
X188690400Y-51424840D01*
X190970400Y-51424840D01*
X191218165Y-51375557D01*
X191428209Y-51235209D01*
X191568557Y-51025165D01*
X191617840Y-50777400D01*
X191617840Y-49411331D01*
X196666000Y-49411331D01*
X196666000Y-50117469D01*
X196936228Y-50769857D01*
X197435543Y-51269172D01*
X198087931Y-51539400D01*
X198794069Y-51539400D01*
X199446457Y-51269172D01*
X199945772Y-50769857D01*
X200216000Y-50117469D01*
X200216000Y-49411331D01*
X203016000Y-49411331D01*
X203016000Y-50117469D01*
X203286228Y-50769857D01*
X203785543Y-51269172D01*
X204437931Y-51539400D01*
X205144069Y-51539400D01*
X205796457Y-51269172D01*
X206295772Y-50769857D01*
X206566000Y-50117469D01*
X206566000Y-49411331D01*
X206295772Y-48758943D01*
X205796457Y-48259628D01*
X205144069Y-47989400D01*
X204437931Y-47989400D01*
X203785543Y-48259628D01*
X203286228Y-48758943D01*
X203016000Y-49411331D01*
X200216000Y-49411331D01*
X199945772Y-48758943D01*
X199446457Y-48259628D01*
X198794069Y-47989400D01*
X198087931Y-47989400D01*
X197435543Y-48259628D01*
X196936228Y-48758943D01*
X196666000Y-49411331D01*
X191617840Y-49411331D01*
X191617840Y-48497400D01*
X191568557Y-48249635D01*
X191428209Y-48039591D01*
X191218165Y-47899243D01*
X190970400Y-47849960D01*
X188690400Y-47849960D01*
X188442635Y-47899243D01*
X188232591Y-48039591D01*
X188092243Y-48249635D01*
X188042960Y-48497400D01*
X184850629Y-48497400D01*
X184485857Y-48132628D01*
X183833469Y-47862400D01*
X183127331Y-47862400D01*
X182474943Y-48132628D01*
X181975628Y-48631943D01*
X181705400Y-49284331D01*
X178905400Y-49284331D01*
X178635172Y-48631943D01*
X178135857Y-48132628D01*
X177483469Y-47862400D01*
X176777331Y-47862400D01*
X176124943Y-48132628D01*
X175625628Y-48631943D01*
X175355400Y-49284331D01*
X170383440Y-49284331D01*
X170383440Y-48853000D01*
X170334157Y-48605235D01*
X170193809Y-48395191D01*
X169983765Y-48254843D01*
X169736000Y-48205560D01*
X167456000Y-48205560D01*
X167208235Y-48254843D01*
X166998191Y-48395191D01*
X166857843Y-48605235D01*
X166808560Y-48853000D01*
X163616229Y-48853000D01*
X163251457Y-48488228D01*
X162599069Y-48218000D01*
X161892931Y-48218000D01*
X161240543Y-48488228D01*
X160741228Y-48987543D01*
X160471000Y-49639931D01*
X157671000Y-49639931D01*
X157400772Y-48987543D01*
X156901457Y-48488228D01*
X156249069Y-48218000D01*
X155542931Y-48218000D01*
X154890543Y-48488228D01*
X154391228Y-48987543D01*
X154121000Y-49639931D01*
X137718000Y-49639931D01*
X137718000Y-45516938D01*
X229183917Y-45642061D01*
G04 #@! TD*
M02*
