G04 #@! TF.GenerationSoftware,KiCad,Pcbnew,(5.0.1)-4*
G04 #@! TF.CreationDate,2019-01-07T16:42:56+05:30*
G04 #@! TF.ProjectId,monitoring_board,6D6F6E69746F72696E675F626F617264,rev?*
G04 #@! TF.SameCoordinates,Original*
G04 #@! TF.FileFunction,Soldermask,Bot*
G04 #@! TF.FilePolarity,Negative*
%FSLAX46Y46*%
G04 Gerber Fmt 4.6, Leading zero omitted, Abs format (unit mm)*
G04 Created by KiCad (PCBNEW (5.0.1)-4) date 01/07/19 16:42:56*
%MOMM*%
%LPD*%
G01*
G04 APERTURE LIST*
%ADD10C,0.150000*%
%ADD11C,0.100000*%
G04 APERTURE END LIST*
D10*
G36*
X159004000Y-107696000D02*
X193040000Y-107696000D01*
X194056000Y-108966000D01*
X193294000Y-110109000D01*
X159893000Y-109728000D01*
X156718000Y-112649000D01*
X155194000Y-112522000D01*
X155321000Y-111506000D01*
X158623000Y-107823000D01*
X159004000Y-107696000D01*
G37*
X159004000Y-107696000D02*
X193040000Y-107696000D01*
X194056000Y-108966000D01*
X193294000Y-110109000D01*
X159893000Y-109728000D01*
X156718000Y-112649000D01*
X155194000Y-112522000D01*
X155321000Y-111506000D01*
X158623000Y-107823000D01*
X159004000Y-107696000D01*
G36*
X220853000Y-77597000D02*
X224536000Y-74041000D01*
X224663000Y-63246000D01*
X222631000Y-63373000D01*
X222377000Y-73025000D01*
X219456000Y-75946000D01*
X219456000Y-77343000D01*
X220853000Y-77597000D01*
G37*
X220853000Y-77597000D02*
X224536000Y-74041000D01*
X224663000Y-63246000D01*
X222631000Y-63373000D01*
X222377000Y-73025000D01*
X219456000Y-75946000D01*
X219456000Y-77343000D01*
X220853000Y-77597000D01*
D11*
G36*
X161287970Y-114798572D02*
X161403889Y-114821629D01*
X161585878Y-114897011D01*
X161749663Y-115006449D01*
X161888951Y-115145737D01*
X161998389Y-115309522D01*
X162073771Y-115491511D01*
X162096828Y-115607430D01*
X162112200Y-115684707D01*
X162112200Y-115881693D01*
X162103602Y-115924915D01*
X162073771Y-116074889D01*
X161998389Y-116256878D01*
X161888951Y-116420663D01*
X161749663Y-116559951D01*
X161585878Y-116669389D01*
X161403889Y-116744771D01*
X161287970Y-116767828D01*
X161210693Y-116783200D01*
X161013707Y-116783200D01*
X160936430Y-116767828D01*
X160820511Y-116744771D01*
X160638522Y-116669389D01*
X160474737Y-116559951D01*
X160335449Y-116420663D01*
X160226011Y-116256878D01*
X160150629Y-116074889D01*
X160120798Y-115924915D01*
X160112200Y-115881693D01*
X160112200Y-115684707D01*
X160127572Y-115607430D01*
X160150629Y-115491511D01*
X160226011Y-115309522D01*
X160335449Y-115145737D01*
X160474737Y-115006449D01*
X160638522Y-114897011D01*
X160820511Y-114821629D01*
X160936430Y-114798572D01*
X161013707Y-114783200D01*
X161210693Y-114783200D01*
X161287970Y-114798572D01*
X161287970Y-114798572D01*
G37*
G36*
X156207970Y-114788572D02*
X156323889Y-114811629D01*
X156505878Y-114887011D01*
X156669663Y-114996449D01*
X156808951Y-115135737D01*
X156918389Y-115299522D01*
X156993771Y-115481511D01*
X157032200Y-115674709D01*
X157032200Y-115871691D01*
X156993771Y-116064889D01*
X156918389Y-116246878D01*
X156808951Y-116410663D01*
X156669663Y-116549951D01*
X156505878Y-116659389D01*
X156323889Y-116734771D01*
X156207970Y-116757828D01*
X156130693Y-116773200D01*
X155933707Y-116773200D01*
X155856430Y-116757828D01*
X155740511Y-116734771D01*
X155558522Y-116659389D01*
X155394737Y-116549951D01*
X155255449Y-116410663D01*
X155146011Y-116246878D01*
X155070629Y-116064889D01*
X155032200Y-115871691D01*
X155032200Y-115674709D01*
X155070629Y-115481511D01*
X155146011Y-115299522D01*
X155255449Y-115135737D01*
X155394737Y-114996449D01*
X155558522Y-114887011D01*
X155740511Y-114811629D01*
X155856430Y-114788572D01*
X155933707Y-114773200D01*
X156130693Y-114773200D01*
X156207970Y-114788572D01*
X156207970Y-114788572D01*
G37*
G36*
X150755504Y-113741883D02*
X150907134Y-113772044D01*
X151180117Y-113885117D01*
X151422520Y-114047087D01*
X151425797Y-114049276D01*
X151634724Y-114258203D01*
X151798884Y-114503885D01*
X151911956Y-114776867D01*
X151969600Y-115066661D01*
X151969600Y-115362139D01*
X151931171Y-115555335D01*
X151918801Y-115617524D01*
X151911956Y-115651933D01*
X151798884Y-115924915D01*
X151634724Y-116170597D01*
X151425797Y-116379524D01*
X151425794Y-116379526D01*
X151180117Y-116543683D01*
X151180116Y-116543684D01*
X151180115Y-116543684D01*
X151100160Y-116576802D01*
X150907134Y-116656756D01*
X150843623Y-116669389D01*
X150617339Y-116714400D01*
X150321861Y-116714400D01*
X150095577Y-116669389D01*
X150032066Y-116656756D01*
X149839040Y-116576802D01*
X149759085Y-116543684D01*
X149759084Y-116543684D01*
X149759083Y-116543683D01*
X149513406Y-116379526D01*
X149513403Y-116379524D01*
X149304476Y-116170597D01*
X149140316Y-115924915D01*
X149027244Y-115651933D01*
X149020400Y-115617524D01*
X149008029Y-115555335D01*
X148969600Y-115362139D01*
X148969600Y-115066661D01*
X149027244Y-114776867D01*
X149140316Y-114503885D01*
X149304476Y-114258203D01*
X149513403Y-114049276D01*
X149516680Y-114047087D01*
X149759083Y-113885117D01*
X150032066Y-113772044D01*
X150183696Y-113741883D01*
X150321861Y-113714400D01*
X150617339Y-113714400D01*
X150755504Y-113741883D01*
X150755504Y-113741883D01*
G37*
G36*
X146889600Y-116714400D02*
X143889600Y-116714400D01*
X143889600Y-113714400D01*
X146889600Y-113714400D01*
X146889600Y-116714400D01*
X146889600Y-116714400D01*
G37*
G36*
X216942800Y-115952400D02*
X213942800Y-115952400D01*
X213942800Y-112952400D01*
X216942800Y-112952400D01*
X216942800Y-115952400D01*
X216942800Y-115952400D01*
G37*
G36*
X220863735Y-112990829D02*
X220960334Y-113010044D01*
X221233317Y-113123117D01*
X221393411Y-113230089D01*
X221478997Y-113287276D01*
X221687924Y-113496203D01*
X221687926Y-113496206D01*
X221852083Y-113741883D01*
X221965156Y-114014866D01*
X222022800Y-114304663D01*
X222022800Y-114600137D01*
X221965156Y-114889934D01*
X221921036Y-114996449D01*
X221852084Y-115162915D01*
X221687924Y-115408597D01*
X221478997Y-115617524D01*
X221478994Y-115617526D01*
X221233317Y-115781683D01*
X220960334Y-115894756D01*
X220863735Y-115913971D01*
X220670539Y-115952400D01*
X220375061Y-115952400D01*
X220181865Y-115913971D01*
X220085266Y-115894756D01*
X219812283Y-115781683D01*
X219566606Y-115617526D01*
X219566603Y-115617524D01*
X219357676Y-115408597D01*
X219193516Y-115162915D01*
X219124564Y-114996449D01*
X219080444Y-114889934D01*
X219022800Y-114600137D01*
X219022800Y-114304663D01*
X219080444Y-114014866D01*
X219193517Y-113741883D01*
X219357674Y-113496206D01*
X219357676Y-113496203D01*
X219566603Y-113287276D01*
X219652189Y-113230089D01*
X219812283Y-113123117D01*
X220085266Y-113010044D01*
X220181865Y-112990829D01*
X220375061Y-112952400D01*
X220670539Y-112952400D01*
X220863735Y-112990829D01*
X220863735Y-112990829D01*
G37*
G36*
X205052170Y-111953772D02*
X205168089Y-111976829D01*
X205350078Y-112052211D01*
X205513863Y-112161649D01*
X205653151Y-112300937D01*
X205762589Y-112464722D01*
X205837971Y-112646711D01*
X205876400Y-112839909D01*
X205876400Y-113036891D01*
X205837971Y-113230089D01*
X205762589Y-113412078D01*
X205653151Y-113575863D01*
X205513863Y-113715151D01*
X205350078Y-113824589D01*
X205168089Y-113899971D01*
X205052170Y-113923028D01*
X204974893Y-113938400D01*
X204777907Y-113938400D01*
X204700630Y-113923028D01*
X204584711Y-113899971D01*
X204402722Y-113824589D01*
X204238937Y-113715151D01*
X204099649Y-113575863D01*
X203990211Y-113412078D01*
X203914829Y-113230089D01*
X203876400Y-113036891D01*
X203876400Y-112839909D01*
X203914829Y-112646711D01*
X203990211Y-112464722D01*
X204099649Y-112300937D01*
X204238937Y-112161649D01*
X204402722Y-112052211D01*
X204584711Y-111976829D01*
X204700630Y-111953772D01*
X204777907Y-111938400D01*
X204974893Y-111938400D01*
X205052170Y-111953772D01*
X205052170Y-111953772D01*
G37*
G36*
X210132170Y-111943772D02*
X210248089Y-111966829D01*
X210430078Y-112042211D01*
X210593863Y-112151649D01*
X210733151Y-112290937D01*
X210842589Y-112454722D01*
X210917971Y-112636711D01*
X210956400Y-112829909D01*
X210956400Y-113026891D01*
X210917971Y-113220089D01*
X210842589Y-113402078D01*
X210733151Y-113565863D01*
X210593863Y-113705151D01*
X210430078Y-113814589D01*
X210248089Y-113889971D01*
X210132170Y-113913028D01*
X210054893Y-113928400D01*
X209857907Y-113928400D01*
X209780630Y-113913028D01*
X209664711Y-113889971D01*
X209482722Y-113814589D01*
X209318937Y-113705151D01*
X209179649Y-113565863D01*
X209070211Y-113402078D01*
X208994829Y-113220089D01*
X208956400Y-113026891D01*
X208956400Y-112829909D01*
X208994829Y-112636711D01*
X209070211Y-112454722D01*
X209179649Y-112290937D01*
X209318937Y-112151649D01*
X209482722Y-112042211D01*
X209664711Y-111966829D01*
X209780630Y-111943772D01*
X209857907Y-111928400D01*
X210054893Y-111928400D01*
X210132170Y-111943772D01*
X210132170Y-111943772D01*
G37*
G36*
X139739630Y-107391699D02*
X139899855Y-107440303D01*
X140047520Y-107519231D01*
X140176949Y-107625451D01*
X140283169Y-107754880D01*
X140362097Y-107902545D01*
X140410701Y-108062770D01*
X140427112Y-108229400D01*
X140410701Y-108396030D01*
X140362097Y-108556255D01*
X140283169Y-108703920D01*
X140176949Y-108833349D01*
X140047520Y-108939569D01*
X139899855Y-109018497D01*
X139739630Y-109067101D01*
X139614752Y-109079400D01*
X139531248Y-109079400D01*
X139406370Y-109067101D01*
X139246145Y-109018497D01*
X139098480Y-108939569D01*
X138969051Y-108833349D01*
X138862831Y-108703920D01*
X138783903Y-108556255D01*
X138735299Y-108396030D01*
X138718888Y-108229400D01*
X138735299Y-108062770D01*
X138783903Y-107902545D01*
X138862831Y-107754880D01*
X138969051Y-107625451D01*
X139098480Y-107519231D01*
X139246145Y-107440303D01*
X139406370Y-107391699D01*
X139531248Y-107379400D01*
X139614752Y-107379400D01*
X139739630Y-107391699D01*
X139739630Y-107391699D01*
G37*
G36*
X226277430Y-106629699D02*
X226437655Y-106678303D01*
X226585320Y-106757231D01*
X226714749Y-106863451D01*
X226820969Y-106992880D01*
X226899897Y-107140545D01*
X226948501Y-107300770D01*
X226964912Y-107467400D01*
X226948501Y-107634030D01*
X226899897Y-107794255D01*
X226820969Y-107941920D01*
X226714749Y-108071349D01*
X226585320Y-108177569D01*
X226437655Y-108256497D01*
X226277430Y-108305101D01*
X226152552Y-108317400D01*
X226069048Y-108317400D01*
X225944170Y-108305101D01*
X225783945Y-108256497D01*
X225636280Y-108177569D01*
X225506851Y-108071349D01*
X225400631Y-107941920D01*
X225321703Y-107794255D01*
X225273099Y-107634030D01*
X225256688Y-107467400D01*
X225273099Y-107300770D01*
X225321703Y-107140545D01*
X225400631Y-106992880D01*
X225506851Y-106863451D01*
X225636280Y-106757231D01*
X225783945Y-106678303D01*
X225944170Y-106629699D01*
X226069048Y-106617400D01*
X226152552Y-106617400D01*
X226277430Y-106629699D01*
X226277430Y-106629699D01*
G37*
G36*
X140423000Y-106539400D02*
X138723000Y-106539400D01*
X138723000Y-104839400D01*
X140423000Y-104839400D01*
X140423000Y-106539400D01*
X140423000Y-106539400D01*
G37*
G36*
X226960800Y-105777400D02*
X225260800Y-105777400D01*
X225260800Y-104077400D01*
X226960800Y-104077400D01*
X226960800Y-105777400D01*
X226960800Y-105777400D01*
G37*
G36*
X145133635Y-97954029D02*
X145230234Y-97973244D01*
X145503217Y-98086317D01*
X145566532Y-98128623D01*
X145748897Y-98250476D01*
X145957824Y-98459403D01*
X145957826Y-98459406D01*
X146121983Y-98705083D01*
X146235056Y-98978066D01*
X146292700Y-99267863D01*
X146292700Y-99563337D01*
X146235056Y-99853134D01*
X146121983Y-100126117D01*
X146098216Y-100161686D01*
X145957824Y-100371797D01*
X145748897Y-100580724D01*
X145748894Y-100580726D01*
X145503217Y-100744883D01*
X145230234Y-100857956D01*
X145133635Y-100877171D01*
X144940439Y-100915600D01*
X144644961Y-100915600D01*
X144451765Y-100877171D01*
X144355166Y-100857956D01*
X144082183Y-100744883D01*
X143836506Y-100580726D01*
X143836503Y-100580724D01*
X143627576Y-100371797D01*
X143487184Y-100161686D01*
X143463417Y-100126117D01*
X143350344Y-99853134D01*
X143292700Y-99563337D01*
X143292700Y-99267863D01*
X143350344Y-98978066D01*
X143463417Y-98705083D01*
X143627574Y-98459406D01*
X143627576Y-98459403D01*
X143836503Y-98250476D01*
X144018868Y-98128623D01*
X144082183Y-98086317D01*
X144355166Y-97973244D01*
X144451765Y-97954029D01*
X144644961Y-97915600D01*
X144940439Y-97915600D01*
X145133635Y-97954029D01*
X145133635Y-97954029D01*
G37*
G36*
X220132735Y-97954029D02*
X220229334Y-97973244D01*
X220502317Y-98086317D01*
X220565632Y-98128623D01*
X220747997Y-98250476D01*
X220956924Y-98459403D01*
X220956926Y-98459406D01*
X221121083Y-98705083D01*
X221234156Y-98978066D01*
X221291800Y-99267863D01*
X221291800Y-99563337D01*
X221234156Y-99853134D01*
X221121083Y-100126117D01*
X221097316Y-100161686D01*
X220956924Y-100371797D01*
X220747997Y-100580724D01*
X220747994Y-100580726D01*
X220502317Y-100744883D01*
X220229334Y-100857956D01*
X220132735Y-100877171D01*
X219939539Y-100915600D01*
X219644061Y-100915600D01*
X219450865Y-100877171D01*
X219354266Y-100857956D01*
X219081283Y-100744883D01*
X218835606Y-100580726D01*
X218835603Y-100580724D01*
X218626676Y-100371797D01*
X218486284Y-100161686D01*
X218462517Y-100126117D01*
X218349444Y-99853134D01*
X218291800Y-99563337D01*
X218291800Y-99267863D01*
X218349444Y-98978066D01*
X218462517Y-98705083D01*
X218626674Y-98459406D01*
X218626676Y-98459403D01*
X218835603Y-98250476D01*
X219017968Y-98128623D01*
X219081283Y-98086317D01*
X219354266Y-97973244D01*
X219450865Y-97954029D01*
X219644061Y-97915600D01*
X219939539Y-97915600D01*
X220132735Y-97954029D01*
X220132735Y-97954029D01*
G37*
G36*
X160628231Y-98128622D02*
X160797876Y-98180084D01*
X160954236Y-98263659D01*
X161091275Y-98376125D01*
X161203744Y-98513167D01*
X161287315Y-98669519D01*
X161338778Y-98839168D01*
X161351800Y-98971389D01*
X161351800Y-99859810D01*
X161338778Y-99992026D01*
X161338777Y-99992028D01*
X161338777Y-99992031D01*
X161298102Y-100126117D01*
X161287312Y-100161686D01*
X161203744Y-100318033D01*
X161091275Y-100455075D01*
X160954233Y-100567544D01*
X160797881Y-100651115D01*
X160628232Y-100702578D01*
X160451800Y-100719954D01*
X160275369Y-100702578D01*
X160105720Y-100651115D01*
X159949368Y-100567544D01*
X159812326Y-100455075D01*
X159699857Y-100318033D01*
X159616286Y-100161681D01*
X159564823Y-99992032D01*
X159551800Y-99859810D01*
X159551800Y-98971390D01*
X159564822Y-98839169D01*
X159616284Y-98669524D01*
X159699859Y-98513164D01*
X159812325Y-98376125D01*
X159949367Y-98263656D01*
X160105719Y-98180085D01*
X160275368Y-98128622D01*
X160451800Y-98111246D01*
X160628231Y-98128622D01*
X160628231Y-98128622D01*
G37*
G36*
X155548231Y-98128622D02*
X155717876Y-98180084D01*
X155874236Y-98263659D01*
X156011275Y-98376125D01*
X156123744Y-98513167D01*
X156207315Y-98669519D01*
X156258778Y-98839168D01*
X156271800Y-98971389D01*
X156271800Y-99859810D01*
X156258778Y-99992026D01*
X156258777Y-99992028D01*
X156258777Y-99992031D01*
X156218102Y-100126117D01*
X156207312Y-100161686D01*
X156123744Y-100318033D01*
X156011275Y-100455075D01*
X155874233Y-100567544D01*
X155717881Y-100651115D01*
X155548232Y-100702578D01*
X155371800Y-100719954D01*
X155195369Y-100702578D01*
X155025720Y-100651115D01*
X154869368Y-100567544D01*
X154732326Y-100455075D01*
X154619857Y-100318033D01*
X154536286Y-100161681D01*
X154484823Y-99992032D01*
X154471800Y-99859810D01*
X154471800Y-98971390D01*
X154484822Y-98839169D01*
X154536284Y-98669524D01*
X154619859Y-98513164D01*
X154732325Y-98376125D01*
X154869367Y-98263656D01*
X155025719Y-98180085D01*
X155195368Y-98128622D01*
X155371800Y-98111246D01*
X155548231Y-98128622D01*
X155548231Y-98128622D01*
G37*
G36*
X153008231Y-98128622D02*
X153177876Y-98180084D01*
X153334236Y-98263659D01*
X153471275Y-98376125D01*
X153583744Y-98513167D01*
X153667315Y-98669519D01*
X153718778Y-98839168D01*
X153731800Y-98971389D01*
X153731800Y-99859810D01*
X153718778Y-99992026D01*
X153718777Y-99992028D01*
X153718777Y-99992031D01*
X153678102Y-100126117D01*
X153667312Y-100161686D01*
X153583744Y-100318033D01*
X153471275Y-100455075D01*
X153334233Y-100567544D01*
X153177881Y-100651115D01*
X153008232Y-100702578D01*
X152831800Y-100719954D01*
X152655369Y-100702578D01*
X152485720Y-100651115D01*
X152329368Y-100567544D01*
X152192326Y-100455075D01*
X152079857Y-100318033D01*
X151996286Y-100161681D01*
X151944823Y-99992032D01*
X151931800Y-99859810D01*
X151931800Y-98971390D01*
X151944822Y-98839169D01*
X151996284Y-98669524D01*
X152079859Y-98513164D01*
X152192325Y-98376125D01*
X152329367Y-98263656D01*
X152485719Y-98180085D01*
X152655368Y-98128622D01*
X152831800Y-98111246D01*
X153008231Y-98128622D01*
X153008231Y-98128622D01*
G37*
G36*
X158088231Y-98128622D02*
X158257876Y-98180084D01*
X158414236Y-98263659D01*
X158551275Y-98376125D01*
X158663744Y-98513167D01*
X158747315Y-98669519D01*
X158798778Y-98839168D01*
X158811800Y-98971389D01*
X158811800Y-99859810D01*
X158798778Y-99992026D01*
X158798777Y-99992028D01*
X158798777Y-99992031D01*
X158758102Y-100126117D01*
X158747312Y-100161686D01*
X158663744Y-100318033D01*
X158551275Y-100455075D01*
X158414233Y-100567544D01*
X158257881Y-100651115D01*
X158088232Y-100702578D01*
X157911800Y-100719954D01*
X157735369Y-100702578D01*
X157565720Y-100651115D01*
X157409368Y-100567544D01*
X157272326Y-100455075D01*
X157159857Y-100318033D01*
X157076286Y-100161681D01*
X157024823Y-99992032D01*
X157011800Y-99859810D01*
X157011800Y-98971390D01*
X157024822Y-98839169D01*
X157076284Y-98669524D01*
X157159859Y-98513164D01*
X157272325Y-98376125D01*
X157409367Y-98263656D01*
X157565719Y-98180085D01*
X157735368Y-98128622D01*
X157911800Y-98111246D01*
X158088231Y-98128622D01*
X158088231Y-98128622D01*
G37*
G36*
X163168231Y-98128622D02*
X163337876Y-98180084D01*
X163494236Y-98263659D01*
X163631275Y-98376125D01*
X163743744Y-98513167D01*
X163827315Y-98669519D01*
X163878778Y-98839168D01*
X163891800Y-98971389D01*
X163891800Y-99859810D01*
X163878778Y-99992026D01*
X163878777Y-99992028D01*
X163878777Y-99992031D01*
X163838102Y-100126117D01*
X163827312Y-100161686D01*
X163743744Y-100318033D01*
X163631275Y-100455075D01*
X163494233Y-100567544D01*
X163337881Y-100651115D01*
X163168232Y-100702578D01*
X162991800Y-100719954D01*
X162815369Y-100702578D01*
X162645720Y-100651115D01*
X162489368Y-100567544D01*
X162352326Y-100455075D01*
X162239857Y-100318033D01*
X162156286Y-100161681D01*
X162104823Y-99992032D01*
X162091800Y-99859810D01*
X162091800Y-98971390D01*
X162104822Y-98839169D01*
X162156284Y-98669524D01*
X162239859Y-98513164D01*
X162352325Y-98376125D01*
X162489367Y-98263656D01*
X162645719Y-98180085D01*
X162815368Y-98128622D01*
X162991800Y-98111246D01*
X163168231Y-98128622D01*
X163168231Y-98128622D01*
G37*
G36*
X175868231Y-98128622D02*
X176037876Y-98180084D01*
X176194236Y-98263659D01*
X176331275Y-98376125D01*
X176443744Y-98513167D01*
X176527315Y-98669519D01*
X176578778Y-98839168D01*
X176591800Y-98971389D01*
X176591800Y-99859810D01*
X176578778Y-99992026D01*
X176578777Y-99992028D01*
X176578777Y-99992031D01*
X176538102Y-100126117D01*
X176527312Y-100161686D01*
X176443744Y-100318033D01*
X176331275Y-100455075D01*
X176194233Y-100567544D01*
X176037881Y-100651115D01*
X175868232Y-100702578D01*
X175691800Y-100719954D01*
X175515369Y-100702578D01*
X175345720Y-100651115D01*
X175189368Y-100567544D01*
X175052326Y-100455075D01*
X174939857Y-100318033D01*
X174856286Y-100161681D01*
X174804823Y-99992032D01*
X174791800Y-99859810D01*
X174791800Y-98971390D01*
X174804822Y-98839169D01*
X174856284Y-98669524D01*
X174939859Y-98513164D01*
X175052325Y-98376125D01*
X175189367Y-98263656D01*
X175345719Y-98180085D01*
X175515368Y-98128622D01*
X175691800Y-98111246D01*
X175868231Y-98128622D01*
X175868231Y-98128622D01*
G37*
G36*
X165708231Y-98128622D02*
X165877876Y-98180084D01*
X166034236Y-98263659D01*
X166171275Y-98376125D01*
X166283744Y-98513167D01*
X166367315Y-98669519D01*
X166418778Y-98839168D01*
X166431800Y-98971389D01*
X166431800Y-99859810D01*
X166418778Y-99992026D01*
X166418777Y-99992028D01*
X166418777Y-99992031D01*
X166378102Y-100126117D01*
X166367312Y-100161686D01*
X166283744Y-100318033D01*
X166171275Y-100455075D01*
X166034233Y-100567544D01*
X165877881Y-100651115D01*
X165708232Y-100702578D01*
X165531800Y-100719954D01*
X165355369Y-100702578D01*
X165185720Y-100651115D01*
X165029368Y-100567544D01*
X164892326Y-100455075D01*
X164779857Y-100318033D01*
X164696286Y-100161681D01*
X164644823Y-99992032D01*
X164631800Y-99859810D01*
X164631800Y-98971390D01*
X164644822Y-98839169D01*
X164696284Y-98669524D01*
X164779859Y-98513164D01*
X164892325Y-98376125D01*
X165029367Y-98263656D01*
X165185719Y-98180085D01*
X165355368Y-98128622D01*
X165531800Y-98111246D01*
X165708231Y-98128622D01*
X165708231Y-98128622D01*
G37*
G36*
X168248231Y-98128622D02*
X168417876Y-98180084D01*
X168574236Y-98263659D01*
X168711275Y-98376125D01*
X168823744Y-98513167D01*
X168907315Y-98669519D01*
X168958778Y-98839168D01*
X168971800Y-98971389D01*
X168971800Y-99859810D01*
X168958778Y-99992026D01*
X168958777Y-99992028D01*
X168958777Y-99992031D01*
X168918102Y-100126117D01*
X168907312Y-100161686D01*
X168823744Y-100318033D01*
X168711275Y-100455075D01*
X168574233Y-100567544D01*
X168417881Y-100651115D01*
X168248232Y-100702578D01*
X168071800Y-100719954D01*
X167895369Y-100702578D01*
X167725720Y-100651115D01*
X167569368Y-100567544D01*
X167432326Y-100455075D01*
X167319857Y-100318033D01*
X167236286Y-100161681D01*
X167184823Y-99992032D01*
X167171800Y-99859810D01*
X167171800Y-98971390D01*
X167184822Y-98839169D01*
X167236284Y-98669524D01*
X167319859Y-98513164D01*
X167432325Y-98376125D01*
X167569367Y-98263656D01*
X167725719Y-98180085D01*
X167895368Y-98128622D01*
X168071800Y-98111246D01*
X168248231Y-98128622D01*
X168248231Y-98128622D01*
G37*
G36*
X170788231Y-98128622D02*
X170957876Y-98180084D01*
X171114236Y-98263659D01*
X171251275Y-98376125D01*
X171363744Y-98513167D01*
X171447315Y-98669519D01*
X171498778Y-98839168D01*
X171511800Y-98971389D01*
X171511800Y-99859810D01*
X171498778Y-99992026D01*
X171498777Y-99992028D01*
X171498777Y-99992031D01*
X171458102Y-100126117D01*
X171447312Y-100161686D01*
X171363744Y-100318033D01*
X171251275Y-100455075D01*
X171114233Y-100567544D01*
X170957881Y-100651115D01*
X170788232Y-100702578D01*
X170611800Y-100719954D01*
X170435369Y-100702578D01*
X170265720Y-100651115D01*
X170109368Y-100567544D01*
X169972326Y-100455075D01*
X169859857Y-100318033D01*
X169776286Y-100161681D01*
X169724823Y-99992032D01*
X169711800Y-99859810D01*
X169711800Y-98971390D01*
X169724822Y-98839169D01*
X169776284Y-98669524D01*
X169859859Y-98513164D01*
X169972325Y-98376125D01*
X170109367Y-98263656D01*
X170265719Y-98180085D01*
X170435368Y-98128622D01*
X170611800Y-98111246D01*
X170788231Y-98128622D01*
X170788231Y-98128622D01*
G37*
G36*
X173328231Y-98128622D02*
X173497876Y-98180084D01*
X173654236Y-98263659D01*
X173791275Y-98376125D01*
X173903744Y-98513167D01*
X173987315Y-98669519D01*
X174038778Y-98839168D01*
X174051800Y-98971389D01*
X174051800Y-99859810D01*
X174038778Y-99992026D01*
X174038777Y-99992028D01*
X174038777Y-99992031D01*
X173998102Y-100126117D01*
X173987312Y-100161686D01*
X173903744Y-100318033D01*
X173791275Y-100455075D01*
X173654233Y-100567544D01*
X173497881Y-100651115D01*
X173328232Y-100702578D01*
X173151800Y-100719954D01*
X172975369Y-100702578D01*
X172805720Y-100651115D01*
X172649368Y-100567544D01*
X172512326Y-100455075D01*
X172399857Y-100318033D01*
X172316286Y-100161681D01*
X172264823Y-99992032D01*
X172251800Y-99859810D01*
X172251800Y-98971390D01*
X172264822Y-98839169D01*
X172316284Y-98669524D01*
X172399859Y-98513164D01*
X172512325Y-98376125D01*
X172649367Y-98263656D01*
X172805719Y-98180085D01*
X172975368Y-98128622D01*
X173151800Y-98111246D01*
X173328231Y-98128622D01*
X173328231Y-98128622D01*
G37*
G36*
X178408231Y-98128622D02*
X178577876Y-98180084D01*
X178734236Y-98263659D01*
X178871275Y-98376125D01*
X178983744Y-98513167D01*
X179067315Y-98669519D01*
X179118778Y-98839168D01*
X179131800Y-98971389D01*
X179131800Y-99859810D01*
X179118778Y-99992026D01*
X179118777Y-99992028D01*
X179118777Y-99992031D01*
X179078102Y-100126117D01*
X179067312Y-100161686D01*
X178983744Y-100318033D01*
X178871275Y-100455075D01*
X178734233Y-100567544D01*
X178577881Y-100651115D01*
X178408232Y-100702578D01*
X178231800Y-100719954D01*
X178055369Y-100702578D01*
X177885720Y-100651115D01*
X177729368Y-100567544D01*
X177592326Y-100455075D01*
X177479857Y-100318033D01*
X177396286Y-100161681D01*
X177344823Y-99992032D01*
X177331800Y-99859810D01*
X177331800Y-98971390D01*
X177344822Y-98839169D01*
X177396284Y-98669524D01*
X177479859Y-98513164D01*
X177592325Y-98376125D01*
X177729367Y-98263656D01*
X177885719Y-98180085D01*
X178055368Y-98128622D01*
X178231800Y-98111246D01*
X178408231Y-98128622D01*
X178408231Y-98128622D01*
G37*
G36*
X180948231Y-98128622D02*
X181117876Y-98180084D01*
X181274236Y-98263659D01*
X181411275Y-98376125D01*
X181523744Y-98513167D01*
X181607315Y-98669519D01*
X181658778Y-98839168D01*
X181671800Y-98971389D01*
X181671800Y-99859810D01*
X181658778Y-99992026D01*
X181658777Y-99992028D01*
X181658777Y-99992031D01*
X181618102Y-100126117D01*
X181607312Y-100161686D01*
X181523744Y-100318033D01*
X181411275Y-100455075D01*
X181274233Y-100567544D01*
X181117881Y-100651115D01*
X180948232Y-100702578D01*
X180771800Y-100719954D01*
X180595369Y-100702578D01*
X180425720Y-100651115D01*
X180269368Y-100567544D01*
X180132326Y-100455075D01*
X180019857Y-100318033D01*
X179936286Y-100161681D01*
X179884823Y-99992032D01*
X179871800Y-99859810D01*
X179871800Y-98971390D01*
X179884822Y-98839169D01*
X179936284Y-98669524D01*
X180019859Y-98513164D01*
X180132325Y-98376125D01*
X180269367Y-98263656D01*
X180425719Y-98180085D01*
X180595368Y-98128622D01*
X180771800Y-98111246D01*
X180948231Y-98128622D01*
X180948231Y-98128622D01*
G37*
G36*
X183488231Y-98128622D02*
X183657876Y-98180084D01*
X183814236Y-98263659D01*
X183951275Y-98376125D01*
X184063744Y-98513167D01*
X184147315Y-98669519D01*
X184198778Y-98839168D01*
X184211800Y-98971389D01*
X184211800Y-99859810D01*
X184198778Y-99992026D01*
X184198777Y-99992028D01*
X184198777Y-99992031D01*
X184158102Y-100126117D01*
X184147312Y-100161686D01*
X184063744Y-100318033D01*
X183951275Y-100455075D01*
X183814233Y-100567544D01*
X183657881Y-100651115D01*
X183488232Y-100702578D01*
X183311800Y-100719954D01*
X183135369Y-100702578D01*
X182965720Y-100651115D01*
X182809368Y-100567544D01*
X182672326Y-100455075D01*
X182559857Y-100318033D01*
X182476286Y-100161681D01*
X182424823Y-99992032D01*
X182411800Y-99859810D01*
X182411800Y-98971390D01*
X182424822Y-98839169D01*
X182476284Y-98669524D01*
X182559859Y-98513164D01*
X182672325Y-98376125D01*
X182809367Y-98263656D01*
X182965719Y-98180085D01*
X183135368Y-98128622D01*
X183311800Y-98111246D01*
X183488231Y-98128622D01*
X183488231Y-98128622D01*
G37*
G36*
X186028231Y-98128622D02*
X186197876Y-98180084D01*
X186354236Y-98263659D01*
X186491275Y-98376125D01*
X186603744Y-98513167D01*
X186687315Y-98669519D01*
X186738778Y-98839168D01*
X186751800Y-98971389D01*
X186751800Y-99859810D01*
X186738778Y-99992026D01*
X186738777Y-99992028D01*
X186738777Y-99992031D01*
X186698102Y-100126117D01*
X186687312Y-100161686D01*
X186603744Y-100318033D01*
X186491275Y-100455075D01*
X186354233Y-100567544D01*
X186197881Y-100651115D01*
X186028232Y-100702578D01*
X185851800Y-100719954D01*
X185675369Y-100702578D01*
X185505720Y-100651115D01*
X185349368Y-100567544D01*
X185212326Y-100455075D01*
X185099857Y-100318033D01*
X185016286Y-100161681D01*
X184964823Y-99992032D01*
X184951800Y-99859810D01*
X184951800Y-98971390D01*
X184964822Y-98839169D01*
X185016284Y-98669524D01*
X185099859Y-98513164D01*
X185212325Y-98376125D01*
X185349367Y-98263656D01*
X185505719Y-98180085D01*
X185675368Y-98128622D01*
X185851800Y-98111246D01*
X186028231Y-98128622D01*
X186028231Y-98128622D01*
G37*
G36*
X188568231Y-98128622D02*
X188737876Y-98180084D01*
X188894236Y-98263659D01*
X189031275Y-98376125D01*
X189143744Y-98513167D01*
X189227315Y-98669519D01*
X189278778Y-98839168D01*
X189291800Y-98971389D01*
X189291800Y-99859810D01*
X189278778Y-99992026D01*
X189278777Y-99992028D01*
X189278777Y-99992031D01*
X189238102Y-100126117D01*
X189227312Y-100161686D01*
X189143744Y-100318033D01*
X189031275Y-100455075D01*
X188894233Y-100567544D01*
X188737881Y-100651115D01*
X188568232Y-100702578D01*
X188391800Y-100719954D01*
X188215369Y-100702578D01*
X188045720Y-100651115D01*
X187889368Y-100567544D01*
X187752326Y-100455075D01*
X187639857Y-100318033D01*
X187556286Y-100161681D01*
X187504823Y-99992032D01*
X187491800Y-99859810D01*
X187491800Y-98971390D01*
X187504822Y-98839169D01*
X187556284Y-98669524D01*
X187639859Y-98513164D01*
X187752325Y-98376125D01*
X187889367Y-98263656D01*
X188045719Y-98180085D01*
X188215368Y-98128622D01*
X188391800Y-98111246D01*
X188568231Y-98128622D01*
X188568231Y-98128622D01*
G37*
G36*
X151191800Y-100715600D02*
X149391800Y-100715600D01*
X149391800Y-98115600D01*
X151191800Y-98115600D01*
X151191800Y-100715600D01*
X151191800Y-100715600D01*
G37*
G36*
X226732200Y-99173400D02*
X225032200Y-99173400D01*
X225032200Y-97473400D01*
X226732200Y-97473400D01*
X226732200Y-99173400D01*
X226732200Y-99173400D01*
G37*
G36*
X226048830Y-94945699D02*
X226209055Y-94994303D01*
X226356720Y-95073231D01*
X226486149Y-95179451D01*
X226592369Y-95308880D01*
X226671297Y-95456545D01*
X226719901Y-95616770D01*
X226736312Y-95783400D01*
X226719901Y-95950030D01*
X226671297Y-96110255D01*
X226592369Y-96257920D01*
X226486149Y-96387349D01*
X226356720Y-96493569D01*
X226209055Y-96572497D01*
X226048830Y-96621101D01*
X225923952Y-96633400D01*
X225840448Y-96633400D01*
X225715570Y-96621101D01*
X225555345Y-96572497D01*
X225407680Y-96493569D01*
X225278251Y-96387349D01*
X225172031Y-96257920D01*
X225093103Y-96110255D01*
X225044499Y-95950030D01*
X225028088Y-95783400D01*
X225044499Y-95616770D01*
X225093103Y-95456545D01*
X225172031Y-95308880D01*
X225278251Y-95179451D01*
X225407680Y-95073231D01*
X225555345Y-94994303D01*
X225715570Y-94945699D01*
X225840448Y-94933400D01*
X225923952Y-94933400D01*
X226048830Y-94945699D01*
X226048830Y-94945699D01*
G37*
G36*
X226048830Y-92405699D02*
X226209055Y-92454303D01*
X226356720Y-92533231D01*
X226486149Y-92639451D01*
X226592369Y-92768880D01*
X226671297Y-92916545D01*
X226719901Y-93076770D01*
X226736312Y-93243400D01*
X226719901Y-93410030D01*
X226671297Y-93570255D01*
X226592369Y-93717920D01*
X226486149Y-93847349D01*
X226356720Y-93953569D01*
X226209055Y-94032497D01*
X226048830Y-94081101D01*
X225923952Y-94093400D01*
X225840448Y-94093400D01*
X225715570Y-94081101D01*
X225555345Y-94032497D01*
X225407680Y-93953569D01*
X225278251Y-93847349D01*
X225172031Y-93717920D01*
X225093103Y-93570255D01*
X225044499Y-93410030D01*
X225028088Y-93243400D01*
X225044499Y-93076770D01*
X225093103Y-92916545D01*
X225172031Y-92768880D01*
X225278251Y-92639451D01*
X225407680Y-92533231D01*
X225555345Y-92454303D01*
X225715570Y-92405699D01*
X225840448Y-92393400D01*
X225923952Y-92393400D01*
X226048830Y-92405699D01*
X226048830Y-92405699D01*
G37*
G36*
X140042000Y-92798000D02*
X138342000Y-92798000D01*
X138342000Y-91098000D01*
X140042000Y-91098000D01*
X140042000Y-92798000D01*
X140042000Y-92798000D01*
G37*
G36*
X226048830Y-89865699D02*
X226209055Y-89914303D01*
X226356720Y-89993231D01*
X226486149Y-90099451D01*
X226592369Y-90228880D01*
X226671297Y-90376545D01*
X226719901Y-90536770D01*
X226736312Y-90703400D01*
X226719901Y-90870030D01*
X226671297Y-91030255D01*
X226592369Y-91177920D01*
X226486149Y-91307349D01*
X226356720Y-91413569D01*
X226209055Y-91492497D01*
X226048830Y-91541101D01*
X225923952Y-91553400D01*
X225840448Y-91553400D01*
X225715570Y-91541101D01*
X225555345Y-91492497D01*
X225407680Y-91413569D01*
X225278251Y-91307349D01*
X225172031Y-91177920D01*
X225093103Y-91030255D01*
X225044499Y-90870030D01*
X225028088Y-90703400D01*
X225044499Y-90536770D01*
X225093103Y-90376545D01*
X225172031Y-90228880D01*
X225278251Y-90099451D01*
X225407680Y-89993231D01*
X225555345Y-89914303D01*
X225715570Y-89865699D01*
X225840448Y-89853400D01*
X225923952Y-89853400D01*
X226048830Y-89865699D01*
X226048830Y-89865699D01*
G37*
G36*
X139358630Y-88570299D02*
X139518855Y-88618903D01*
X139666520Y-88697831D01*
X139795949Y-88804051D01*
X139902169Y-88933480D01*
X139981097Y-89081145D01*
X140029701Y-89241370D01*
X140046112Y-89408000D01*
X140029701Y-89574630D01*
X139981097Y-89734855D01*
X139902169Y-89882520D01*
X139795949Y-90011949D01*
X139666520Y-90118169D01*
X139518855Y-90197097D01*
X139358630Y-90245701D01*
X139233752Y-90258000D01*
X139150248Y-90258000D01*
X139025370Y-90245701D01*
X138865145Y-90197097D01*
X138717480Y-90118169D01*
X138588051Y-90011949D01*
X138481831Y-89882520D01*
X138402903Y-89734855D01*
X138354299Y-89574630D01*
X138337888Y-89408000D01*
X138354299Y-89241370D01*
X138402903Y-89081145D01*
X138481831Y-88933480D01*
X138588051Y-88804051D01*
X138717480Y-88697831D01*
X138865145Y-88618903D01*
X139025370Y-88570299D01*
X139150248Y-88558000D01*
X139233752Y-88558000D01*
X139358630Y-88570299D01*
X139358630Y-88570299D01*
G37*
G36*
X226048830Y-87325699D02*
X226209055Y-87374303D01*
X226356720Y-87453231D01*
X226486149Y-87559451D01*
X226592369Y-87688880D01*
X226671297Y-87836545D01*
X226719901Y-87996770D01*
X226736312Y-88163400D01*
X226719901Y-88330030D01*
X226671297Y-88490255D01*
X226592369Y-88637920D01*
X226486149Y-88767349D01*
X226356720Y-88873569D01*
X226209055Y-88952497D01*
X226048830Y-89001101D01*
X225923952Y-89013400D01*
X225840448Y-89013400D01*
X225715570Y-89001101D01*
X225555345Y-88952497D01*
X225407680Y-88873569D01*
X225278251Y-88767349D01*
X225172031Y-88637920D01*
X225093103Y-88490255D01*
X225044499Y-88330030D01*
X225028088Y-88163400D01*
X225044499Y-87996770D01*
X225093103Y-87836545D01*
X225172031Y-87688880D01*
X225278251Y-87559451D01*
X225407680Y-87453231D01*
X225555345Y-87374303D01*
X225715570Y-87325699D01*
X225840448Y-87313400D01*
X225923952Y-87313400D01*
X226048830Y-87325699D01*
X226048830Y-87325699D01*
G37*
G36*
X139358630Y-86030299D02*
X139518855Y-86078903D01*
X139666520Y-86157831D01*
X139795949Y-86264051D01*
X139902169Y-86393480D01*
X139981097Y-86541145D01*
X140029701Y-86701370D01*
X140046112Y-86868000D01*
X140029701Y-87034630D01*
X139981097Y-87194855D01*
X139902169Y-87342520D01*
X139795949Y-87471949D01*
X139666520Y-87578169D01*
X139518855Y-87657097D01*
X139358630Y-87705701D01*
X139233752Y-87718000D01*
X139150248Y-87718000D01*
X139025370Y-87705701D01*
X138865145Y-87657097D01*
X138717480Y-87578169D01*
X138588051Y-87471949D01*
X138481831Y-87342520D01*
X138402903Y-87194855D01*
X138354299Y-87034630D01*
X138337888Y-86868000D01*
X138354299Y-86701370D01*
X138402903Y-86541145D01*
X138481831Y-86393480D01*
X138588051Y-86264051D01*
X138717480Y-86157831D01*
X138865145Y-86078903D01*
X139025370Y-86030299D01*
X139150248Y-86018000D01*
X139233752Y-86018000D01*
X139358630Y-86030299D01*
X139358630Y-86030299D01*
G37*
G36*
X226048830Y-84785699D02*
X226209055Y-84834303D01*
X226356720Y-84913231D01*
X226486149Y-85019451D01*
X226592369Y-85148880D01*
X226671297Y-85296545D01*
X226719901Y-85456770D01*
X226736312Y-85623400D01*
X226719901Y-85790030D01*
X226671297Y-85950255D01*
X226592369Y-86097920D01*
X226486149Y-86227349D01*
X226356720Y-86333569D01*
X226209055Y-86412497D01*
X226048830Y-86461101D01*
X225923952Y-86473400D01*
X225840448Y-86473400D01*
X225715570Y-86461101D01*
X225555345Y-86412497D01*
X225407680Y-86333569D01*
X225278251Y-86227349D01*
X225172031Y-86097920D01*
X225093103Y-85950255D01*
X225044499Y-85790030D01*
X225028088Y-85623400D01*
X225044499Y-85456770D01*
X225093103Y-85296545D01*
X225172031Y-85148880D01*
X225278251Y-85019451D01*
X225407680Y-84913231D01*
X225555345Y-84834303D01*
X225715570Y-84785699D01*
X225840448Y-84773400D01*
X225923952Y-84773400D01*
X226048830Y-84785699D01*
X226048830Y-84785699D01*
G37*
G36*
X139358630Y-83490299D02*
X139518855Y-83538903D01*
X139666520Y-83617831D01*
X139795949Y-83724051D01*
X139902169Y-83853480D01*
X139981097Y-84001145D01*
X140029701Y-84161370D01*
X140046112Y-84328000D01*
X140029701Y-84494630D01*
X139981097Y-84654855D01*
X139902169Y-84802520D01*
X139795949Y-84931949D01*
X139666520Y-85038169D01*
X139518855Y-85117097D01*
X139358630Y-85165701D01*
X139233752Y-85178000D01*
X139150248Y-85178000D01*
X139025370Y-85165701D01*
X138865145Y-85117097D01*
X138717480Y-85038169D01*
X138588051Y-84931949D01*
X138481831Y-84802520D01*
X138402903Y-84654855D01*
X138354299Y-84494630D01*
X138337888Y-84328000D01*
X138354299Y-84161370D01*
X138402903Y-84001145D01*
X138481831Y-83853480D01*
X138588051Y-83724051D01*
X138717480Y-83617831D01*
X138865145Y-83538903D01*
X139025370Y-83490299D01*
X139150248Y-83478000D01*
X139233752Y-83478000D01*
X139358630Y-83490299D01*
X139358630Y-83490299D01*
G37*
G36*
X226048830Y-82245699D02*
X226209055Y-82294303D01*
X226356720Y-82373231D01*
X226486149Y-82479451D01*
X226592369Y-82608880D01*
X226671297Y-82756545D01*
X226719901Y-82916770D01*
X226736312Y-83083400D01*
X226719901Y-83250030D01*
X226671297Y-83410255D01*
X226592369Y-83557920D01*
X226486149Y-83687349D01*
X226356720Y-83793569D01*
X226209055Y-83872497D01*
X226048830Y-83921101D01*
X225923952Y-83933400D01*
X225840448Y-83933400D01*
X225715570Y-83921101D01*
X225555345Y-83872497D01*
X225407680Y-83793569D01*
X225278251Y-83687349D01*
X225172031Y-83557920D01*
X225093103Y-83410255D01*
X225044499Y-83250030D01*
X225028088Y-83083400D01*
X225044499Y-82916770D01*
X225093103Y-82756545D01*
X225172031Y-82608880D01*
X225278251Y-82479451D01*
X225407680Y-82373231D01*
X225555345Y-82294303D01*
X225715570Y-82245699D01*
X225840448Y-82233400D01*
X225923952Y-82233400D01*
X226048830Y-82245699D01*
X226048830Y-82245699D01*
G37*
G36*
X139358630Y-80950299D02*
X139518855Y-80998903D01*
X139666520Y-81077831D01*
X139795949Y-81184051D01*
X139902169Y-81313480D01*
X139981097Y-81461145D01*
X140029701Y-81621370D01*
X140046112Y-81788000D01*
X140029701Y-81954630D01*
X139981097Y-82114855D01*
X139902169Y-82262520D01*
X139795949Y-82391949D01*
X139666520Y-82498169D01*
X139518855Y-82577097D01*
X139358630Y-82625701D01*
X139233752Y-82638000D01*
X139150248Y-82638000D01*
X139025370Y-82625701D01*
X138865145Y-82577097D01*
X138717480Y-82498169D01*
X138588051Y-82391949D01*
X138481831Y-82262520D01*
X138402903Y-82114855D01*
X138354299Y-81954630D01*
X138337888Y-81788000D01*
X138354299Y-81621370D01*
X138402903Y-81461145D01*
X138481831Y-81313480D01*
X138588051Y-81184051D01*
X138717480Y-81077831D01*
X138865145Y-80998903D01*
X139025370Y-80950299D01*
X139150248Y-80938000D01*
X139233752Y-80938000D01*
X139358630Y-80950299D01*
X139358630Y-80950299D01*
G37*
G36*
X226048830Y-79705699D02*
X226209055Y-79754303D01*
X226356720Y-79833231D01*
X226486149Y-79939451D01*
X226592369Y-80068880D01*
X226671297Y-80216545D01*
X226719901Y-80376770D01*
X226736312Y-80543400D01*
X226719901Y-80710030D01*
X226671297Y-80870255D01*
X226592369Y-81017920D01*
X226486149Y-81147349D01*
X226356720Y-81253569D01*
X226209055Y-81332497D01*
X226048830Y-81381101D01*
X225923952Y-81393400D01*
X225840448Y-81393400D01*
X225715570Y-81381101D01*
X225555345Y-81332497D01*
X225407680Y-81253569D01*
X225278251Y-81147349D01*
X225172031Y-81017920D01*
X225093103Y-80870255D01*
X225044499Y-80710030D01*
X225028088Y-80543400D01*
X225044499Y-80376770D01*
X225093103Y-80216545D01*
X225172031Y-80068880D01*
X225278251Y-79939451D01*
X225407680Y-79833231D01*
X225555345Y-79754303D01*
X225715570Y-79705699D01*
X225840448Y-79693400D01*
X225923952Y-79693400D01*
X226048830Y-79705699D01*
X226048830Y-79705699D01*
G37*
G36*
X139358630Y-78410299D02*
X139518855Y-78458903D01*
X139666520Y-78537831D01*
X139795949Y-78644051D01*
X139902169Y-78773480D01*
X139981097Y-78921145D01*
X140029701Y-79081370D01*
X140046112Y-79248000D01*
X140029701Y-79414630D01*
X139981097Y-79574855D01*
X139902169Y-79722520D01*
X139795949Y-79851949D01*
X139666520Y-79958169D01*
X139518855Y-80037097D01*
X139358630Y-80085701D01*
X139233752Y-80098000D01*
X139150248Y-80098000D01*
X139025370Y-80085701D01*
X138865145Y-80037097D01*
X138717480Y-79958169D01*
X138588051Y-79851949D01*
X138481831Y-79722520D01*
X138402903Y-79574855D01*
X138354299Y-79414630D01*
X138337888Y-79248000D01*
X138354299Y-79081370D01*
X138402903Y-78921145D01*
X138481831Y-78773480D01*
X138588051Y-78644051D01*
X138717480Y-78537831D01*
X138865145Y-78458903D01*
X139025370Y-78410299D01*
X139150248Y-78398000D01*
X139233752Y-78398000D01*
X139358630Y-78410299D01*
X139358630Y-78410299D01*
G37*
G36*
X226048830Y-77165699D02*
X226209055Y-77214303D01*
X226356720Y-77293231D01*
X226486149Y-77399451D01*
X226592369Y-77528880D01*
X226671297Y-77676545D01*
X226719901Y-77836770D01*
X226736312Y-78003400D01*
X226719901Y-78170030D01*
X226671297Y-78330255D01*
X226592369Y-78477920D01*
X226486149Y-78607349D01*
X226356720Y-78713569D01*
X226209055Y-78792497D01*
X226048830Y-78841101D01*
X225923952Y-78853400D01*
X225840448Y-78853400D01*
X225715570Y-78841101D01*
X225555345Y-78792497D01*
X225407680Y-78713569D01*
X225278251Y-78607349D01*
X225172031Y-78477920D01*
X225093103Y-78330255D01*
X225044499Y-78170030D01*
X225028088Y-78003400D01*
X225044499Y-77836770D01*
X225093103Y-77676545D01*
X225172031Y-77528880D01*
X225278251Y-77399451D01*
X225407680Y-77293231D01*
X225555345Y-77214303D01*
X225715570Y-77165699D01*
X225840448Y-77153400D01*
X225923952Y-77153400D01*
X226048830Y-77165699D01*
X226048830Y-77165699D01*
G37*
G36*
X139358630Y-75870299D02*
X139518855Y-75918903D01*
X139666520Y-75997831D01*
X139795949Y-76104051D01*
X139902169Y-76233480D01*
X139981097Y-76381145D01*
X140029701Y-76541370D01*
X140046112Y-76708000D01*
X140029701Y-76874630D01*
X139981097Y-77034855D01*
X139902169Y-77182520D01*
X139795949Y-77311949D01*
X139666520Y-77418169D01*
X139518855Y-77497097D01*
X139358630Y-77545701D01*
X139233752Y-77558000D01*
X139150248Y-77558000D01*
X139025370Y-77545701D01*
X138865145Y-77497097D01*
X138717480Y-77418169D01*
X138588051Y-77311949D01*
X138481831Y-77182520D01*
X138402903Y-77034855D01*
X138354299Y-76874630D01*
X138337888Y-76708000D01*
X138354299Y-76541370D01*
X138402903Y-76381145D01*
X138481831Y-76233480D01*
X138588051Y-76104051D01*
X138717480Y-75997831D01*
X138865145Y-75918903D01*
X139025370Y-75870299D01*
X139150248Y-75858000D01*
X139233752Y-75858000D01*
X139358630Y-75870299D01*
X139358630Y-75870299D01*
G37*
G36*
X226048830Y-74625699D02*
X226209055Y-74674303D01*
X226356720Y-74753231D01*
X226486149Y-74859451D01*
X226592369Y-74988880D01*
X226671297Y-75136545D01*
X226719901Y-75296770D01*
X226736312Y-75463400D01*
X226719901Y-75630030D01*
X226671297Y-75790255D01*
X226592369Y-75937920D01*
X226486149Y-76067349D01*
X226356720Y-76173569D01*
X226209055Y-76252497D01*
X226048830Y-76301101D01*
X225923952Y-76313400D01*
X225840448Y-76313400D01*
X225715570Y-76301101D01*
X225555345Y-76252497D01*
X225407680Y-76173569D01*
X225278251Y-76067349D01*
X225172031Y-75937920D01*
X225093103Y-75790255D01*
X225044499Y-75630030D01*
X225028088Y-75463400D01*
X225044499Y-75296770D01*
X225093103Y-75136545D01*
X225172031Y-74988880D01*
X225278251Y-74859451D01*
X225407680Y-74753231D01*
X225555345Y-74674303D01*
X225715570Y-74625699D01*
X225840448Y-74613400D01*
X225923952Y-74613400D01*
X226048830Y-74625699D01*
X226048830Y-74625699D01*
G37*
G36*
X139358630Y-73330299D02*
X139518855Y-73378903D01*
X139666520Y-73457831D01*
X139795949Y-73564051D01*
X139902169Y-73693480D01*
X139981097Y-73841145D01*
X140029701Y-74001370D01*
X140046112Y-74168000D01*
X140029701Y-74334630D01*
X139981097Y-74494855D01*
X139902169Y-74642520D01*
X139795949Y-74771949D01*
X139666520Y-74878169D01*
X139518855Y-74957097D01*
X139358630Y-75005701D01*
X139233752Y-75018000D01*
X139150248Y-75018000D01*
X139025370Y-75005701D01*
X138865145Y-74957097D01*
X138717480Y-74878169D01*
X138588051Y-74771949D01*
X138481831Y-74642520D01*
X138402903Y-74494855D01*
X138354299Y-74334630D01*
X138337888Y-74168000D01*
X138354299Y-74001370D01*
X138402903Y-73841145D01*
X138481831Y-73693480D01*
X138588051Y-73564051D01*
X138717480Y-73457831D01*
X138865145Y-73378903D01*
X139025370Y-73330299D01*
X139150248Y-73318000D01*
X139233752Y-73318000D01*
X139358630Y-73330299D01*
X139358630Y-73330299D01*
G37*
G36*
X226048830Y-72085699D02*
X226209055Y-72134303D01*
X226356720Y-72213231D01*
X226486149Y-72319451D01*
X226592369Y-72448880D01*
X226671297Y-72596545D01*
X226719901Y-72756770D01*
X226736312Y-72923400D01*
X226719901Y-73090030D01*
X226671297Y-73250255D01*
X226592369Y-73397920D01*
X226486149Y-73527349D01*
X226356720Y-73633569D01*
X226209055Y-73712497D01*
X226048830Y-73761101D01*
X225923952Y-73773400D01*
X225840448Y-73773400D01*
X225715570Y-73761101D01*
X225555345Y-73712497D01*
X225407680Y-73633569D01*
X225278251Y-73527349D01*
X225172031Y-73397920D01*
X225093103Y-73250255D01*
X225044499Y-73090030D01*
X225028088Y-72923400D01*
X225044499Y-72756770D01*
X225093103Y-72596545D01*
X225172031Y-72448880D01*
X225278251Y-72319451D01*
X225407680Y-72213231D01*
X225555345Y-72134303D01*
X225715570Y-72085699D01*
X225840448Y-72073400D01*
X225923952Y-72073400D01*
X226048830Y-72085699D01*
X226048830Y-72085699D01*
G37*
G36*
X226048830Y-69545699D02*
X226209055Y-69594303D01*
X226356720Y-69673231D01*
X226486149Y-69779451D01*
X226592369Y-69908880D01*
X226671297Y-70056545D01*
X226719901Y-70216770D01*
X226736312Y-70383400D01*
X226719901Y-70550030D01*
X226671297Y-70710255D01*
X226592369Y-70857920D01*
X226486149Y-70987349D01*
X226356720Y-71093569D01*
X226209055Y-71172497D01*
X226048830Y-71221101D01*
X225923952Y-71233400D01*
X225840448Y-71233400D01*
X225715570Y-71221101D01*
X225555345Y-71172497D01*
X225407680Y-71093569D01*
X225278251Y-70987349D01*
X225172031Y-70857920D01*
X225093103Y-70710255D01*
X225044499Y-70550030D01*
X225028088Y-70383400D01*
X225044499Y-70216770D01*
X225093103Y-70056545D01*
X225172031Y-69908880D01*
X225278251Y-69779451D01*
X225407680Y-69673231D01*
X225555345Y-69594303D01*
X225715570Y-69545699D01*
X225840448Y-69533400D01*
X225923952Y-69533400D01*
X226048830Y-69545699D01*
X226048830Y-69545699D01*
G37*
G36*
X220132215Y-66953329D02*
X220228814Y-66972544D01*
X220501797Y-67085617D01*
X220744200Y-67247587D01*
X220747477Y-67249776D01*
X220956404Y-67458703D01*
X221120564Y-67704385D01*
X221233636Y-67977367D01*
X221291280Y-68267161D01*
X221291280Y-68562639D01*
X221233636Y-68852433D01*
X221120564Y-69125415D01*
X220956404Y-69371097D01*
X220747477Y-69580024D01*
X220747474Y-69580026D01*
X220501797Y-69744183D01*
X220228814Y-69857256D01*
X220132215Y-69876471D01*
X219939019Y-69914900D01*
X219643541Y-69914900D01*
X219450345Y-69876471D01*
X219353746Y-69857256D01*
X219080763Y-69744183D01*
X218835086Y-69580026D01*
X218835083Y-69580024D01*
X218626156Y-69371097D01*
X218461996Y-69125415D01*
X218348924Y-68852433D01*
X218291280Y-68562639D01*
X218291280Y-68267161D01*
X218348924Y-67977367D01*
X218461996Y-67704385D01*
X218626156Y-67458703D01*
X218835083Y-67249776D01*
X218838360Y-67247587D01*
X219080763Y-67085617D01*
X219353746Y-66972544D01*
X219450345Y-66953329D01*
X219643541Y-66914900D01*
X219939019Y-66914900D01*
X220132215Y-66953329D01*
X220132215Y-66953329D01*
G37*
G36*
X145133635Y-66953329D02*
X145230234Y-66972544D01*
X145503217Y-67085617D01*
X145745620Y-67247587D01*
X145748897Y-67249776D01*
X145957824Y-67458703D01*
X146121984Y-67704385D01*
X146235056Y-67977367D01*
X146292700Y-68267161D01*
X146292700Y-68562639D01*
X146235056Y-68852433D01*
X146121984Y-69125415D01*
X145957824Y-69371097D01*
X145748897Y-69580024D01*
X145748894Y-69580026D01*
X145503217Y-69744183D01*
X145230234Y-69857256D01*
X145133635Y-69876471D01*
X144940439Y-69914900D01*
X144644961Y-69914900D01*
X144451765Y-69876471D01*
X144355166Y-69857256D01*
X144082183Y-69744183D01*
X143836506Y-69580026D01*
X143836503Y-69580024D01*
X143627576Y-69371097D01*
X143463416Y-69125415D01*
X143350344Y-68852433D01*
X143292700Y-68562639D01*
X143292700Y-68267161D01*
X143350344Y-67977367D01*
X143463416Y-67704385D01*
X143627576Y-67458703D01*
X143836503Y-67249776D01*
X143839780Y-67247587D01*
X144082183Y-67085617D01*
X144355166Y-66972544D01*
X144451765Y-66953329D01*
X144644961Y-66914900D01*
X144940439Y-66914900D01*
X145133635Y-66953329D01*
X145133635Y-66953329D01*
G37*
G36*
X225197800Y-63222000D02*
X222197800Y-63222000D01*
X222197800Y-60222000D01*
X225197800Y-60222000D01*
X225197800Y-63222000D01*
X225197800Y-63222000D01*
G37*
G36*
X224038735Y-55180429D02*
X224135334Y-55199644D01*
X224408317Y-55312717D01*
X224520520Y-55387689D01*
X224653997Y-55476876D01*
X224862924Y-55685803D01*
X224862926Y-55685806D01*
X225027083Y-55931483D01*
X225140156Y-56204466D01*
X225144575Y-56226682D01*
X225197800Y-56494261D01*
X225197800Y-56789739D01*
X225159371Y-56982935D01*
X225140156Y-57079534D01*
X225027083Y-57352517D01*
X224865113Y-57594920D01*
X224862924Y-57598197D01*
X224653997Y-57807124D01*
X224653994Y-57807126D01*
X224408317Y-57971283D01*
X224135334Y-58084356D01*
X224038735Y-58103571D01*
X223845539Y-58142000D01*
X223550061Y-58142000D01*
X223356865Y-58103571D01*
X223260266Y-58084356D01*
X222987283Y-57971283D01*
X222741606Y-57807126D01*
X222741603Y-57807124D01*
X222532676Y-57598197D01*
X222530487Y-57594920D01*
X222368517Y-57352517D01*
X222255444Y-57079534D01*
X222236229Y-56982935D01*
X222197800Y-56789739D01*
X222197800Y-56494261D01*
X222251025Y-56226682D01*
X222255444Y-56204466D01*
X222368517Y-55931483D01*
X222532674Y-55685806D01*
X222532676Y-55685803D01*
X222741603Y-55476876D01*
X222875080Y-55387689D01*
X222987283Y-55312717D01*
X223260266Y-55199644D01*
X223356865Y-55180429D01*
X223550061Y-55142000D01*
X223845539Y-55142000D01*
X224038735Y-55180429D01*
X224038735Y-55180429D01*
G37*
G36*
X156228525Y-55246809D02*
X156387641Y-55312717D01*
X156435993Y-55332745D01*
X156518222Y-55387689D01*
X156622711Y-55457506D01*
X156781494Y-55616289D01*
X156906256Y-55803009D01*
X156992191Y-56010475D01*
X157036000Y-56230718D01*
X157036000Y-56455282D01*
X156992191Y-56675525D01*
X156976209Y-56714108D01*
X156906255Y-56882993D01*
X156828144Y-56999894D01*
X156781494Y-57069711D01*
X156622711Y-57228494D01*
X156622708Y-57228496D01*
X156435993Y-57353255D01*
X156435992Y-57353256D01*
X156435991Y-57353256D01*
X156228525Y-57439191D01*
X156008282Y-57483000D01*
X155783718Y-57483000D01*
X155563475Y-57439191D01*
X155356009Y-57353256D01*
X155356008Y-57353256D01*
X155356007Y-57353255D01*
X155169292Y-57228496D01*
X155169289Y-57228494D01*
X155010506Y-57069711D01*
X154963856Y-56999894D01*
X154885745Y-56882993D01*
X154815791Y-56714108D01*
X154799809Y-56675525D01*
X154756000Y-56455282D01*
X154756000Y-56230718D01*
X154799809Y-56010475D01*
X154885744Y-55803009D01*
X155010506Y-55616289D01*
X155169289Y-55457506D01*
X155273778Y-55387689D01*
X155356007Y-55332745D01*
X155404359Y-55312717D01*
X155563475Y-55246809D01*
X155783718Y-55203000D01*
X156008282Y-55203000D01*
X156228525Y-55246809D01*
X156228525Y-55246809D01*
G37*
G36*
X168928525Y-55246809D02*
X169087641Y-55312717D01*
X169135993Y-55332745D01*
X169218222Y-55387689D01*
X169322711Y-55457506D01*
X169481494Y-55616289D01*
X169606256Y-55803009D01*
X169692191Y-56010475D01*
X169736000Y-56230718D01*
X169736000Y-56455282D01*
X169692191Y-56675525D01*
X169676209Y-56714108D01*
X169606255Y-56882993D01*
X169528144Y-56999894D01*
X169481494Y-57069711D01*
X169322711Y-57228494D01*
X169322708Y-57228496D01*
X169135993Y-57353255D01*
X169135992Y-57353256D01*
X169135991Y-57353256D01*
X168928525Y-57439191D01*
X168708282Y-57483000D01*
X168483718Y-57483000D01*
X168263475Y-57439191D01*
X168056009Y-57353256D01*
X168056008Y-57353256D01*
X168056007Y-57353255D01*
X167869292Y-57228496D01*
X167869289Y-57228494D01*
X167710506Y-57069711D01*
X167663856Y-56999894D01*
X167585745Y-56882993D01*
X167515791Y-56714108D01*
X167499809Y-56675525D01*
X167456000Y-56455282D01*
X167456000Y-56230718D01*
X167499809Y-56010475D01*
X167585744Y-55803009D01*
X167710506Y-55616289D01*
X167869289Y-55457506D01*
X167973778Y-55387689D01*
X168056007Y-55332745D01*
X168104359Y-55312717D01*
X168263475Y-55246809D01*
X168483718Y-55203000D01*
X168708282Y-55203000D01*
X168928525Y-55246809D01*
X168928525Y-55246809D01*
G37*
G36*
X162578525Y-55246809D02*
X162737641Y-55312717D01*
X162785993Y-55332745D01*
X162868222Y-55387689D01*
X162972711Y-55457506D01*
X163131494Y-55616289D01*
X163256256Y-55803009D01*
X163342191Y-56010475D01*
X163386000Y-56230718D01*
X163386000Y-56455282D01*
X163342191Y-56675525D01*
X163326209Y-56714108D01*
X163256255Y-56882993D01*
X163178144Y-56999894D01*
X163131494Y-57069711D01*
X162972711Y-57228494D01*
X162972708Y-57228496D01*
X162785993Y-57353255D01*
X162785992Y-57353256D01*
X162785991Y-57353256D01*
X162578525Y-57439191D01*
X162358282Y-57483000D01*
X162133718Y-57483000D01*
X161913475Y-57439191D01*
X161706009Y-57353256D01*
X161706008Y-57353256D01*
X161706007Y-57353255D01*
X161519292Y-57228496D01*
X161519289Y-57228494D01*
X161360506Y-57069711D01*
X161313856Y-56999894D01*
X161235745Y-56882993D01*
X161165791Y-56714108D01*
X161149809Y-56675525D01*
X161106000Y-56455282D01*
X161106000Y-56230718D01*
X161149809Y-56010475D01*
X161235744Y-55803009D01*
X161360506Y-55616289D01*
X161519289Y-55457506D01*
X161623778Y-55387689D01*
X161706007Y-55332745D01*
X161754359Y-55312717D01*
X161913475Y-55246809D01*
X162133718Y-55203000D01*
X162358282Y-55203000D01*
X162578525Y-55246809D01*
X162578525Y-55246809D01*
G37*
G36*
X211473525Y-55018209D02*
X211675583Y-55101904D01*
X211680993Y-55104145D01*
X211737647Y-55142000D01*
X211867711Y-55228906D01*
X212026494Y-55387689D01*
X212026496Y-55387692D01*
X212086086Y-55476874D01*
X212151256Y-55574409D01*
X212237191Y-55781875D01*
X212281000Y-56002118D01*
X212281000Y-56226682D01*
X212237191Y-56446925D01*
X212217583Y-56494263D01*
X212151255Y-56654393D01*
X212060821Y-56789737D01*
X212026494Y-56841111D01*
X211867711Y-56999894D01*
X211867708Y-56999896D01*
X211680993Y-57124655D01*
X211680992Y-57124656D01*
X211680991Y-57124656D01*
X211473525Y-57210591D01*
X211253282Y-57254400D01*
X211028718Y-57254400D01*
X210808475Y-57210591D01*
X210601009Y-57124656D01*
X210601008Y-57124656D01*
X210601007Y-57124655D01*
X210414292Y-56999896D01*
X210414289Y-56999894D01*
X210255506Y-56841111D01*
X210221179Y-56789737D01*
X210130745Y-56654393D01*
X210064417Y-56494263D01*
X210044809Y-56446925D01*
X210001000Y-56226682D01*
X210001000Y-56002118D01*
X210044809Y-55781875D01*
X210130744Y-55574409D01*
X210195915Y-55476874D01*
X210255504Y-55387692D01*
X210255506Y-55387689D01*
X210414289Y-55228906D01*
X210544353Y-55142000D01*
X210601007Y-55104145D01*
X210606417Y-55101904D01*
X210808475Y-55018209D01*
X211028718Y-54974400D01*
X211253282Y-54974400D01*
X211473525Y-55018209D01*
X211473525Y-55018209D01*
G37*
G36*
X205123525Y-55018209D02*
X205325583Y-55101904D01*
X205330993Y-55104145D01*
X205387647Y-55142000D01*
X205517711Y-55228906D01*
X205676494Y-55387689D01*
X205676496Y-55387692D01*
X205736086Y-55476874D01*
X205801256Y-55574409D01*
X205887191Y-55781875D01*
X205931000Y-56002118D01*
X205931000Y-56226682D01*
X205887191Y-56446925D01*
X205867583Y-56494263D01*
X205801255Y-56654393D01*
X205710821Y-56789737D01*
X205676494Y-56841111D01*
X205517711Y-56999894D01*
X205517708Y-56999896D01*
X205330993Y-57124655D01*
X205330992Y-57124656D01*
X205330991Y-57124656D01*
X205123525Y-57210591D01*
X204903282Y-57254400D01*
X204678718Y-57254400D01*
X204458475Y-57210591D01*
X204251009Y-57124656D01*
X204251008Y-57124656D01*
X204251007Y-57124655D01*
X204064292Y-56999896D01*
X204064289Y-56999894D01*
X203905506Y-56841111D01*
X203871179Y-56789737D01*
X203780745Y-56654393D01*
X203714417Y-56494263D01*
X203694809Y-56446925D01*
X203651000Y-56226682D01*
X203651000Y-56002118D01*
X203694809Y-55781875D01*
X203780744Y-55574409D01*
X203845915Y-55476874D01*
X203905504Y-55387692D01*
X203905506Y-55387689D01*
X204064289Y-55228906D01*
X204194353Y-55142000D01*
X204251007Y-55104145D01*
X204256417Y-55101904D01*
X204458475Y-55018209D01*
X204678718Y-54974400D01*
X204903282Y-54974400D01*
X205123525Y-55018209D01*
X205123525Y-55018209D01*
G37*
G36*
X198773525Y-55018209D02*
X198975583Y-55101904D01*
X198980993Y-55104145D01*
X199037647Y-55142000D01*
X199167711Y-55228906D01*
X199326494Y-55387689D01*
X199326496Y-55387692D01*
X199386086Y-55476874D01*
X199451256Y-55574409D01*
X199537191Y-55781875D01*
X199581000Y-56002118D01*
X199581000Y-56226682D01*
X199537191Y-56446925D01*
X199517583Y-56494263D01*
X199451255Y-56654393D01*
X199360821Y-56789737D01*
X199326494Y-56841111D01*
X199167711Y-56999894D01*
X199167708Y-56999896D01*
X198980993Y-57124655D01*
X198980992Y-57124656D01*
X198980991Y-57124656D01*
X198773525Y-57210591D01*
X198553282Y-57254400D01*
X198328718Y-57254400D01*
X198108475Y-57210591D01*
X197901009Y-57124656D01*
X197901008Y-57124656D01*
X197901007Y-57124655D01*
X197714292Y-56999896D01*
X197714289Y-56999894D01*
X197555506Y-56841111D01*
X197521179Y-56789737D01*
X197430745Y-56654393D01*
X197364417Y-56494263D01*
X197344809Y-56446925D01*
X197301000Y-56226682D01*
X197301000Y-56002118D01*
X197344809Y-55781875D01*
X197430744Y-55574409D01*
X197495915Y-55476874D01*
X197555504Y-55387692D01*
X197555506Y-55387689D01*
X197714289Y-55228906D01*
X197844353Y-55142000D01*
X197901007Y-55104145D01*
X197906417Y-55101904D01*
X198108475Y-55018209D01*
X198328718Y-54974400D01*
X198553282Y-54974400D01*
X198773525Y-55018209D01*
X198773525Y-55018209D01*
G37*
G36*
X190162925Y-54891209D02*
X190363766Y-54974400D01*
X190370393Y-54977145D01*
X190431851Y-55018210D01*
X190557111Y-55101906D01*
X190715894Y-55260689D01*
X190715896Y-55260692D01*
X190800755Y-55387692D01*
X190840656Y-55447409D01*
X190926591Y-55654875D01*
X190970400Y-55875118D01*
X190970400Y-56099682D01*
X190926591Y-56319925D01*
X190840656Y-56527391D01*
X190715894Y-56714111D01*
X190557111Y-56872894D01*
X190557108Y-56872896D01*
X190370393Y-56997655D01*
X190370392Y-56997656D01*
X190370391Y-56997656D01*
X190162925Y-57083591D01*
X189942682Y-57127400D01*
X189718118Y-57127400D01*
X189497875Y-57083591D01*
X189290409Y-56997656D01*
X189290408Y-56997656D01*
X189290407Y-56997655D01*
X189103692Y-56872896D01*
X189103689Y-56872894D01*
X188944906Y-56714111D01*
X188820144Y-56527391D01*
X188734209Y-56319925D01*
X188690400Y-56099682D01*
X188690400Y-55875118D01*
X188734209Y-55654875D01*
X188820144Y-55447409D01*
X188860046Y-55387692D01*
X188944904Y-55260692D01*
X188944906Y-55260689D01*
X189103689Y-55101906D01*
X189228949Y-55018210D01*
X189290407Y-54977145D01*
X189297034Y-54974400D01*
X189497875Y-54891209D01*
X189718118Y-54847400D01*
X189942682Y-54847400D01*
X190162925Y-54891209D01*
X190162925Y-54891209D01*
G37*
G36*
X183812925Y-54891209D02*
X184013766Y-54974400D01*
X184020393Y-54977145D01*
X184081851Y-55018210D01*
X184207111Y-55101906D01*
X184365894Y-55260689D01*
X184365896Y-55260692D01*
X184450755Y-55387692D01*
X184490656Y-55447409D01*
X184576591Y-55654875D01*
X184620400Y-55875118D01*
X184620400Y-56099682D01*
X184576591Y-56319925D01*
X184490656Y-56527391D01*
X184365894Y-56714111D01*
X184207111Y-56872894D01*
X184207108Y-56872896D01*
X184020393Y-56997655D01*
X184020392Y-56997656D01*
X184020391Y-56997656D01*
X183812925Y-57083591D01*
X183592682Y-57127400D01*
X183368118Y-57127400D01*
X183147875Y-57083591D01*
X182940409Y-56997656D01*
X182940408Y-56997656D01*
X182940407Y-56997655D01*
X182753692Y-56872896D01*
X182753689Y-56872894D01*
X182594906Y-56714111D01*
X182470144Y-56527391D01*
X182384209Y-56319925D01*
X182340400Y-56099682D01*
X182340400Y-55875118D01*
X182384209Y-55654875D01*
X182470144Y-55447409D01*
X182510046Y-55387692D01*
X182594904Y-55260692D01*
X182594906Y-55260689D01*
X182753689Y-55101906D01*
X182878949Y-55018210D01*
X182940407Y-54977145D01*
X182947034Y-54974400D01*
X183147875Y-54891209D01*
X183368118Y-54847400D01*
X183592682Y-54847400D01*
X183812925Y-54891209D01*
X183812925Y-54891209D01*
G37*
G36*
X177462925Y-54891209D02*
X177663766Y-54974400D01*
X177670393Y-54977145D01*
X177731851Y-55018210D01*
X177857111Y-55101906D01*
X178015894Y-55260689D01*
X178015896Y-55260692D01*
X178100755Y-55387692D01*
X178140656Y-55447409D01*
X178226591Y-55654875D01*
X178270400Y-55875118D01*
X178270400Y-56099682D01*
X178226591Y-56319925D01*
X178140656Y-56527391D01*
X178015894Y-56714111D01*
X177857111Y-56872894D01*
X177857108Y-56872896D01*
X177670393Y-56997655D01*
X177670392Y-56997656D01*
X177670391Y-56997656D01*
X177462925Y-57083591D01*
X177242682Y-57127400D01*
X177018118Y-57127400D01*
X176797875Y-57083591D01*
X176590409Y-56997656D01*
X176590408Y-56997656D01*
X176590407Y-56997655D01*
X176403692Y-56872896D01*
X176403689Y-56872894D01*
X176244906Y-56714111D01*
X176120144Y-56527391D01*
X176034209Y-56319925D01*
X175990400Y-56099682D01*
X175990400Y-55875118D01*
X176034209Y-55654875D01*
X176120144Y-55447409D01*
X176160046Y-55387692D01*
X176244904Y-55260692D01*
X176244906Y-55260689D01*
X176403689Y-55101906D01*
X176528949Y-55018210D01*
X176590407Y-54977145D01*
X176597034Y-54974400D01*
X176797875Y-54891209D01*
X177018118Y-54847400D01*
X177242682Y-54847400D01*
X177462925Y-54891209D01*
X177462925Y-54891209D01*
G37*
G36*
X169736000Y-51133000D02*
X167456000Y-51133000D01*
X167456000Y-48853000D01*
X169736000Y-48853000D01*
X169736000Y-51133000D01*
X169736000Y-51133000D01*
G37*
G36*
X162578525Y-48896809D02*
X162785991Y-48982744D01*
X162785993Y-48982745D01*
X162868222Y-49037689D01*
X162972711Y-49107506D01*
X163131494Y-49266289D01*
X163256256Y-49453009D01*
X163342191Y-49660475D01*
X163386000Y-49880718D01*
X163386000Y-50105282D01*
X163342191Y-50325525D01*
X163326209Y-50364108D01*
X163256255Y-50532993D01*
X163178144Y-50649894D01*
X163131494Y-50719711D01*
X162972711Y-50878494D01*
X162972708Y-50878496D01*
X162785993Y-51003255D01*
X162785992Y-51003256D01*
X162785991Y-51003256D01*
X162578525Y-51089191D01*
X162358282Y-51133000D01*
X162133718Y-51133000D01*
X161913475Y-51089191D01*
X161706009Y-51003256D01*
X161706008Y-51003256D01*
X161706007Y-51003255D01*
X161519292Y-50878496D01*
X161519289Y-50878494D01*
X161360506Y-50719711D01*
X161313856Y-50649894D01*
X161235745Y-50532993D01*
X161165791Y-50364108D01*
X161149809Y-50325525D01*
X161106000Y-50105282D01*
X161106000Y-49880718D01*
X161149809Y-49660475D01*
X161235744Y-49453009D01*
X161360506Y-49266289D01*
X161519289Y-49107506D01*
X161623778Y-49037689D01*
X161706007Y-48982745D01*
X161706009Y-48982744D01*
X161913475Y-48896809D01*
X162133718Y-48853000D01*
X162358282Y-48853000D01*
X162578525Y-48896809D01*
X162578525Y-48896809D01*
G37*
G36*
X156228525Y-48896809D02*
X156435991Y-48982744D01*
X156435993Y-48982745D01*
X156518222Y-49037689D01*
X156622711Y-49107506D01*
X156781494Y-49266289D01*
X156906256Y-49453009D01*
X156992191Y-49660475D01*
X157036000Y-49880718D01*
X157036000Y-50105282D01*
X156992191Y-50325525D01*
X156976209Y-50364108D01*
X156906255Y-50532993D01*
X156828144Y-50649894D01*
X156781494Y-50719711D01*
X156622711Y-50878494D01*
X156622708Y-50878496D01*
X156435993Y-51003255D01*
X156435992Y-51003256D01*
X156435991Y-51003256D01*
X156228525Y-51089191D01*
X156008282Y-51133000D01*
X155783718Y-51133000D01*
X155563475Y-51089191D01*
X155356009Y-51003256D01*
X155356008Y-51003256D01*
X155356007Y-51003255D01*
X155169292Y-50878496D01*
X155169289Y-50878494D01*
X155010506Y-50719711D01*
X154963856Y-50649894D01*
X154885745Y-50532993D01*
X154815791Y-50364108D01*
X154799809Y-50325525D01*
X154756000Y-50105282D01*
X154756000Y-49880718D01*
X154799809Y-49660475D01*
X154885744Y-49453009D01*
X155010506Y-49266289D01*
X155169289Y-49107506D01*
X155273778Y-49037689D01*
X155356007Y-48982745D01*
X155356009Y-48982744D01*
X155563475Y-48896809D01*
X155783718Y-48853000D01*
X156008282Y-48853000D01*
X156228525Y-48896809D01*
X156228525Y-48896809D01*
G37*
G36*
X212281000Y-50904400D02*
X210001000Y-50904400D01*
X210001000Y-48624400D01*
X212281000Y-48624400D01*
X212281000Y-50904400D01*
X212281000Y-50904400D01*
G37*
G36*
X205123525Y-48668209D02*
X205325583Y-48751904D01*
X205330993Y-48754145D01*
X205478940Y-48853000D01*
X205517711Y-48878906D01*
X205676494Y-49037689D01*
X205801256Y-49224409D01*
X205887191Y-49431875D01*
X205931000Y-49652118D01*
X205931000Y-49876682D01*
X205887191Y-50096925D01*
X205883730Y-50105280D01*
X205801255Y-50304393D01*
X205678154Y-50488626D01*
X205676494Y-50491111D01*
X205517711Y-50649894D01*
X205517708Y-50649896D01*
X205330993Y-50774655D01*
X205330992Y-50774656D01*
X205330991Y-50774656D01*
X205123525Y-50860591D01*
X204903282Y-50904400D01*
X204678718Y-50904400D01*
X204458475Y-50860591D01*
X204251009Y-50774656D01*
X204251008Y-50774656D01*
X204251007Y-50774655D01*
X204064292Y-50649896D01*
X204064289Y-50649894D01*
X203905506Y-50491111D01*
X203903846Y-50488626D01*
X203780745Y-50304393D01*
X203698270Y-50105280D01*
X203694809Y-50096925D01*
X203651000Y-49876682D01*
X203651000Y-49652118D01*
X203694809Y-49431875D01*
X203780744Y-49224409D01*
X203905506Y-49037689D01*
X204064289Y-48878906D01*
X204103060Y-48853000D01*
X204251007Y-48754145D01*
X204256417Y-48751904D01*
X204458475Y-48668209D01*
X204678718Y-48624400D01*
X204903282Y-48624400D01*
X205123525Y-48668209D01*
X205123525Y-48668209D01*
G37*
G36*
X198773525Y-48668209D02*
X198975583Y-48751904D01*
X198980993Y-48754145D01*
X199128940Y-48853000D01*
X199167711Y-48878906D01*
X199326494Y-49037689D01*
X199451256Y-49224409D01*
X199537191Y-49431875D01*
X199581000Y-49652118D01*
X199581000Y-49876682D01*
X199537191Y-50096925D01*
X199533730Y-50105280D01*
X199451255Y-50304393D01*
X199328154Y-50488626D01*
X199326494Y-50491111D01*
X199167711Y-50649894D01*
X199167708Y-50649896D01*
X198980993Y-50774655D01*
X198980992Y-50774656D01*
X198980991Y-50774656D01*
X198773525Y-50860591D01*
X198553282Y-50904400D01*
X198328718Y-50904400D01*
X198108475Y-50860591D01*
X197901009Y-50774656D01*
X197901008Y-50774656D01*
X197901007Y-50774655D01*
X197714292Y-50649896D01*
X197714289Y-50649894D01*
X197555506Y-50491111D01*
X197553846Y-50488626D01*
X197430745Y-50304393D01*
X197348270Y-50105280D01*
X197344809Y-50096925D01*
X197301000Y-49876682D01*
X197301000Y-49652118D01*
X197344809Y-49431875D01*
X197430744Y-49224409D01*
X197555506Y-49037689D01*
X197714289Y-48878906D01*
X197753060Y-48853000D01*
X197901007Y-48754145D01*
X197906417Y-48751904D01*
X198108475Y-48668209D01*
X198328718Y-48624400D01*
X198553282Y-48624400D01*
X198773525Y-48668209D01*
X198773525Y-48668209D01*
G37*
G36*
X177462925Y-48541209D02*
X177663766Y-48624400D01*
X177670393Y-48627145D01*
X177731851Y-48668210D01*
X177857111Y-48751906D01*
X178015894Y-48910689D01*
X178015896Y-48910692D01*
X178100755Y-49037692D01*
X178140656Y-49097409D01*
X178226591Y-49304875D01*
X178270400Y-49525118D01*
X178270400Y-49749682D01*
X178226591Y-49969925D01*
X178140656Y-50177391D01*
X178015894Y-50364111D01*
X177857111Y-50522894D01*
X177857108Y-50522896D01*
X177670393Y-50647655D01*
X177670392Y-50647656D01*
X177670391Y-50647656D01*
X177462925Y-50733591D01*
X177242682Y-50777400D01*
X177018118Y-50777400D01*
X176797875Y-50733591D01*
X176590409Y-50647656D01*
X176590408Y-50647656D01*
X176590407Y-50647655D01*
X176403692Y-50522896D01*
X176403689Y-50522894D01*
X176244906Y-50364111D01*
X176120144Y-50177391D01*
X176034209Y-49969925D01*
X175990400Y-49749682D01*
X175990400Y-49525118D01*
X176034209Y-49304875D01*
X176120144Y-49097409D01*
X176160046Y-49037692D01*
X176244904Y-48910692D01*
X176244906Y-48910689D01*
X176403689Y-48751906D01*
X176528949Y-48668210D01*
X176590407Y-48627145D01*
X176597034Y-48624400D01*
X176797875Y-48541209D01*
X177018118Y-48497400D01*
X177242682Y-48497400D01*
X177462925Y-48541209D01*
X177462925Y-48541209D01*
G37*
G36*
X183812925Y-48541209D02*
X184013766Y-48624400D01*
X184020393Y-48627145D01*
X184081851Y-48668210D01*
X184207111Y-48751906D01*
X184365894Y-48910689D01*
X184365896Y-48910692D01*
X184450755Y-49037692D01*
X184490656Y-49097409D01*
X184576591Y-49304875D01*
X184620400Y-49525118D01*
X184620400Y-49749682D01*
X184576591Y-49969925D01*
X184490656Y-50177391D01*
X184365894Y-50364111D01*
X184207111Y-50522894D01*
X184207108Y-50522896D01*
X184020393Y-50647655D01*
X184020392Y-50647656D01*
X184020391Y-50647656D01*
X183812925Y-50733591D01*
X183592682Y-50777400D01*
X183368118Y-50777400D01*
X183147875Y-50733591D01*
X182940409Y-50647656D01*
X182940408Y-50647656D01*
X182940407Y-50647655D01*
X182753692Y-50522896D01*
X182753689Y-50522894D01*
X182594906Y-50364111D01*
X182470144Y-50177391D01*
X182384209Y-49969925D01*
X182340400Y-49749682D01*
X182340400Y-49525118D01*
X182384209Y-49304875D01*
X182470144Y-49097409D01*
X182510046Y-49037692D01*
X182594904Y-48910692D01*
X182594906Y-48910689D01*
X182753689Y-48751906D01*
X182878949Y-48668210D01*
X182940407Y-48627145D01*
X182947034Y-48624400D01*
X183147875Y-48541209D01*
X183368118Y-48497400D01*
X183592682Y-48497400D01*
X183812925Y-48541209D01*
X183812925Y-48541209D01*
G37*
G36*
X190970400Y-50777400D02*
X188690400Y-50777400D01*
X188690400Y-48497400D01*
X190970400Y-48497400D01*
X190970400Y-50777400D01*
X190970400Y-50777400D01*
G37*
M02*
