G04 #@! TF.FileFunction,Profile,NP*
%FSLAX46Y46*%
G04 Gerber Fmt 4.6, Leading zero omitted, Abs format (unit mm)*
G04 Created by KiCad (PCBNEW 4.0.7) date 03/14/19 05:19:24*
%MOMM*%
%LPD*%
G01*
G04 APERTURE LIST*
%ADD10C,0.100000*%
%ADD11C,0.150000*%
G04 APERTURE END LIST*
D10*
D11*
X107480000Y-43000000D02*
X107480000Y-74680000D01*
X111470000Y-43000000D02*
X107480000Y-43000000D01*
X111470000Y-42610000D02*
X111470000Y-43000000D01*
X111990000Y-42610000D02*
X111470000Y-42610000D01*
X149010000Y-74680000D02*
X107480000Y-74680000D01*
X149010000Y-42990000D02*
X149010000Y-74680000D01*
X146110000Y-42990000D02*
X149010000Y-42990000D01*
X146110000Y-42610000D02*
X146110000Y-43000000D01*
X145590000Y-42610000D02*
X146110000Y-42610000D01*
X145590000Y-30610000D02*
X145590000Y-42610000D01*
X135990000Y-30610000D02*
X145590000Y-30610000D01*
X135990000Y-42610000D02*
X135990000Y-30610000D01*
X133690000Y-42610000D02*
X135990000Y-42610000D01*
X133690000Y-30610000D02*
X133690000Y-42610000D01*
X124090000Y-30610000D02*
X133690000Y-30610000D01*
X124090000Y-42610000D02*
X124090000Y-30610000D01*
X121590000Y-42610000D02*
X124090000Y-42610000D01*
X121590000Y-30610000D02*
X121590000Y-42610000D01*
X111990000Y-30610000D02*
X121590000Y-30610000D01*
X111990000Y-42610000D02*
X111990000Y-30610000D01*
M02*
